<svg viewBox="0 0 762 184" fill="none" xmlns="http://www.w3.org/2000/svg">
<g clip-path="url(#clip0)">
<path fill-rule="evenodd" clip-rule="evenodd" d="M254.602 90.2851C254.597 87.5501 254.097 84.8385 253.126 82.2817C252.634 81.133 252.142 80.1067 251.649 79.2028C251.268 78.4358 250.722 77.7629 250.05 77.2325H271.706V115.653C262.681 120.498 252.508 122.92 241.189 122.919C227.324 122.919 216.332 118.732 208.211 110.358C204.251 106.3 201.228 101.424 199.354 96.0727C197.385 90.5736 196.401 84.3342 196.4 77.3545C196.4 63.0698 200.748 51.7813 209.444 43.4891C218.304 35.0343 230.527 30.8062 246.114 30.8049C253.448 30.7484 260.722 32.129 267.525 34.8686V51.9861C260.96 48.1282 253.453 46.1989 245.005 46.1981C235.9 46.1981 228.722 48.7843 223.471 53.9567C217.892 59.375 215.102 67.1742 215.104 77.3545C215.104 86.7965 217.524 94.1852 222.364 99.5208C227.121 104.776 234.052 107.403 243.16 107.402C245.28 107.415 247.398 107.271 249.497 106.971C251.23 106.729 252.938 106.337 254.604 105.801V90.2844L254.602 90.2851ZM345.291 121.688H324.002L308.744 89.2996C307.348 86.3441 305.42 84.8664 302.96 84.8664H300.622V121.688H278.721C279.95 120.785 281.017 119.061 281.92 116.515C282.341 115.243 282.69 113.948 282.966 112.636C283.249 111.321 283.394 109.98 283.398 108.635V44.4742C283.391 43.2571 283.289 42.0423 283.09 40.8413C282.893 39.6049 282.584 38.3889 282.167 37.2084C281.263 34.3355 280.073 32.5294 278.597 31.79H306.899C328.474 31.79 339.262 40.164 339.262 56.9121C339.262 63.2348 337.662 68.6123 334.463 73.0445C331.344 77.3969 327.447 80.3113 322.772 81.7878C324.166 82.4459 325.683 84.252 327.325 87.2062L345.291 121.688ZM300.622 72.3053H304.683C309.769 72.3053 313.788 71.074 316.742 68.6112C319.776 66.2311 321.294 62.906 321.295 58.636C321.295 50.0158 315.922 45.7058 305.175 45.7058H300.622V72.3053ZM346.151 121.688C346.77 121.128 347.308 120.486 347.751 119.779C348.363 118.837 348.859 117.823 349.227 116.762C350.245 114.214 350.788 111.501 350.827 108.758V44.5974C350.824 43.3392 350.721 42.0832 350.519 40.8413C350.322 39.6049 350.014 38.3889 349.596 37.2084C348.693 34.3355 347.503 32.5294 346.026 31.79H397.219V46.4445H368.053V68.1184H393.773V82.5265H368.053V107.033H399.308L393.156 121.688H346.151ZM401.77 121.688C402.388 121.127 402.926 120.485 403.37 119.779C403.982 118.836 404.477 117.823 404.845 116.762C405.863 114.214 406.405 111.501 406.446 108.758V44.5974C406.442 43.3392 406.339 42.0832 406.136 40.8413C405.94 39.6049 405.631 38.3889 405.214 37.2084C404.312 34.3355 403.122 32.5294 401.644 31.79H452.834V46.4445H423.673V68.1184H449.39V82.5265H423.673V107.033H454.929L448.774 121.688H401.77ZM479.167 121.688H457.264C458.037 121.154 458.687 120.461 459.17 119.656C459.835 118.602 460.353 117.463 460.708 116.269C461.128 115.089 461.436 113.873 461.63 112.636C461.833 111.394 461.937 110.138 461.94 108.88V44.5974C461.932 43.3598 461.828 42.1247 461.63 40.9029C461.441 39.645 461.132 38.408 460.708 37.2084C459.806 34.3355 458.658 32.5294 457.264 31.79H484.334L507.96 76.1226C509.765 79.6536 511.569 83.1633 513.374 86.6518C515.179 90.1404 516.902 93.65 518.545 97.1806C518.215 93.2401 517.969 88.1296 517.807 81.849C517.638 75.5687 517.556 68.1594 517.56 59.6211V31.79H534.787V121.688H512.268L487.288 74.7683C486.056 72.4709 484.703 69.7002 483.228 66.4562C481.753 63.2122 480.153 59.5386 478.43 55.4354C478.59 59.3764 478.754 64.1587 478.92 69.7823C479.086 75.4059 479.168 81.9531 479.167 89.424V121.689V121.688ZM570.594 89.7916H593.726L585.973 66.7622C585.154 64.3821 584.416 61.9397 583.761 59.4351C583.106 56.9305 582.572 54.4881 582.16 52.1077H582.039C581.627 54.407 581.093 56.7879 580.438 59.2503C579.783 61.7128 579.003 64.2989 578.1 67.0086L570.594 89.7916ZM603.816 121.688L597.912 103.462H566.534L560.751 121.688H540.323C542.618 120.292 544.914 116.105 547.212 109.127L573.423 31.79H591.019L617.23 109.127C618.125 111.976 619.278 114.738 620.675 117.377C621.824 119.43 622.974 120.867 624.123 121.688H603.816V121.688ZM684.172 90.2851C684.167 87.5499 683.665 84.8383 682.693 82.2817C682.203 81.133 681.708 80.1071 681.218 79.2028C680.836 78.4362 680.289 77.7635 679.617 77.2325H701.274V115.653C692.25 120.498 682.078 122.92 670.759 122.919C656.894 122.919 645.901 118.732 637.78 110.358C633.818 106.301 630.794 101.425 628.921 96.0727C626.952 90.5736 625.967 84.3342 625.967 77.3545C625.967 63.0698 630.315 51.7813 639.012 43.4891C647.87 35.0343 660.093 30.8062 675.678 30.8049C683.013 30.7484 690.288 32.1289 697.091 34.8686V51.9861C690.527 48.1282 683.02 46.1989 674.572 46.1981C665.466 46.1981 658.288 48.7843 653.037 53.9567C647.459 59.375 644.669 67.1742 644.669 77.3545C644.669 86.7965 647.09 94.1852 651.931 99.5208C656.686 104.776 663.618 107.403 672.728 107.402C674.848 107.415 676.966 107.27 679.064 106.971C680.797 106.728 682.506 106.337 684.172 105.801V90.2844V90.2851ZM708.288 121.688C708.906 121.128 709.444 120.486 709.885 119.779C710.498 118.837 710.995 117.823 711.364 116.762C712.382 114.214 712.924 111.501 712.965 108.758V44.5974C712.961 43.3392 712.858 42.0832 712.655 40.8413C712.459 39.6049 712.15 38.3889 711.733 37.2084C710.831 34.3355 709.641 32.5294 708.163 31.79H759.353V46.4445H730.192V68.1184H755.909V82.5265H730.192V107.033H761.444L755.293 121.688H708.288Z" fill="black"/>
<path fill-rule="evenodd" clip-rule="evenodd" d="M219.715 151.471V146.968H194.558V151.471H204.784V183.607H209.489V151.471H219.715ZM242.009 146.968V183.607H263.381V179.104H246.713V167.488H261.746V163.089H246.713V151.471H263.381V146.968H242.009H242.009ZM311.448 182.712C313.919 181.608 316.105 179.954 317.84 177.876L314.414 174.55C311.277 178.133 307.578 179.925 303.318 179.925C299.261 179.925 295.869 178.56 293.142 175.831C290.448 173.137 289.101 169.623 289.101 165.289C289.101 160.956 290.448 157.442 293.142 154.748C295.869 152.017 299.26 150.652 303.317 150.652C305.25 150.612 307.166 151.021 308.914 151.847C310.662 152.672 312.194 153.893 313.391 155.411L316.765 152.136C313.321 148.144 308.838 146.149 303.317 146.149C297.862 146.149 293.328 147.991 289.715 151.675C286.102 155.292 284.295 159.83 284.295 165.289C284.295 170.748 286.102 175.303 289.715 178.952C293.362 182.603 297.896 184.428 303.317 184.427C306.119 184.447 308.892 183.862 311.447 182.712H311.448ZM345.451 167.079H363.756V183.607H368.461V146.968H363.756V162.678H345.451V146.968H340.747V183.607H345.452V167.079H345.451ZM397.913 160.785L397.709 153.723H397.913L416.525 183.607H421.433V146.968H416.729V168.409L416.933 175.471H416.729L398.937 146.968H393.209V183.607H397.913V160.785H397.913ZM476.096 151.727C472.482 148.009 468.016 146.15 462.698 146.149C457.379 146.149 452.913 147.991 449.3 151.676C445.687 155.327 443.881 159.865 443.882 165.289C443.883 170.714 445.689 175.251 449.3 178.899C452.913 182.584 457.379 184.426 462.697 184.426C467.982 184.426 472.448 182.584 476.095 178.899C479.709 175.25 481.515 170.713 481.513 165.288C481.513 159.898 479.707 155.377 476.095 151.727H476.096ZM452.678 154.797C453.968 153.448 455.525 152.382 457.251 151.668C458.976 150.955 460.831 150.609 462.697 150.652C466.687 150.652 470.012 152.034 472.67 154.797C475.362 157.527 476.707 161.024 476.707 165.287C476.707 169.551 475.362 173.048 472.67 175.778C470.01 178.541 466.686 179.923 462.697 179.923C460.831 179.966 458.976 179.62 457.25 178.907C455.525 178.193 453.968 177.127 452.677 175.778C450.017 173.014 448.688 169.517 448.688 165.287C448.688 161.057 450.017 157.561 452.677 154.797L452.678 154.797ZM525.03 179.104H509.176V146.968H504.472V183.607H525.03V179.104V179.104ZM576.982 151.727C573.365 148.009 568.899 146.15 563.584 146.149C558.264 146.149 553.798 147.992 550.186 151.676C546.573 155.327 544.767 159.865 544.768 165.289C544.769 170.714 546.575 175.251 550.186 178.899C553.799 182.584 558.265 184.426 563.584 184.426C568.867 184.426 573.333 182.584 576.981 178.899C580.591 175.25 582.397 170.713 582.399 165.288C582.399 159.898 580.593 155.377 576.981 151.727H576.982ZM553.56 154.797C554.851 153.448 556.409 152.382 558.135 151.668C559.861 150.955 561.716 150.609 563.584 150.652C567.57 150.652 570.893 152.034 573.553 154.797C576.248 157.527 577.595 161.024 577.593 165.287C577.592 169.551 576.245 173.048 573.553 175.778C570.896 178.541 567.573 179.923 563.584 179.923C561.716 179.966 559.861 179.62 558.135 178.907C556.409 178.193 554.851 177.127 553.56 175.778C550.904 173.014 549.575 169.517 549.574 165.287C549.572 161.057 550.901 157.561 553.56 154.797L553.56 154.797ZM639.824 164.008H622.079V168.409H635.375C634.999 171.992 633.601 174.807 631.181 176.853C628.762 178.899 625.728 179.922 622.079 179.923C620.198 179.961 618.329 179.612 616.587 178.899C614.846 178.187 613.269 177.124 611.954 175.778C609.227 172.981 607.864 169.485 607.866 165.288C607.867 161.091 609.23 157.594 611.954 154.797C613.268 153.451 614.845 152.389 616.587 151.676C618.328 150.963 620.198 150.614 622.079 150.652C624.055 150.638 626.012 151.03 627.831 151.803C629.525 152.501 631.026 153.599 632.205 155.002L635.579 151.624C633.966 149.831 631.95 148.446 629.698 147.583C627.274 146.621 624.687 146.135 622.079 146.151C616.763 146.151 612.263 147.993 608.579 151.677C604.899 155.362 603.059 159.9 603.059 165.291C603.059 170.682 604.899 175.218 608.579 178.899C612.263 182.584 616.763 184.426 622.079 184.426C627.634 184.426 632.117 182.618 635.528 179.002C638.562 175.966 640.079 171.889 640.079 166.772C640.075 165.845 639.989 164.92 639.824 164.008H639.824ZM667.895 146.968H663.191V183.607H667.895V146.968V146.968ZM692.643 146.968V183.607H714.017V179.104H697.347V167.488H712.381V163.089H697.347V151.471H714.017V146.968H692.643V146.968ZM757.965 167.064C756.38 165.235 753.729 163.687 750.012 162.422C746.364 161.166 743.995 160.08 742.907 159.161C742.44 158.757 742.065 158.256 741.809 157.693C741.553 157.13 741.422 156.518 741.424 155.9C741.411 155.173 741.576 154.453 741.906 153.805C742.236 153.156 742.72 152.599 743.315 152.181C744.625 151.218 746.2 150.685 747.825 150.654C749.45 150.623 751.045 151.096 752.39 152.008C753.552 152.844 754.406 154.04 754.818 155.411L759.216 153.568C758.492 151.398 757.05 149.539 755.128 148.298C752.992 146.839 750.452 146.087 747.866 146.149C744.696 146.149 742.02 147.104 739.839 149.013C737.689 150.924 736.614 153.227 736.614 155.921C736.614 159.777 738.557 162.694 742.444 164.672C743.162 165.047 744.986 165.764 747.917 166.821C750.812 167.811 752.79 168.834 753.849 169.891C754.389 170.395 754.818 171.005 755.108 171.683C755.399 172.362 755.544 173.093 755.536 173.831C755.565 174.678 755.394 175.52 755.039 176.288C754.683 177.057 754.152 177.732 753.488 178.258C752.128 179.367 750.373 179.921 748.223 179.921C747.259 179.926 746.304 179.743 745.41 179.384C744.524 179.026 743.704 178.525 742.982 177.9C742.228 177.245 741.58 176.477 741.063 175.622C740.502 174.697 740.072 173.698 739.784 172.654L735.288 174.498C736.048 177.382 737.737 179.935 740.094 181.763C742.392 183.532 745.222 184.47 748.121 184.425C751.53 184.425 754.428 183.467 756.815 181.552C759.165 179.603 760.341 177.022 760.342 173.807C760.413 171.342 759.566 168.939 757.964 167.064H757.965Z" fill="#00A835"/>
<path d="M65.1793 0H90.6804V30.7504C100.198 32.2964 109.32 35.6527 117.556 40.6262C130.518 48.3427 140.95 59.7475 147.477 73.4443C154.852 88.9197 156.814 106.424 153.049 123.148C150.747 133.219 146.835 142.263 141.311 150.278C135.634 158.441 128.444 165.439 120.13 170.893C111.582 176.572 101.971 180.459 91.8787 182.319C83.9372 183.783 75.827 183.969 67.8532 182.881C63.8479 182.37 59.8798 181.545 55.986 180.411C49.1362 178.385 42.6147 175.379 36.4214 171.394C35.7117 170.941 35.0089 170.477 34.3133 170.002C33.5872 169.501 32.8705 168.987 32.1633 168.461C31.3823 167.887 30.6068 167.297 29.8369 166.69C21.7665 160.343 15.0875 152.403 10.2148 143.366C4.48463 132.894 1.29027 121.224 0.888274 109.293C0.486273 97.3626 2.88783 85.504 7.90006 74.6699C8.20919 73.9683 8.58059 73.2979 9.00882 72.6664C10.999 68.6518 13.3438 64.8099 16.0212 61.1881C16.0767 61.1134 16.1697 61.0392 16.2626 60.965C16.4468 60.818 16.6308 60.6711 16.5218 60.5212C16.5187 60.5167 18.4197 61.7397 21.0966 63.4619C27.4484 67.5482 38.1687 74.4449 38.1875 74.424C38.1891 74.4221 38.1688 74.4534 38.1288 74.5152L38.1266 74.5186L38.1263 74.5189C37.4064 75.629 30.5471 86.2065 28.7325 92.4618C26.5085 100.077 26.1116 108.11 27.5739 115.908C28.7825 122.637 31.3596 129.047 35.1458 134.739C42.4372 145.973 53.8769 153.865 66.9672 156.694C68.9192 157.131 70.8911 157.452 72.8726 157.656C76.1758 157.968 79.5247 157.956 82.8732 157.608C89.6762 156.955 96.277 154.934 102.279 151.665C108.281 148.397 113.561 143.95 117.801 138.59C126.201 128.142 130.139 114.802 128.759 101.467C128.047 94.1196 125.753 87.0131 122.033 80.6365C118.314 74.2599 113.258 68.7643 107.213 64.5276C102.189 61.0179 96.5869 58.4501 90.6804 56.932V102.789H65.1793V0Z" fill="#06C559"/>
</g>
<defs>
<clipPath id="clip0">
<rect width="760.324" height="184" fill="white" transform="translate(0.837891)"/>
</clipPath>
</defs>
</svg>
