<svg width="411" height="478" viewBox="0 0 411 478" fill="none" xmlns="http://www.w3.org/2000/svg">
<g clip-path="url(#clip0)">
<path d="M280.28 191.539C279.258 191.539 278.276 191.135 277.548 190.415C276.66 189.534 275.749 188.66 274.83 187.825C274.454 187.478 274.149 187.061 273.933 186.596C273.718 186.131 273.595 185.628 273.574 185.116C273.552 184.603 273.631 184.092 273.807 183.61C273.982 183.129 274.251 182.687 274.597 182.309C274.943 181.932 275.36 181.626 275.824 181.41C276.288 181.194 276.79 181.072 277.301 181.05C277.812 181.028 278.322 181.107 278.803 181.283C279.283 181.459 279.725 181.728 280.101 182.075C281.082 182.98 282.063 183.916 283.021 184.868C283.568 185.413 283.942 186.107 284.095 186.865C284.248 187.623 284.173 188.408 283.879 189.123C283.586 189.838 283.087 190.449 282.446 190.879C281.805 191.309 281.052 191.539 280.28 191.539Z" fill="#ED2142"/>
<path d="M265.239 179.181C264.461 179.18 263.702 178.946 263.059 178.51C262.023 177.807 260.964 177.121 259.944 176.458C259.069 175.909 258.447 175.035 258.215 174.027C257.982 173.019 258.159 171.96 258.707 171.082C259.254 170.205 260.126 169.581 261.132 169.349C262.138 169.116 263.195 169.293 264.071 169.842C265.2 170.552 266.336 171.293 267.458 172.05C268.148 172.518 268.67 173.196 268.946 173.984C269.223 174.772 269.241 175.628 268.996 176.426C268.751 177.224 268.257 177.923 267.586 178.419C266.915 178.915 266.103 179.182 265.27 179.181H265.239Z" fill="#ED2142"/>
<path d="M248.204 169.803C247.668 169.804 247.138 169.696 246.647 169.483C245.51 168.991 244.311 168.508 243.182 168.055C242.217 167.677 241.441 166.931 241.025 165.98C240.608 165.029 240.586 163.951 240.963 162.984C241.34 162.016 242.085 161.239 243.034 160.822C243.983 160.405 245.059 160.383 246.024 160.76C247.277 161.252 248.539 161.767 249.761 162.321C250.584 162.677 251.259 163.307 251.672 164.105C252.085 164.902 252.211 165.818 252.028 166.698C251.845 167.578 251.364 168.367 250.668 168.933C249.971 169.498 249.101 169.806 248.204 169.803Z" fill="#ED2142"/>
<path d="M229.729 163.756C229.438 163.756 229.148 163.724 228.864 163.662C227.658 163.389 226.42 163.132 225.19 162.882C224.681 162.795 224.195 162.608 223.759 162.33C223.323 162.053 222.947 161.692 222.652 161.268C222.357 160.844 222.148 160.365 222.04 159.859C221.931 159.354 221.924 158.831 222.018 158.323C222.112 157.815 222.307 157.33 222.59 156.898C222.873 156.465 223.239 156.093 223.667 155.804C224.094 155.515 224.575 155.313 225.081 155.212C225.587 155.11 226.109 155.111 226.614 155.213C227.946 155.455 229.277 155.736 230.577 156.032C231.505 156.248 232.322 156.798 232.873 157.577C233.423 158.356 233.67 159.311 233.565 160.26C233.461 161.209 233.012 162.087 232.305 162.727C231.598 163.367 230.681 163.725 229.729 163.733V163.756Z" fill="#ED2142"/>
<path d="M210.436 161.252H210.296C209.05 161.205 207.789 161.181 206.543 161.181C205.511 161.181 204.521 160.77 203.791 160.039C203.061 159.307 202.65 158.315 202.65 157.28C202.65 156.246 203.061 155.254 203.791 154.522C204.521 153.79 205.511 153.379 206.543 153.379C207.882 153.379 209.237 153.379 210.576 153.457C211.609 153.476 212.591 153.905 213.308 154.65C214.025 155.394 214.417 156.394 214.399 157.429C214.38 158.463 213.952 159.448 213.209 160.167C212.466 160.885 211.468 161.278 210.436 161.259V161.252Z" fill="#ED2142"/>
<path d="M137.088 187.552C136.297 187.554 135.523 187.314 134.871 186.865C134.219 186.415 133.719 185.777 133.439 185.035C133.158 184.293 133.109 183.484 133.3 182.714C133.49 181.944 133.91 181.25 134.503 180.725C135.508 179.836 136.543 178.954 137.618 178.104C138.416 177.447 139.442 177.135 140.469 177.236C141.497 177.337 142.443 177.843 143.099 178.642C143.754 179.442 144.066 180.47 143.965 181.5C143.864 182.53 143.36 183.478 142.561 184.135C141.596 184.915 140.638 185.742 139.704 186.569C138.984 187.21 138.052 187.56 137.088 187.552Z" fill="#ED2142"/>
<path d="M152.768 176.044C151.917 176.045 151.088 175.765 150.41 175.248C149.732 174.731 149.242 174.006 149.015 173.183C148.788 172.361 148.836 171.486 149.153 170.694C149.47 169.901 150.037 169.235 150.767 168.796C151.904 168.11 153.103 167.431 154.263 166.783C155.166 166.306 156.22 166.203 157.197 166.496C158.175 166.79 158.999 167.456 159.491 168.353C159.983 169.249 160.104 170.303 159.828 171.288C159.552 172.272 158.902 173.109 158.016 173.618C156.918 174.219 155.828 174.851 154.761 175.49C154.159 175.852 153.47 176.043 152.768 176.044Z" fill="#ED2142"/>
<path d="M170.286 167.634C169.373 167.633 168.488 167.311 167.788 166.723C167.088 166.135 166.617 165.319 166.456 164.418C166.296 163.517 166.456 162.588 166.91 161.794C167.364 161 168.082 160.391 168.939 160.074C170.2 159.613 171.477 159.161 172.754 158.747C173.736 158.426 174.805 158.51 175.725 158.979C176.646 159.448 177.343 160.264 177.663 161.248C177.983 162.232 177.9 163.303 177.432 164.225C176.964 165.148 176.149 165.846 175.167 166.167C173.992 166.549 172.832 166.947 171.633 167.392C171.202 167.552 170.746 167.633 170.286 167.634Z" fill="#ED2142"/>
<path d="M189.057 162.64C188.073 162.652 187.12 162.29 186.392 161.626C185.663 160.963 185.213 160.047 185.131 159.064C185.049 158.081 185.342 157.104 185.95 156.328C186.559 155.553 187.438 155.037 188.411 154.885C189.734 154.667 191.081 154.464 192.405 154.292C193.429 154.159 194.464 154.439 195.282 155.07C196.101 155.701 196.635 156.633 196.768 157.659C196.902 158.685 196.623 159.722 195.993 160.543C195.362 161.363 194.433 161.898 193.409 162.032C192.179 162.188 190.933 162.375 189.703 162.586C189.489 162.619 189.273 162.637 189.057 162.64Z" fill="#ED2142"/>
<path d="M206.543 371.281C146.594 371.281 97.8256 322.41 97.8256 262.334C97.7408 238.095 105.804 214.533 120.715 195.448C121.35 194.632 122.283 194.101 123.308 193.974C124.333 193.847 125.366 194.133 126.181 194.769C126.995 195.405 127.524 196.34 127.651 197.367C127.778 198.394 127.493 199.43 126.858 200.246C113.015 217.961 105.53 239.834 105.611 262.334C105.611 318.103 150.892 363.479 206.543 363.479C262.195 363.479 307.483 318.103 307.483 262.334C307.553 240.224 300.326 218.711 286.929 201.143C286.623 200.733 286.399 200.267 286.272 199.771C286.146 199.275 286.117 198.758 286.19 198.251C286.262 197.744 286.433 197.256 286.694 196.815C286.954 196.374 287.299 195.989 287.708 195.682C288.117 195.374 288.582 195.151 289.077 195.024C289.573 194.897 290.088 194.868 290.594 194.941C291.1 195.013 291.587 195.185 292.027 195.446C292.467 195.707 292.851 196.052 293.158 196.462C307.587 215.386 315.372 238.558 315.3 262.373C315.269 322.41 266.492 371.281 206.543 371.281Z" fill="#ED2142"/>
<path d="M164.789 334.94L160.896 342.406L159.215 341.525L163.108 334.066L164.789 334.94Z" fill="#34454F"/>
<path d="M164.322 344.107L167.584 336.352L169.624 337.21L170.037 340.737C170.156 341.796 170.206 342.862 170.185 343.928C170.531 342.806 170.939 341.704 171.407 340.627L172.357 338.365L173.961 339.044L170.699 346.806L168.869 346.026L168.464 342.336C168.34 341.238 168.275 340.133 168.269 339.028C167.888 340.081 167.452 341.189 166.923 342.453L165.942 344.794L164.322 344.107Z" fill="#34454F"/>
<path d="M177.962 342.079L175.79 341.415L176.265 339.855L182.439 341.766L181.972 343.288L179.776 342.609L177.768 349.124L175.954 348.562L177.962 342.079Z" fill="#34454F"/>
<path d="M188.714 348.172L185.686 347.524L185.273 349.483L188.652 350.2L188.333 351.761L183.093 350.645L184.837 342.414L189.898 343.491L189.579 345.012L186.371 344.333L186.005 346.05L189.034 346.689L188.714 348.172Z" fill="#34454F"/>
<path d="M198.82 352.689C197.886 352.885 196.928 352.938 195.978 352.845C195.362 352.822 194.757 352.678 194.197 352.419C193.637 352.161 193.134 351.794 192.716 351.339C192.367 350.896 192.112 350.385 191.967 349.839C191.823 349.293 191.791 348.723 191.875 348.164C192.194 345.387 194.398 344.029 197.131 344.341C197.925 344.402 198.698 344.625 199.404 344.996L198.836 346.471C198.25 346.146 197.603 345.949 196.936 345.894C196.213 345.79 195.479 345.979 194.895 346.418C194.311 346.857 193.925 347.51 193.822 348.234C193.718 348.959 193.906 349.694 194.345 350.279C194.783 350.865 195.435 351.252 196.157 351.355C196.469 351.41 196.788 351.41 197.099 351.355L197.294 349.6L196.002 349.451L196.165 347.977L199.279 348.328L198.82 352.689Z" fill="#34454F"/>
<path d="M202.635 344.989C203.471 344.875 204.314 344.828 205.157 344.848C206.112 344.777 207.062 345.027 207.859 345.558C208.121 345.771 208.328 346.044 208.463 346.353C208.599 346.662 208.658 347 208.638 347.337C208.622 347.791 208.47 348.23 208.2 348.595C207.93 348.96 207.556 349.234 207.127 349.381V349.42C207.419 349.575 207.67 349.797 207.86 350.069C208.049 350.34 208.172 350.653 208.217 350.981C208.392 351.784 208.608 352.579 208.863 353.36H206.917C206.67 352.725 206.487 352.066 206.372 351.394C206.154 350.341 205.804 350.052 205.025 350.029H204.465L204.41 353.329H202.526L202.635 344.989ZM204.457 348.64H205.196C206.138 348.64 206.707 348.187 206.753 347.454C206.8 346.721 206.247 346.284 205.375 346.26C205.089 346.247 204.802 346.265 204.519 346.315L204.457 348.64Z" fill="#34454F"/>
<path d="M214.017 350.91L213.62 353.111L211.666 353.282L213.48 344.7L215.948 344.482L219.288 352.627L217.256 352.806L216.439 350.692L214.017 350.91ZM216.018 349.311L215.341 347.571C215.154 347.095 214.952 346.479 214.78 346.011C214.695 346.51 214.625 347.158 214.539 347.657L214.189 349.483L216.018 349.311Z" fill="#34454F"/>
<path d="M221.951 345.262L219.716 345.66L219.436 344.099L225.805 342.976L226.085 344.536L223.819 344.942L224.995 351.652L223.127 351.987L221.951 345.262Z" fill="#34454F"/>
<path d="M230.095 341.883L232.15 350.044L230.313 350.512L228.257 342.352L230.095 341.883Z" fill="#34454F"/>
<path d="M241.718 342.5C242.614 345.113 241.578 347.228 239.258 348.031C236.938 348.835 234.906 347.532 234.128 345.262C233.349 342.991 234.229 340.581 236.564 339.8C238.9 339.02 240.963 340.3 241.718 342.5ZM236.012 344.575C236.549 346.136 237.662 346.986 238.861 346.572C240.06 346.159 240.372 344.762 239.842 343.218C239.313 341.673 238.285 340.791 237.016 341.212C235.747 341.634 235.482 343.03 236.012 344.575Z" fill="#34454F"/>
<path d="M246.405 345.184L242.816 337.577L244.817 336.625L247.706 338.669C248.576 339.288 249.403 339.966 250.181 340.698C249.58 339.688 249.034 338.646 248.546 337.577L247.503 335.361L249.06 334.581L252.649 342.188L250.851 343.046L247.838 340.885C246.94 340.245 246.077 339.558 245.253 338.825C245.775 339.808 246.304 340.877 246.896 342.118L247.97 344.403L246.405 345.184Z" fill="#34454F"/>
<path d="M208.723 271.907C207.867 271.757 207 271.682 206.131 271.681C202.934 271.679 199.824 272.717 197.267 274.639C194.71 276.561 192.845 279.263 191.953 282.339C191.327 282.22 190.691 282.16 190.053 282.159C187.452 282.172 184.957 283.197 183.095 285.018C181.233 286.839 180.149 289.313 180.072 291.919C180.041 293.253 180.276 294.578 180.764 295.819C181.252 297.06 181.982 298.19 182.912 299.144C183.842 300.098 184.953 300.855 186.179 301.373C187.406 301.89 188.723 302.156 190.053 302.156H194.452C194.71 302.133 194.951 302.015 195.126 301.823C195.301 301.632 195.398 301.382 195.398 301.122C195.398 300.862 195.301 300.612 195.126 300.421C194.951 300.229 194.71 300.111 194.452 300.088H190.046C188.991 300.086 187.947 299.874 186.975 299.462C186.004 299.051 185.124 298.45 184.387 297.693C183.65 296.937 183.072 296.041 182.685 295.057C182.299 294.074 182.112 293.023 182.136 291.966C182.196 289.9 183.055 287.939 184.53 286.495C186.006 285.051 187.983 284.238 190.046 284.227C190.739 284.232 191.43 284.323 192.101 284.5L192.335 284.57C193.39 284.884 194.369 285.415 195.207 286.13C195.909 286.744 196.499 287.475 196.951 288.292C197.086 288.529 197.308 288.705 197.57 288.781C197.832 288.856 198.113 288.827 198.353 288.697C198.472 288.631 198.577 288.542 198.662 288.436C198.747 288.329 198.81 288.207 198.848 288.075C198.885 287.944 198.897 287.807 198.881 287.671C198.866 287.536 198.824 287.404 198.758 287.285C198.191 286.258 197.447 285.339 196.562 284.57C195.772 283.877 194.875 283.316 193.907 282.908C194.682 280.264 196.288 277.941 198.486 276.285C200.684 274.629 203.357 273.728 206.107 273.717C206.856 273.716 207.604 273.781 208.342 273.912C208.612 273.96 208.891 273.898 209.115 273.74C209.34 273.582 209.493 273.341 209.541 273.07C209.588 272.799 209.526 272.52 209.369 272.295C209.211 272.069 208.97 271.916 208.7 271.868L208.723 271.907Z" fill="#ED2142"/>
<path d="M206.543 292.427C206.338 292.427 206.138 292.487 205.968 292.601C205.798 292.715 205.665 292.878 205.587 293.067C205.508 293.257 205.488 293.465 205.528 293.667C205.568 293.868 205.666 294.053 205.811 294.198C205.956 294.343 206.14 294.442 206.341 294.482C206.542 294.522 206.75 294.501 206.94 294.423C207.129 294.344 207.29 294.211 207.404 294.041C207.518 293.87 207.579 293.669 207.579 293.464C207.58 293.328 207.554 293.192 207.502 293.066C207.45 292.94 207.374 292.825 207.278 292.728C207.181 292.632 207.067 292.555 206.941 292.503C206.815 292.452 206.68 292.426 206.543 292.427Z" fill="#ED2142"/>
<path d="M198.166 297.178C197.892 297.18 197.63 297.29 197.436 297.484C197.242 297.678 197.133 297.941 197.131 298.216V308.428C197.13 308.84 197 309.241 196.758 309.573C196.516 309.905 196.175 310.152 195.784 310.278C195.784 309.433 195.449 308.624 194.853 308.027C194.258 307.43 193.45 307.094 192.607 307.094H183.264C182.422 307.094 181.614 307.43 181.018 308.027C180.423 308.624 180.088 309.433 180.088 310.278V317.432C180.088 318.277 180.422 319.087 181.018 319.686C181.613 320.284 182.421 320.621 183.264 320.623H192.607C193.45 320.621 194.258 320.284 194.854 319.686C195.449 319.087 195.784 318.277 195.784 317.432V312.408C196.733 312.267 197.6 311.79 198.228 311.062C198.855 310.335 199.201 309.406 199.201 308.444V298.216C199.199 297.941 199.09 297.678 198.896 297.484C198.702 297.29 198.44 297.18 198.166 297.178ZM193.72 317.416C193.72 317.712 193.603 317.996 193.394 318.205C193.186 318.415 192.902 318.532 192.607 318.532H183.264C182.97 318.53 182.688 318.412 182.479 318.203C182.271 317.994 182.153 317.712 182.151 317.416V310.262C182.153 309.967 182.271 309.684 182.479 309.475C182.688 309.267 182.97 309.148 183.264 309.146H192.607C192.902 309.146 193.186 309.264 193.394 309.473C193.603 309.682 193.72 309.966 193.72 310.262V317.416Z" fill="#ED2142"/>
<path d="M211.222 311.229H207.579V297.513C207.579 297.238 207.47 296.974 207.275 296.78C207.081 296.585 206.818 296.476 206.543 296.476C206.269 296.476 206.005 296.585 205.811 296.78C205.617 296.974 205.508 297.238 205.508 297.513V311.229H201.864C201.021 311.229 200.212 311.565 199.615 312.161C199.018 312.758 198.682 313.568 198.68 314.413V321.567C198.68 322.413 199.015 323.225 199.613 323.823C200.21 324.422 201.02 324.758 201.864 324.758H211.207C212.051 324.758 212.861 324.422 213.458 323.823C214.056 323.225 214.391 322.413 214.391 321.567V314.413C214.389 313.57 214.055 312.763 213.461 312.167C212.868 311.57 212.063 311.234 211.222 311.229ZM201.88 322.683C201.584 322.683 201.301 322.565 201.092 322.356C200.884 322.147 200.766 321.863 200.766 321.567V320.834L203.499 318.095L208.069 322.683H201.88ZM212.351 321.567C212.351 321.863 212.234 322.147 212.025 322.356C211.816 322.565 211.533 322.683 211.238 322.683H210.942C210.895 322.601 210.837 322.525 210.771 322.456L207.89 319.57L210.226 317.229L212.351 319.359V321.559V321.567ZM212.351 316.433L210.958 315.037C210.764 314.842 210.5 314.733 210.226 314.733C209.951 314.733 209.688 314.842 209.494 315.037L206.434 318.111L204.231 315.895C204.035 315.704 203.772 315.598 203.499 315.598C203.226 315.598 202.963 315.704 202.767 315.895L200.766 317.9V314.413C200.768 314.118 200.887 313.836 201.095 313.629C201.304 313.421 201.586 313.305 201.88 313.305H211.222C211.516 313.305 211.798 313.421 212.007 313.629C212.215 313.836 212.334 314.118 212.336 314.413L212.351 316.433Z" fill="#ED2142"/>
<path d="M229.845 307.079H220.503C219.66 307.079 218.851 307.414 218.254 308.011C217.657 308.607 217.321 309.417 217.318 310.262C216.921 310.14 216.573 309.895 216.325 309.56C216.077 309.226 215.942 308.821 215.94 308.405V298.216C215.94 297.94 215.831 297.677 215.637 297.482C215.443 297.287 215.18 297.178 214.905 297.178C214.63 297.178 214.367 297.287 214.173 297.482C213.979 297.677 213.869 297.94 213.869 298.216V308.428C213.87 309.396 214.219 310.331 214.853 311.061C215.486 311.791 216.362 312.266 217.318 312.4V317.416C217.321 318.262 217.657 319.073 218.253 319.671C218.85 320.268 219.659 320.605 220.503 320.607H229.845C230.69 320.607 231.5 320.271 232.097 319.673C232.694 319.074 233.03 318.263 233.03 317.416V310.262C233.028 309.417 232.691 308.607 232.094 308.011C231.497 307.414 230.689 307.079 229.845 307.079ZM230.959 317.416C230.959 317.712 230.841 317.996 230.633 318.205C230.424 318.415 230.141 318.532 229.845 318.532H220.503C220.207 318.532 219.924 318.415 219.716 318.205C219.507 317.996 219.389 317.712 219.389 317.416V310.262C219.389 309.966 219.507 309.682 219.716 309.473C219.924 309.264 220.207 309.146 220.503 309.146H229.845C230.141 309.146 230.424 309.264 230.633 309.473C230.841 309.682 230.959 309.966 230.959 310.262V317.416Z" fill="#ED2142"/>
<path d="M219.327 277.743C218.186 277.743 217.071 278.082 216.122 278.718C215.173 279.353 214.434 280.256 213.997 281.312C213.561 282.369 213.446 283.531 213.669 284.652C213.892 285.774 214.441 286.804 215.248 287.613C216.055 288.421 217.083 288.972 218.202 289.195C219.321 289.418 220.481 289.303 221.535 288.866C222.589 288.428 223.49 287.687 224.124 286.736C224.758 285.786 225.096 284.668 225.096 283.525C225.094 281.992 224.486 280.523 223.404 279.439C222.323 278.355 220.857 277.745 219.327 277.743ZM219.327 287.23C218.596 287.23 217.881 287.013 217.273 286.606C216.664 286.199 216.19 285.62 215.91 284.943C215.631 284.266 215.557 283.52 215.7 282.802C215.843 282.083 216.195 281.422 216.712 280.904C217.229 280.386 217.888 280.033 218.606 279.89C219.323 279.747 220.067 279.82 220.742 280.101C221.418 280.381 221.996 280.856 222.402 281.466C222.808 282.075 223.025 282.792 223.025 283.525C223.025 284.507 222.636 285.45 221.942 286.145C221.249 286.84 220.308 287.23 219.327 287.23Z" fill="#ED2142"/>
<path d="M228.483 287.823L229.005 286.552L230.359 286.216C230.582 286.159 230.78 286.029 230.921 285.847C231.062 285.664 231.138 285.44 231.138 285.21V281.839C231.138 281.609 231.062 281.385 230.921 281.202C230.78 281.02 230.582 280.89 230.359 280.833L229.005 280.49L228.312 278.812L229.028 277.611C229.148 277.412 229.198 277.178 229.169 276.948C229.141 276.717 229.036 276.503 228.872 276.339L226.498 273.959C226.334 273.795 226.12 273.69 225.89 273.662C225.66 273.633 225.427 273.683 225.229 273.803L224.03 274.521L222.348 273.827L222.013 272.469C221.956 272.246 221.826 272.048 221.644 271.906C221.463 271.765 221.239 271.689 221.009 271.689H217.645C217.415 271.689 217.192 271.765 217.01 271.906C216.828 272.048 216.698 272.246 216.641 272.469L216.306 273.827L214.625 274.521L213.426 273.803C213.228 273.684 212.997 273.634 212.768 273.662C212.539 273.691 212.327 273.795 212.164 273.959L209.782 276.339C209.62 276.504 209.517 276.718 209.489 276.948C209.461 277.178 209.509 277.411 209.626 277.611L210.35 278.812L209.65 280.497L208.295 280.833C208.073 280.891 207.876 281.022 207.735 281.204C207.594 281.386 207.518 281.609 207.516 281.839V285.21C207.518 285.44 207.594 285.663 207.735 285.845C207.876 286.027 208.073 286.158 208.295 286.216L209.65 286.552L210.35 288.237L209.626 289.438C209.508 289.636 209.46 289.868 209.488 290.097C209.516 290.326 209.62 290.539 209.782 290.702L212.164 293.09C212.327 293.253 212.54 293.356 212.768 293.385C212.997 293.413 213.228 293.364 213.426 293.246L214.625 292.52L216.306 293.222L216.641 294.58C216.698 294.803 216.828 295.001 217.01 295.143C217.192 295.284 217.415 295.36 217.645 295.36H221.009C221.239 295.36 221.463 295.284 221.644 295.143C221.826 295.001 221.956 294.803 222.013 294.58L222.356 293.222L224.03 292.52L225.229 293.246C225.427 293.365 225.66 293.414 225.89 293.385C226.119 293.357 226.333 293.253 226.498 293.09L228.872 290.702C228.923 290.656 228.967 290.604 229.005 290.546C229.867 291.256 230.487 292.217 230.779 293.297C231.071 294.376 231.02 295.519 230.634 296.568C230.248 297.617 229.546 298.52 228.625 299.151C227.703 299.782 226.609 300.109 225.493 300.088H219.171C219.028 300.076 218.884 300.093 218.748 300.139C218.613 300.186 218.488 300.26 218.382 300.357C218.276 300.454 218.192 300.572 218.134 300.704C218.076 300.836 218.046 300.978 218.046 301.122C218.046 301.266 218.076 301.408 218.134 301.54C218.192 301.671 218.276 301.79 218.382 301.887C218.488 301.984 218.613 302.058 218.748 302.104C218.884 302.151 219.028 302.168 219.171 302.156H225.493C227.431 302.162 229.297 301.418 230.702 300.08C232.125 298.754 232.965 296.916 233.037 294.97C233.087 293.457 232.678 291.965 231.865 290.69C231.052 289.414 229.873 288.415 228.483 287.823ZM227.292 285.28L226.194 287.933C226.134 288.084 226.109 288.247 226.121 288.409C226.133 288.571 226.182 288.728 226.264 288.869L226.84 289.821L225.602 291.053L224.652 290.476C224.513 290.392 224.356 290.342 224.194 290.33C224.031 290.318 223.869 290.344 223.718 290.406L221.11 291.506C220.96 291.568 220.827 291.665 220.721 291.788C220.616 291.911 220.541 292.058 220.503 292.216L220.23 293.293H218.486L218.214 292.216C218.176 292.058 218.101 291.911 217.995 291.788C217.89 291.665 217.756 291.568 217.607 291.506L214.967 290.406C214.817 290.344 214.654 290.318 214.492 290.33C214.33 290.342 214.172 290.392 214.033 290.476L213.083 291.053L211.845 289.813L212.421 288.861C212.505 288.721 212.555 288.564 212.567 288.401C212.579 288.239 212.553 288.076 212.491 287.925L211.394 285.28C211.332 285.13 211.235 284.996 211.112 284.89C210.989 284.785 210.843 284.71 210.685 284.671L209.611 284.398V282.651L210.685 282.378C210.843 282.339 210.989 282.264 211.112 282.159C211.235 282.053 211.332 281.919 211.394 281.769L212.491 279.124C212.553 278.973 212.579 278.81 212.567 278.648C212.555 278.485 212.505 278.328 212.421 278.188L211.845 277.236L213.083 275.996L214.033 276.573C214.173 276.655 214.33 276.704 214.492 276.716C214.654 276.729 214.816 276.703 214.967 276.643L217.607 275.543C217.756 275.481 217.89 275.385 217.995 275.261C218.101 275.138 218.176 274.991 218.214 274.833L218.486 273.756H220.23L220.503 274.833C220.541 274.991 220.616 275.138 220.721 275.261C220.827 275.385 220.96 275.481 221.11 275.543L223.749 276.643C223.9 276.703 224.063 276.729 224.225 276.716C224.386 276.704 224.543 276.655 224.684 276.573L225.633 275.996L226.871 277.236L226.295 278.188C226.213 278.328 226.164 278.486 226.152 278.648C226.14 278.81 226.165 278.973 226.225 279.124L227.323 281.769C227.385 281.919 227.481 282.053 227.604 282.159C227.727 282.264 227.874 282.339 228.031 282.378L229.106 282.651V284.398L228.031 284.671C227.868 284.705 227.715 284.778 227.587 284.884C227.458 284.99 227.357 285.126 227.292 285.28Z" fill="#ED2142"/>
<path d="M227.759 312.571L225.143 310.886C224.883 310.721 224.583 310.628 224.275 310.619C223.966 310.609 223.661 310.682 223.391 310.831C223.12 310.977 222.893 311.195 222.735 311.46C222.577 311.725 222.495 312.028 222.496 312.337V315.708C222.498 316.164 222.68 316.6 223.003 316.922C223.325 317.244 223.762 317.424 224.216 317.424C224.545 317.425 224.867 317.331 225.143 317.151L227.759 315.474C228.002 315.318 228.201 315.103 228.34 314.849C228.478 314.596 228.55 314.311 228.55 314.023C228.55 313.734 228.478 313.449 228.34 313.196C228.201 312.942 228.002 312.727 227.759 312.571ZM224.567 315.06V312.985L226.186 314.023L224.567 315.06Z" fill="#ED2142"/>
<path d="M191.727 316.402L189.228 310.473C189.15 310.284 189.019 310.123 188.85 310.01C188.681 309.896 188.482 309.836 188.278 309.836C188.075 309.836 187.876 309.896 187.707 310.01C187.538 310.123 187.406 310.284 187.328 310.473L184.829 316.402C184.757 316.649 184.779 316.913 184.89 317.145C185.001 317.376 185.194 317.558 185.432 317.655C185.669 317.752 185.934 317.758 186.175 317.67C186.416 317.583 186.616 317.409 186.737 317.182L187.001 316.55H189.555L189.82 317.182C189.9 317.37 190.033 317.531 190.203 317.643C190.374 317.756 190.573 317.815 190.777 317.814C190.914 317.816 191.049 317.789 191.175 317.736C191.422 317.629 191.617 317.43 191.721 317.181C191.824 316.932 191.826 316.653 191.727 316.402ZM187.873 314.498L188.278 313.539L188.683 314.498H187.873Z" fill="#ED2142"/>
<path d="M193.3 294.705H189.89C189.615 294.705 189.352 294.814 189.158 295.009C188.964 295.203 188.854 295.467 188.854 295.742C188.854 296.018 188.964 296.282 189.158 296.476C189.352 296.671 189.615 296.78 189.89 296.78H193.3C193.575 296.78 193.838 296.671 194.032 296.476C194.226 296.282 194.335 296.018 194.335 295.742C194.335 295.467 194.226 295.203 194.032 295.009C193.838 294.814 193.575 294.705 193.3 294.705Z" fill="#ED2142"/>
<path d="M193.3 289.836H189.89C189.615 289.836 189.352 289.946 189.158 290.14C188.964 290.335 188.854 290.599 188.854 290.874C188.854 291.149 188.964 291.413 189.158 291.608C189.352 291.802 189.615 291.912 189.89 291.912H193.3C193.575 291.912 193.838 291.802 194.032 291.608C194.226 291.413 194.335 291.149 194.335 290.874C194.335 290.599 194.226 290.335 194.032 290.14C193.838 289.946 193.575 289.836 193.3 289.836Z" fill="#ED2142"/>
<path d="M186.519 290.141C186.325 289.946 186.061 289.837 185.787 289.837C185.513 289.837 185.249 289.946 185.055 290.141C184.959 290.237 184.882 290.351 184.83 290.477C184.778 290.603 184.751 290.738 184.751 290.874C184.752 291.149 184.861 291.413 185.055 291.607C185.249 291.802 185.513 291.911 185.787 291.911C186.061 291.911 186.325 291.802 186.519 291.607C186.713 291.413 186.822 291.149 186.822 290.874C186.823 290.738 186.796 290.603 186.744 290.477C186.692 290.351 186.615 290.237 186.519 290.141Z" fill="#ED2142"/>
<path d="M189.968 242.681C189.751 242.682 189.535 242.664 189.322 242.626C188.006 242.408 186.674 242.158 185.374 241.893C184.857 241.808 184.362 241.62 183.919 241.339C183.477 241.058 183.095 240.69 182.797 240.257C182.5 239.825 182.293 239.337 182.188 238.822C182.083 238.308 182.083 237.777 182.188 237.262C182.293 236.748 182.501 236.26 182.798 235.827C183.096 235.395 183.478 235.027 183.921 234.747C184.364 234.466 184.859 234.277 185.376 234.193C185.893 234.108 186.422 234.13 186.931 234.255C188.138 234.497 189.368 234.731 190.591 234.934C191.551 235.096 192.415 235.614 193.014 236.384C193.612 237.154 193.9 238.121 193.822 239.093C193.744 240.066 193.305 240.974 192.591 241.638C191.878 242.303 190.942 242.675 189.968 242.681Z" fill="#1F1011"/>
<path d="M171.329 237.75C170.873 237.751 170.419 237.672 169.99 237.516C168.744 237.064 167.491 236.572 166.253 236.065C165.317 235.661 164.576 234.906 164.19 233.961C163.804 233.016 163.803 231.957 164.187 231.011C164.571 230.065 165.31 229.308 166.245 228.902C167.18 228.496 168.237 228.474 169.188 228.84C170.34 229.316 171.524 229.769 172.66 230.19C173.516 230.507 174.233 231.115 174.687 231.907C175.141 232.7 175.303 233.627 175.145 234.527C174.986 235.427 174.517 236.243 173.82 236.832C173.123 237.421 172.241 237.746 171.329 237.75Z" fill="#1F1011"/>
<path d="M153.889 229.457C153.19 229.459 152.504 229.27 151.904 228.911C150.76 228.232 149.615 227.522 148.494 226.796C147.655 226.223 147.073 225.344 146.871 224.347C146.67 223.349 146.865 222.313 147.415 221.458C147.966 220.603 148.828 219.997 149.818 219.77C150.808 219.543 151.847 219.713 152.714 220.243C153.749 220.913 154.816 221.569 155.875 222.201C156.608 222.637 157.178 223.302 157.498 224.095C157.817 224.887 157.868 225.763 157.643 226.587C157.417 227.411 156.928 228.139 156.25 228.657C155.572 229.176 154.742 229.456 153.889 229.457Z" fill="#1F1011"/>
<path d="M138.272 218.097C137.326 218.098 136.413 217.754 135.702 217.13C134.706 216.256 133.709 215.351 132.736 214.43C132.021 213.712 131.612 212.743 131.598 211.729C131.584 210.714 131.964 209.734 132.659 208.996C133.354 208.258 134.308 207.82 135.32 207.776C136.331 207.732 137.32 208.084 138.077 208.758C138.98 209.608 139.907 210.451 140.833 211.262C141.428 211.785 141.85 212.477 142.043 213.246C142.235 214.015 142.19 214.825 141.911 215.568C141.633 216.31 141.136 216.95 140.485 217.402C139.835 217.854 139.063 218.096 138.272 218.097Z" fill="#1F1011"/>
<path d="M224.466 242.681C223.491 242.676 222.554 242.306 221.839 241.642C221.124 240.979 220.683 240.071 220.604 239.097C220.525 238.124 220.813 237.156 221.411 236.385C222.009 235.614 222.874 235.096 223.835 234.934C225.042 234.731 226.256 234.505 227.448 234.271C227.948 234.168 228.465 234.165 228.967 234.263C229.469 234.36 229.947 234.556 230.373 234.839C230.8 235.121 231.166 235.485 231.453 235.91C231.739 236.334 231.939 236.811 232.041 237.313C232.143 237.815 232.146 238.333 232.049 238.836C231.951 239.339 231.756 239.818 231.474 240.245C231.192 240.672 230.829 241.04 230.405 241.327C229.982 241.614 229.506 241.814 229.005 241.916C227.728 242.174 226.42 242.416 225.112 242.626C224.899 242.664 224.682 242.682 224.466 242.681Z" fill="#1F1011"/>
<path d="M242.91 237.906C241.995 237.905 241.109 237.581 240.409 236.991C239.708 236.401 239.238 235.582 239.08 234.679C238.922 233.775 239.087 232.845 239.545 232.051C240.003 231.258 240.726 230.651 241.586 230.338C242.723 229.925 243.922 229.488 245.012 229.028C245.97 228.641 247.042 228.651 247.993 229.056C248.943 229.462 249.694 230.229 250.08 231.189C250.466 232.149 250.456 233.223 250.052 234.176C249.647 235.128 248.882 235.881 247.924 236.268C246.701 236.759 245.456 237.235 244.225 237.68C243.803 237.831 243.358 237.907 242.91 237.906Z" fill="#1F1011"/>
<path d="M260.139 229.823C259.285 229.823 258.455 229.54 257.777 229.02C257.099 228.5 256.61 227.771 256.386 226.945C256.162 226.12 256.215 225.243 256.538 224.45C256.86 223.658 257.433 222.993 258.169 222.56C259.213 221.943 260.271 221.304 261.284 220.648C262.155 220.09 263.212 219.901 264.222 220.123C265.233 220.345 266.114 220.961 266.671 221.834C267.229 222.707 267.417 223.767 267.195 224.779C266.973 225.792 266.359 226.674 265.488 227.233C264.374 227.943 263.238 228.637 262.109 229.293C261.511 229.642 260.831 229.825 260.139 229.823Z" fill="#1F1011"/>
<path d="M275.609 218.745C274.814 218.744 274.039 218.5 273.386 218.046C272.734 217.591 272.236 216.947 271.96 216.2C271.684 215.453 271.642 214.64 271.841 213.869C272.039 213.098 272.469 212.406 273.071 211.887C273.997 211.106 274.916 210.272 275.811 209.437C276.57 208.734 277.577 208.363 278.609 208.404C279.641 208.445 280.615 208.895 281.316 209.655C282.017 210.416 282.388 211.424 282.347 212.458C282.306 213.493 281.857 214.469 281.098 215.171C280.132 216.061 279.144 216.95 278.147 217.808C277.44 218.414 276.54 218.746 275.609 218.745Z" fill="#1F1011"/>
<path d="M207.322 244.109C206.289 244.109 205.299 243.698 204.569 242.966C203.839 242.235 203.429 241.242 203.429 240.208C203.429 239.173 203.839 238.181 204.569 237.449C205.299 236.718 206.289 236.307 207.322 236.307H209.206H209.276C209.787 236.303 210.294 236.4 210.768 236.592C211.242 236.784 211.673 237.068 212.038 237.427C212.402 237.787 212.692 238.214 212.892 238.686C213.091 239.158 213.196 239.664 213.2 240.177C213.204 240.689 213.107 241.197 212.916 241.672C212.724 242.147 212.44 242.579 212.082 242.944C211.723 243.309 211.296 243.6 210.826 243.8C210.355 244 209.85 244.105 209.338 244.109H207.322Z" fill="#1F1011"/>
<path d="M289.117 200.675C288.318 200.056 287.79 199.151 287.644 198.149C287.499 197.147 287.748 196.129 288.338 195.307C300.865 177.94 308.238 156.617 308.238 135.162C308.207 108.348 297.566 82.6408 278.648 63.6784C259.73 44.7159 234.079 34.0461 207.322 34.0089C151.671 34.0089 106.39 79.3853 106.39 135.162C106.501 156.501 113.178 177.287 125.511 194.683C126.048 195.428 126.306 196.338 126.239 197.255C126.173 198.171 125.785 199.034 125.145 199.692C124.738 200.116 124.242 200.444 123.692 200.652C123.143 200.86 122.554 200.942 121.969 200.894C121.384 200.845 120.817 200.667 120.309 200.371C119.801 200.075 119.366 199.67 119.034 199.185C106.281 180.702 98.6042 157.546 98.6042 135.162C98.6042 75.0864 147.373 26.2069 207.322 26.2069C267.271 26.2069 316.047 75.0786 316.047 135.162C316.047 158.287 308.153 181.194 294.66 199.918C294.351 200.34 293.961 200.695 293.512 200.962C293.064 201.229 292.566 201.403 292.049 201.474C291.532 201.545 291.006 201.51 290.502 201.373C289.998 201.236 289.527 200.998 289.117 200.675Z" fill="#1F1011"/>
<path d="M167.522 49.137L171.018 57.9298L169.04 58.71L165.537 49.9718L167.522 49.137Z" fill="#34454F"/>
<path d="M173.618 56.8922L170.808 47.8575L173.182 47.1163L176.086 49.847C176.954 50.6726 177.768 51.5535 178.523 52.484H178.562C178.048 51.2691 177.601 50.0267 177.223 48.7625L176.398 46.1254L178.289 45.5247L181.1 54.5594L178.967 55.2303L175.954 52.3514C175.054 51.4994 174.201 50.5982 173.4 49.6519H173.353C173.789 50.83 174.21 52.1017 174.669 53.5529L175.518 56.268L173.618 56.8922Z" fill="#34454F"/>
<path d="M183.973 46.0708L181.474 46.5935L181.108 44.8381L188.224 43.3401L188.59 45.0955L186.059 45.6339L187.632 53.0926L185.538 53.5295L183.973 46.0708Z" fill="#34454F"/>
<path d="M197.294 47.6312L193.845 48.0525L194.117 50.2917L197.971 49.8158L198.182 51.5556L192.21 52.289L191.066 42.9266L196.842 42.2166L197.053 43.9565L193.393 44.409L193.635 46.3595L197.084 45.9382L197.294 47.6312Z" fill="#34454F"/>
<path d="M200.221 42.0138C201.157 41.8444 202.105 41.7453 203.055 41.7173C204.136 41.567 205.235 41.7928 206.17 42.357C206.467 42.5864 206.707 42.8821 206.871 43.2207C207.034 43.5593 207.117 43.9314 207.112 44.3075C207.123 44.8165 206.98 45.3171 206.702 45.7432C206.425 46.1694 206.024 46.5012 205.554 46.695V46.7418C205.897 46.8996 206.196 47.1382 206.427 47.4371C206.657 47.736 206.812 48.0863 206.878 48.4582C207.116 49.3545 207.402 50.2374 207.734 51.1031L205.547 51.1733C205.233 50.4738 204.991 49.7446 204.823 48.9965C204.519 47.8184 204.106 47.5142 203.266 47.5376H202.627L202.759 51.2513L200.642 51.3215L200.221 42.0138ZM202.479 46.0084H203.312C204.379 46.0084 204.986 45.4076 204.963 44.5806C204.939 43.7536 204.324 43.2933 203.351 43.3245C203.027 43.3256 202.703 43.3596 202.386 43.4259L202.479 46.0084Z" fill="#34454F"/>
<path d="M210.272 41.7173L216.034 42.0059L215.94 43.7302L212.312 43.5429L212.203 45.7119L215.598 45.8835L215.512 47.6312L212.118 47.4595L211.923 51.2591L209.79 51.1499L210.272 41.7173Z" fill="#34454F"/>
<path d="M219.646 49.4647L218.665 51.8053L216.478 51.5322L220.588 42.5365L223.36 42.911L225.003 52.6401L222.737 52.3124L222.34 49.808L219.646 49.4647ZM222.239 48.2086L221.889 46.1332C221.803 45.5559 221.733 44.8303 221.663 44.2685C221.453 44.7991 221.219 45.4935 220.993 46.0162L220.168 47.9355L222.239 48.2086Z" fill="#34454F"/>
<path d="M233.567 54.3097C232.75 54.4229 231.919 54.3725 231.122 54.1615C227.938 53.4281 226.755 51.0407 227.354 48.427C228.078 45.3062 230.725 44.0501 233.505 44.6899C234.288 44.8389 235.03 45.1585 235.677 45.6261L234.898 47.1865C234.401 46.8115 233.831 46.5457 233.224 46.4063C232.832 46.2888 232.418 46.2579 232.012 46.3156C231.606 46.3733 231.218 46.5183 230.873 46.7406C230.529 46.9629 230.236 47.2574 230.016 47.6037C229.795 47.95 229.652 48.34 229.596 48.7469C229.466 49.1371 229.422 49.5513 229.468 49.9604C229.514 50.3694 229.649 50.7634 229.864 51.1144C230.078 51.4655 230.367 51.7652 230.709 51.9924C231.052 52.2196 231.44 52.3688 231.846 52.4294C232.44 52.5734 233.054 52.6104 233.66 52.5387L233.567 54.3097Z" fill="#34454F"/>
<path d="M242.349 53.155L239.017 52.0783L238.324 54.2161L242.045 55.4332L241.5 57.095L235.778 55.2303L238.698 46.2268L244.233 48.0291L243.688 49.6909L240.185 48.5518L239.57 50.4243L242.91 51.5322L242.349 53.155Z" fill="#34454F"/>
<path d="M244.654 55.9247C245.18 56.5604 245.846 57.0651 246.6 57.3993C247.511 57.7738 248.157 57.6021 248.383 57.0326C248.609 56.4631 248.328 56.0027 247.441 55.1913C246.203 54.0678 245.588 52.8507 246.125 51.5946C246.748 50.1122 248.461 49.5037 250.516 50.3697C251.29 50.6722 251.987 51.144 252.556 51.7506L251.474 53.1472C251.02 52.6352 250.459 52.2302 249.831 51.9613C248.975 51.6024 248.398 51.8287 248.212 52.2734C248.025 52.7181 248.36 53.2798 249.302 54.1771C250.602 55.4098 250.983 56.5177 250.462 57.7426C249.847 59.2016 248.212 59.9818 245.79 58.9675C244.939 58.6243 244.177 58.0905 243.564 57.4071L244.654 55.9247Z" fill="#34454F"/>
<path d="M203.655 108.526H185.172C184.965 108.526 184.767 108.444 184.621 108.297C184.475 108.151 184.393 107.952 184.393 107.746V77.6065C184.393 77.3995 184.475 77.2011 184.621 77.0548C184.767 76.9085 184.965 76.8263 185.172 76.8263H229.48C229.686 76.8263 229.884 76.9085 230.03 77.0548C230.176 77.2011 230.258 77.3995 230.258 77.6065V84.207C231.526 84.3468 232.742 84.7852 233.808 85.4865V77.6065C233.804 76.458 233.347 75.3578 232.535 74.5464C231.724 73.735 230.626 73.2784 229.48 73.2764H185.172C184.025 73.2764 182.925 73.7323 182.114 74.5441C181.302 75.356 180.845 76.4573 180.843 77.6065V107.746C180.845 108.895 181.302 109.998 182.113 110.811C182.925 111.624 184.024 112.081 185.172 112.083H200.019V117.896H197.683C197.003 117.933 196.363 118.23 195.894 118.725C195.426 119.221 195.165 119.878 195.165 120.56C195.165 121.243 195.426 121.9 195.894 122.395C196.363 122.891 197.003 123.188 197.683 123.225H205.157C204.187 121.872 203.664 120.249 203.663 118.583V108.526H203.655Z" fill="#1F1011"/>
<path d="M218.541 120.541V116.694H210.755V92.165C210.755 91.9167 210.854 91.6786 211.029 91.503C211.204 91.3274 211.442 91.2288 211.69 91.2288H229.332C229.579 91.2288 229.817 91.3274 229.992 91.503C230.167 91.6786 230.266 91.9167 230.266 92.165V99.7563H231.597C232.378 99.7603 233.144 99.9731 233.816 100.373V92.165C233.814 90.9738 233.341 89.8319 232.5 88.9896C231.66 88.1472 230.52 87.6731 229.332 87.6711H211.682C210.493 87.6731 209.354 88.1472 208.513 88.9896C207.672 89.8319 207.199 90.9738 207.197 92.165V118.583C207.199 119.774 207.672 120.916 208.513 121.758C209.354 122.6 210.493 123.074 211.682 123.077H219.343C218.836 122.327 218.558 121.446 218.541 120.541Z" fill="#1F1011"/>
<path d="M231.589 101.98H222.979C222.391 101.982 221.828 102.217 221.412 102.633C220.996 103.05 220.762 103.614 220.76 104.203V120.541C220.762 121.13 220.996 121.694 221.412 122.111C221.828 122.527 222.391 122.762 222.979 122.764H231.589C232.177 122.762 232.74 122.527 233.156 122.111C233.572 121.694 233.806 121.13 233.808 120.541V104.203C233.806 103.614 233.572 103.05 233.156 102.633C232.74 102.217 232.177 101.982 231.589 101.98ZM223.446 104.648H231.169V118.762H223.446V104.648ZM227.339 121.68C227.091 121.676 226.855 121.576 226.679 121.402C226.504 121.227 226.402 120.991 226.396 120.744C226.385 120.613 226.4 120.481 226.442 120.357C226.483 120.233 226.551 120.118 226.639 120.021C226.727 119.925 226.835 119.847 226.954 119.794C227.074 119.741 227.204 119.714 227.335 119.714C227.466 119.714 227.595 119.741 227.715 119.794C227.835 119.847 227.942 119.925 228.03 120.021C228.119 120.118 228.186 120.233 228.227 120.357C228.269 120.481 228.285 120.613 228.273 120.744C228.271 120.991 228.172 121.228 227.997 121.403C227.822 121.579 227.586 121.678 227.339 121.68Z" fill="#1F1011"/>
<path d="M180.026 12.647L176.382 4.84502L178.375 4.43932L179.699 7.70055C180.072 8.64459 180.477 9.68226 180.765 10.4859C180.719 9.56523 180.711 8.53536 180.711 7.47429V3.93999L182.688 3.53429L184.059 6.87354C184.432 7.80198 184.751 8.6524 185.055 9.54182C184.993 8.59778 184.969 7.60693 184.946 6.58487V3.07397L186.838 2.68387L186.402 11.3597L184.393 11.7732L182.969 8.37152C182.634 7.59132 182.346 6.81112 182.05 5.9217C182.104 6.88134 182.128 7.69275 182.104 8.55877L182.042 12.2647L180.026 12.647Z" fill="#34454F"/>
<path d="M194.437 6.66288L191.369 7.06079L191.603 9.05029L195.036 8.63679L195.223 10.1972L189.906 10.837L188.909 2.48881L194.04 1.86465L194.226 3.42505L190.972 3.81515L191.182 5.50039L194.25 5.13369L194.437 6.66288Z" fill="#34454F"/>
<path d="M196.438 1.72421C197.241 1.55673 198.055 1.45239 198.874 1.41213C199.726 1.29327 200.593 1.41206 201.381 1.75542C201.693 1.89497 201.96 2.11833 202.152 2.40068C202.345 2.68303 202.455 3.01331 202.471 3.35483C202.484 3.76229 202.366 4.16301 202.135 4.49848C201.903 4.83394 201.571 5.08658 201.187 5.21951C201.665 5.29136 202.104 5.52751 202.427 5.88756C202.751 6.24762 202.94 6.70921 202.962 7.19341C202.982 7.53729 202.921 7.88106 202.786 8.1978C202.651 8.51453 202.445 8.79563 202.183 9.01908C201.599 9.54962 200.626 9.8695 198.929 9.95532C198.245 10.0057 197.558 10.0057 196.874 9.95532L196.438 1.72421ZM198.485 4.84501H199.1C200.105 4.7982 200.611 4.35349 200.58 3.72933C200.548 3.10517 200.042 2.77748 199.186 2.8243C198.923 2.82672 198.662 2.86078 198.407 2.92572L198.485 4.84501ZM198.68 8.55876C198.923 8.58179 199.168 8.58179 199.412 8.55876C200.276 8.51975 201.016 8.14526 200.969 7.25583C200.922 6.3664 200.151 6.12454 199.209 6.17135H198.563L198.68 8.55876Z" fill="#34454F"/>
<path d="M204.854 7.71616C205.499 8.06269 206.216 8.25244 206.948 8.2701C207.82 8.2701 208.287 7.92681 208.295 7.37287C208.303 6.81893 207.906 6.54586 206.901 6.17916C205.508 5.66423 204.605 4.88403 204.62 3.65912C204.62 2.22355 205.858 1.14688 207.828 1.17809C208.567 1.16463 209.299 1.31935 209.969 1.6306L209.525 3.15979C208.984 2.88709 208.387 2.74293 207.781 2.73848C206.956 2.73848 206.559 3.10518 206.551 3.51868C206.543 3.93219 207.003 4.29888 208.108 4.72019C209.587 5.29754 210.265 6.08554 210.249 7.27144C210.249 8.6758 209.144 9.86171 206.831 9.8305C206.021 9.82803 205.221 9.63849 204.496 9.27656L204.854 7.71616Z" fill="#34454F"/>
<path d="M214.298 1.59939L213.784 9.99434L211.884 9.88511L212.398 1.48236L214.298 1.59939Z" fill="#34454F"/>
<path d="M218.175 3.50307L215.925 3.2612L216.096 1.70081L222.519 2.39518L222.348 3.95558L220.067 3.70592L219.335 10.4859L217.451 10.283L218.175 3.50307Z" fill="#34454F"/>
<path d="M228.491 8.24669L225.447 7.73956L225.12 9.71346L228.53 10.2752L228.273 11.8356L222.994 10.9618L224.357 2.66046L229.464 3.50308L229.215 5.06348L225.976 4.53294L225.696 6.26498L228.748 6.76431L228.491 8.24669Z" fill="#34454F"/>
<path d="M230.406 10.2362C230.97 10.7075 231.637 11.0389 232.352 11.2036C233.201 11.3987 233.73 11.1412 233.847 10.6029C233.964 10.0646 233.629 9.71346 232.726 9.15172C231.465 8.37152 230.733 7.41968 230.998 6.21817C231.309 4.81381 232.711 4.0102 234.641 4.43151C235.377 4.56901 236.074 4.86737 236.681 5.30534L235.903 6.7097C235.424 6.33299 234.868 6.06661 234.275 5.9295C233.497 5.75785 232.999 6.04653 232.905 6.46783C232.812 6.88914 233.193 7.31825 234.174 7.95801C235.506 8.81623 236.012 9.72126 235.731 10.8838C235.436 12.2569 234.128 13.2244 231.839 12.7016C231.038 12.5324 230.285 12.1858 229.635 11.6874L230.406 10.2362Z" fill="#34454F"/>
<path d="M203.149 16.2827C177.558 16.5246 151.904 26.0508 129.599 44.799C128.244 45.9303 126.562 49.2618 124.857 47.2411C123.347 45.4544 126.726 44.0423 128.143 42.8876C166.23 12.0385 208.272 5.65643 253.809 23.2187C265.83 27.8453 276.52 35.0778 286.291 43.5507C286.587 43.8082 286.828 44.1203 287.132 44.3309C288.058 45.1111 289.226 45.9771 288.035 47.1396C287.007 48.1383 286.244 46.851 285.489 46.1956C277.488 39.1866 268.633 33.2225 259.135 28.4461C243.221 20.488 225.283 16.2827 203.149 16.2827Z" fill="#FBB040"/>
<path d="M192.638 396.614C191.921 396.76 191.183 396.76 190.466 396.614C187.593 396.162 186.394 394.133 186.76 391.762C187.212 388.929 189.485 387.681 191.984 388.071C192.69 388.151 193.368 388.388 193.97 388.766L193.354 390.186C192.88 389.894 192.349 389.706 191.797 389.632C191.075 389.519 190.337 389.698 189.746 390.131C189.156 390.563 188.761 391.213 188.648 391.937C188.536 392.661 188.715 393.401 189.146 393.993C189.578 394.584 190.226 394.98 190.949 395.093C191.481 395.192 192.028 395.192 192.56 395.093L192.638 396.614Z" fill="#34454F"/>
<path d="M195.69 388.727L197.574 388.898L196.951 395.694L200.276 395.998L200.136 397.558L194.919 397.083L195.69 388.727Z" fill="#34454F"/>
<path d="M209.657 393.595C209.595 396.357 207.898 397.988 205.445 397.933C202.993 397.878 201.553 395.959 201.553 393.564C201.553 391.169 203.266 389.195 205.734 389.249C208.202 389.304 209.704 391.27 209.657 393.595ZM203.593 393.595C203.554 395.241 204.309 396.419 205.57 396.443C206.831 396.466 207.618 395.272 207.649 393.642C207.649 392.128 206.995 390.818 205.695 390.786C204.394 390.755 203.631 391.933 203.593 393.572V393.595Z" fill="#34454F"/>
<path d="M213.324 389.296L213.636 394.126C213.729 395.577 214.337 396.279 215.294 396.217C216.252 396.154 216.789 395.436 216.696 393.923L216.384 389.101L218.276 388.976L218.58 393.657C218.751 396.248 217.521 397.558 215.333 397.699C213.145 397.839 211.907 396.747 211.736 394.079L211.433 389.398L213.324 389.296Z" fill="#34454F"/>
<path d="M220.417 388.867C221.238 388.615 222.075 388.425 222.924 388.297C224.111 388.017 225.357 388.149 226.459 388.672C226.984 388.967 227.43 389.387 227.757 389.894C228.084 390.401 228.283 390.981 228.335 391.582C228.469 392.205 228.461 392.85 228.313 393.47C228.165 394.09 227.88 394.669 227.479 395.163C226.484 396.12 225.193 396.707 223.819 396.825C223.108 396.94 222.391 397.008 221.671 397.028L220.417 388.867ZM223.329 395.366C223.551 395.355 223.772 395.332 223.991 395.296C225.696 395.046 226.669 393.938 226.326 391.949C226.31 391.589 226.214 391.237 226.044 390.919C225.875 390.601 225.637 390.325 225.347 390.111C225.058 389.897 224.724 389.751 224.371 389.682C224.018 389.614 223.654 389.626 223.306 389.717C223.019 389.756 222.737 389.824 222.465 389.92L223.329 395.366Z" fill="#34454F"/>
<path d="M204.457 383.819C175.331 383.413 148.79 373.31 125.963 353.43C125.646 353.204 125.356 352.942 125.098 352.65C124.553 351.87 123.027 351.316 123.907 350.154C125.044 348.656 126.017 350.154 126.757 350.825C134.013 357.325 142.022 362.928 150.612 367.513C172.077 378.943 194.935 383.117 219.023 380.527C243.883 377.897 265.62 368.09 284.422 351.659C285.279 350.879 286.33 349.124 287.536 350.606C288.595 351.917 286.945 352.845 285.979 353.664C262.895 373.575 236.113 383.702 204.457 383.819Z" fill="#FBB040"/>
<path d="M327.422 127.212C327.235 151.148 324.09 166.83 317.69 181.825C317.389 182.545 317.051 183.248 316.678 183.932C316.273 184.658 315.72 185.243 314.817 184.775C313.914 184.307 313.969 183.511 314.21 182.738C314.451 181.966 314.895 181.061 315.222 180.21C332.015 137.354 326.363 97.5639 299.005 60.7853C298.156 59.6384 297.222 58.5618 296.295 57.4773C295.571 56.6269 294.909 55.636 295.937 54.7778C296.965 53.9196 297.86 54.887 298.53 55.6672C303.083 61.0014 307.155 66.7297 310.699 72.7848C321.614 91.4394 327.445 113.168 327.422 127.212Z" fill="#27AAE1"/>
<path d="M328.971 99.4598C329.929 99.1009 331.066 98.6796 332.233 98.3051C331.128 98.3909 329.898 98.4299 328.847 98.4455L325.413 98.4924L324.946 97.088L327.749 95.2077C328.605 94.6382 329.649 93.9984 330.63 93.4523L327.282 94.4119L324.168 95.2623L323.615 93.5927L331.758 91.4628L332.537 93.8736L330.131 95.5354C329.298 96.0894 328.38 96.6667 327.5 97.1582C328.496 97.0724 329.633 96.9944 330.614 96.971H333.541L334.32 99.3116L326.488 102.378L325.912 100.622L328.971 99.4598Z" fill="#34454F"/>
<path d="M332.88 110.047C330.209 110.71 328.208 109.493 327.601 107.106C326.994 104.718 328.481 102.799 330.801 102.222C333.238 101.621 335.472 102.737 336.048 105.14C336.624 107.543 335.137 109.509 332.88 110.047ZM331.322 104.172C329.726 104.562 328.784 105.6 329.088 106.833C329.392 108.065 330.746 108.502 332.335 108.104C333.806 107.746 334.888 106.739 334.569 105.467C334.25 104.196 332.903 103.806 331.322 104.196V104.172Z" fill="#34454F"/>
<path d="M337.115 110.827C337.378 111.605 337.576 112.404 337.707 113.215C337.922 114.048 337.906 114.925 337.66 115.75C337.559 116.077 337.368 116.369 337.109 116.593C336.85 116.816 336.534 116.962 336.196 117.014C335.794 117.074 335.384 117.003 335.025 116.813C334.667 116.622 334.379 116.32 334.203 115.953C334.186 116.438 334.003 116.901 333.683 117.265C333.364 117.629 332.929 117.872 332.451 117.951C332.113 118.01 331.765 117.99 331.436 117.893C331.106 117.796 330.804 117.623 330.552 117.389C329.96 116.858 329.524 115.906 329.244 114.268C329.116 113.591 329.041 112.905 329.018 112.216L337.115 110.827ZM330.598 113.847C330.61 114.091 330.642 114.333 330.692 114.572C330.832 115.423 331.291 116.133 332.163 115.969C333.035 115.805 333.199 115.033 333.035 114.096L332.926 113.449L330.598 113.847ZM334.265 113.223L334.367 113.831C334.538 114.83 335.036 115.274 335.651 115.173C336.266 115.072 336.531 114.525 336.383 113.683C336.344 113.418 336.282 113.157 336.196 112.903L334.265 113.223Z" fill="#34454F"/>
<path d="M338.61 120.51L330.256 121.399L330.061 119.511L338.407 118.629L338.61 120.51Z" fill="#34454F"/>
<path d="M338.812 122.608L338.882 124.504L332.078 124.738L332.194 128.085L330.637 128.14L330.451 122.897L338.812 122.608Z" fill="#34454F"/>
<path d="M333.946 134.233L334.024 131.113L332.031 131.058L331.945 134.522H330.388L330.521 129.162L338.913 129.373L338.789 134.553H337.232L337.317 131.269L335.558 131.191L335.48 134.311L333.946 134.233Z" fill="#34454F"/>
<path d="M327.142 262.966C326.939 291.776 317.76 317.362 299.604 339.722C299.114 340.331 298.615 340.932 298.047 341.486C297.37 342.18 296.49 342.687 295.711 341.844C295.096 341.212 295.4 340.354 295.89 339.714C296.926 338.388 298.047 337.124 299.075 335.813C318.687 310.441 326.822 281.746 323.739 249.843C322.602 238.224 319.652 226.856 314.996 216.154C314.443 214.859 312.824 213.08 314.942 212.214C316.717 211.489 316.966 213.775 317.488 214.953C324.125 230.072 327.418 246.451 327.142 262.966Z" fill="#27AAE1"/>
<path d="M334.001 262.022L331.852 261.398V259.432L340.229 262.116L340.19 264.605L331.766 267.109V265.057L333.931 264.441L334.001 262.022ZM335.387 264.175L337.177 263.676C337.675 263.544 338.306 263.403 338.797 263.278C338.306 263.146 337.668 263.013 337.185 262.865L335.41 262.342L335.387 264.175Z" fill="#34454F"/>
<path d="M339.972 268.693C340.045 269.55 340.045 270.411 339.972 271.268C339.983 272.18 339.684 273.068 339.124 273.788C338.871 274.062 338.56 274.274 338.213 274.41C337.866 274.545 337.494 274.599 337.123 274.568C336.756 274.557 336.396 274.472 336.064 274.316C335.731 274.16 335.435 273.938 335.192 273.663C334.613 272.857 334.363 271.861 334.491 270.877C334.502 270.662 334.531 270.448 334.577 270.238L331.572 270.035L331.704 268.155L339.972 268.693ZM336.079 270.316C336.028 270.523 335.996 270.734 335.986 270.948C335.924 271.954 336.391 272.609 337.24 272.664C338.088 272.719 338.501 272.219 338.563 271.26C338.589 271 338.589 270.739 338.563 270.48L336.079 270.316Z" fill="#34454F"/>
<path d="M339.303 278.079L330.957 277.166L331.167 275.278L339.505 276.183L339.303 278.079Z" fill="#34454F"/>
<path d="M85.4388 262.365C85.4391 246.747 88.4585 231.277 94.3299 216.81C94.9761 215.249 95.3187 212.058 97.6933 213.057C99.8577 213.962 97.7556 216.271 97.1716 217.785C84.2165 251.076 85.6957 283.79 101.173 315.872C104.812 323.346 109.337 330.353 114.65 336.742C115.075 337.228 115.458 337.751 115.795 338.302C116.262 339.082 116.854 339.972 115.927 340.744C115.001 341.517 114.152 340.854 113.591 340.151C111.629 337.741 109.652 335.338 107.853 332.802C95.4611 315.512 87.9321 295.203 86.0539 273.998C85.8826 272.056 85.54 270.136 85.431 268.194C85.322 266.251 85.4388 264.308 85.4388 262.365Z" fill="#ED2142"/>
<path d="M80.4405 291.202C80.6408 290.496 80.6728 289.753 80.5339 289.033C80.3548 288.174 79.911 287.8 79.366 287.909C78.8211 288.018 78.642 288.463 78.5018 289.524C78.2994 290.999 77.7233 292.052 76.5321 292.302C75.1307 292.59 73.8227 291.631 73.4179 289.688C73.2527 288.969 73.2527 288.222 73.4179 287.503L74.975 287.605C74.8412 288.198 74.8412 288.814 74.975 289.407C75.1385 290.187 75.5978 290.531 76.0183 290.437C76.4387 290.343 76.6722 289.828 76.8591 288.674C77.1082 287.113 77.7233 286.279 78.8833 286.037C80.2536 285.756 81.655 286.567 82.1144 288.83C82.2993 289.631 82.2993 290.463 82.1144 291.264L80.4405 291.202Z" fill="#34454F"/>
<path d="M75.7536 277.392C78.4785 277.002 80.3548 278.422 80.6974 280.856C81.04 283.29 79.3816 285.046 77.0148 285.374C74.5312 285.725 72.4447 284.391 72.0943 281.933C71.744 279.475 73.449 277.712 75.7536 277.392ZM76.6956 283.392C78.3306 283.166 79.3661 282.229 79.1948 280.973C79.0235 279.717 77.7077 279.14 76.0806 279.374C74.4534 279.608 73.4023 280.474 73.5814 281.769C73.7605 283.064 75.084 283.618 76.6956 283.392Z" fill="#34454F"/>
<path d="M77.5832 274.084L79.7865 274.466L79.9811 276.425L71.3703 274.669L71.1367 272.188L79.2415 268.771L79.4361 270.815L77.3574 271.665L77.5832 274.084ZM75.9715 272.087L74.2432 272.781C73.7682 272.976 73.1532 273.187 72.686 273.358C73.1921 273.429 73.8383 273.499 74.3366 273.585L76.1584 273.912L75.9715 272.087Z" fill="#34454F"/>
<path d="M85.4154 134.077C85.9994 106.177 94.4934 81.0237 111.629 58.944C112.657 57.6177 113.872 54.6529 115.904 56.3694C117.546 57.7503 115.086 59.4902 114.043 60.8243C99.7564 79.2448 91.3558 99.9747 89.1759 123.24C87.259 142.325 90.114 161.587 97.4831 179.29C97.6894 179.767 97.8662 180.257 98.0125 180.757C98.3161 181.841 99.2037 183.238 97.8178 183.877C96.1362 184.658 95.6457 182.941 95.1707 181.825C91.1971 172.632 88.4435 162.955 86.9803 153.044C86.1006 146.787 85.2909 140.475 85.4154 134.077Z" fill="#ED2142"/>
<path d="M74.5001 152.342C74.2686 151.514 74.1071 150.669 74.0174 149.814C73.8324 148.92 73.9588 147.989 74.3755 147.177C74.5743 146.863 74.8417 146.599 75.1573 146.405C75.4729 146.21 75.8285 146.09 76.1973 146.053C76.5586 145.995 76.9281 146.011 77.283 146.101C77.6378 146.19 77.9705 146.352 78.2605 146.576C78.9818 147.258 79.4162 148.19 79.4751 149.182C79.4883 149.398 79.4883 149.614 79.4751 149.83L82.4569 149.471L82.6827 151.335L74.5001 152.342ZM78.0503 150.001C78.0716 149.791 78.0716 149.579 78.0503 149.369C77.9257 148.371 77.3418 147.809 76.4932 147.91C75.6446 148.012 75.3331 148.589 75.4499 149.541C75.4757 149.805 75.5279 150.067 75.6056 150.321L78.0503 150.001Z" fill="#34454F"/>
<path d="M77.1394 136.824C79.8955 136.668 81.6472 138.236 81.8107 140.725C81.9742 143.213 80.1524 144.789 77.7622 144.922C75.3721 145.055 73.2855 143.557 73.1454 141.083C73.0053 138.61 74.8193 136.956 77.1394 136.824ZM77.591 142.886C79.2337 142.792 80.347 141.957 80.277 140.686C80.2069 139.414 78.9534 138.735 77.3185 138.829C75.8081 138.914 74.5546 139.702 74.6324 141.005C74.7103 142.308 75.956 142.979 77.591 142.886Z" fill="#34454F"/>
<path d="M73.1843 135.209C73.0906 134.367 73.0594 133.519 73.0909 132.673C73.0394 131.713 73.3138 130.765 73.8694 129.981C74.0883 129.728 74.3642 129.531 74.6743 129.406C74.9843 129.281 75.3196 129.233 75.6523 129.263C76.106 129.287 76.5416 129.449 76.9007 129.728C77.2597 130.007 77.525 130.389 77.661 130.824C77.825 130.531 78.0559 130.282 78.3346 130.096C78.6134 129.91 78.9322 129.793 79.2648 129.755C80.0723 129.603 80.8703 129.406 81.655 129.162L81.5849 131.113C80.9433 131.344 80.2811 131.514 79.6074 131.62C78.5564 131.815 78.2605 132.158 78.2216 132.938V133.508L81.5149 133.625L81.4448 135.513L73.1843 135.209ZM76.8825 133.453V132.712C76.8825 131.768 76.4543 131.152 75.7224 131.152C74.9906 131.152 74.5468 131.635 74.5079 132.509C74.4808 132.795 74.4808 133.082 74.5079 133.367L76.8825 133.453Z" fill="#34454F"/>
<path d="M75.1541 126.002L74.9594 128.265L73.4023 128.132L73.9629 121.672L75.52 121.813L75.3176 124.091L82.091 124.676L81.9275 126.572L75.1541 126.002Z" fill="#34454F"/>
<path d="M80.4171 120.19L82.4725 121.064L82.2156 123.014L74.2354 119.339L74.5701 116.874L83.2433 115.407L82.9708 117.443L80.7441 117.794L80.4171 120.19ZM79.3038 117.849L77.4664 118.13C76.9525 118.2 76.3141 118.27 75.808 118.325C76.2752 118.512 76.8902 118.723 77.3652 118.926L79.0624 119.659L79.3038 117.849Z" fill="#34454F"/>
<path d="M75.193 112.793L75.5589 110.929L82.2389 112.224L82.8773 108.931L84.4345 109.236L83.4457 114.393L75.193 112.793Z" fill="#34454F"/>
<path d="M80.0979 193.981C80.9087 193.85 81.7291 193.787 82.5503 193.794C83.4061 193.721 84.2655 193.885 85.0339 194.27C85.3393 194.425 85.5952 194.663 85.7726 194.957C85.9501 195.251 86.0421 195.588 86.0383 195.932C86.0296 196.339 85.8902 196.733 85.6405 197.055C85.3909 197.377 85.0444 197.609 84.6525 197.718C85.127 197.816 85.5532 198.075 85.8584 198.452C86.1636 198.829 86.329 199.3 86.3263 199.786C86.3288 200.131 86.2513 200.472 86.1 200.782C85.9487 201.092 85.7277 201.362 85.4544 201.572C84.8393 202.064 83.8272 202.353 82.1533 202.353C81.4661 202.359 80.7793 202.317 80.0979 202.228V193.981ZM81.982 197.203H82.5971C83.6014 197.203 84.1542 196.782 84.1542 196.158C84.1542 195.534 83.6637 195.183 82.8073 195.183C82.5466 195.176 82.286 195.195 82.0287 195.237L81.982 197.203ZM81.982 200.925C82.223 200.944 82.4651 200.944 82.7061 200.925C83.5703 200.925 84.3332 200.597 84.3332 199.708C84.3332 198.818 83.5547 198.53 82.6282 198.53H81.982V200.925Z" fill="#34454F"/>
<path d="M87.6188 193.973C88.4691 193.845 89.3282 193.785 90.188 193.794C91.0972 193.725 92.0029 193.967 92.7572 194.48C93.0438 194.714 93.2728 195.011 93.4267 195.348C93.5806 195.685 93.6552 196.053 93.6448 196.423C93.6599 196.792 93.5985 197.16 93.4645 197.504C93.3305 197.847 93.1268 198.159 92.8662 198.42C92.0992 199.05 91.1236 199.368 90.1335 199.31C89.9172 199.313 89.701 199.297 89.4873 199.263V202.282H87.6032L87.6188 193.973ZM89.5029 197.788C89.7102 197.831 89.9219 197.85 90.1335 197.843C91.1456 197.843 91.7685 197.328 91.7685 196.478C91.7685 195.627 91.239 195.245 90.2814 195.245C90.0205 195.24 89.7596 195.26 89.5029 195.307V197.788Z" fill="#34454F"/>
<path d="M101.781 199.06C101.781 198.038 101.711 196.829 101.711 195.596C101.438 196.673 101.088 197.866 100.769 198.857L99.7097 202.111H98.2383L97.3196 198.888C97.0549 197.898 96.7746 196.704 96.541 195.596C96.4943 196.735 96.4476 198.038 96.4009 199.083L96.2452 202.282H94.4856L95.0228 193.864H97.5531L98.3784 196.673C98.6431 197.64 98.9 198.701 99.0869 199.684C99.3204 198.709 99.6007 197.601 99.8654 196.665L100.753 193.864H103.237L103.688 202.282H101.913L101.781 199.06Z" fill="#34454F"/>
<path d="M309.375 202.048C308.691 202.314 307.96 202.439 307.226 202.415C304.322 202.415 302.82 200.589 302.82 198.194C302.82 195.323 304.875 193.731 307.413 193.731C308.12 193.703 308.824 193.831 309.476 194.106L309.087 195.612C308.583 195.396 308.039 195.287 307.491 195.292C306.758 195.292 306.055 195.584 305.537 196.103C305.018 196.622 304.727 197.327 304.727 198.061C304.727 198.796 305.018 199.501 305.537 200.02C306.055 200.539 306.758 200.831 307.491 200.831C308.022 200.831 308.549 200.738 309.048 200.558L309.375 202.048Z" fill="#34454F"/>
<path d="M315.082 202.282L314.303 200.722C314 200.129 313.789 199.692 313.525 199.201C313.333 199.716 313.114 200.221 312.871 200.714L312.178 202.275H310.013L312.443 198.007L310.107 193.856H312.295L313.026 195.417C313.276 195.931 313.455 196.345 313.657 196.821C313.859 196.283 314.015 195.908 314.225 195.424L314.934 193.864H317.106L314.731 197.968L317.231 202.282H315.082Z" fill="#34454F"/>
<path d="M198.727 191.469V197.82C198.727 199.731 199.458 200.699 200.727 200.699C201.996 200.699 202.752 199.778 202.752 197.82V191.469H205.243V197.671C205.243 201.073 203.522 202.696 200.642 202.696C197.761 202.696 196.235 201.135 196.235 197.64V191.469H198.727Z" fill="#34454F"/>
<path d="M214.181 202.509L213.184 200.55C212.787 199.77 212.507 199.208 212.203 198.569C211.951 199.243 211.665 199.905 211.347 200.55L210.436 202.548H207.563L210.747 196.961L207.68 191.5H210.545L211.51 193.513C211.83 194.184 212.071 194.73 212.328 195.346H212.375C212.639 194.644 212.842 194.16 213.153 193.521L214.08 191.5H216.929L213.815 196.891L217.085 202.54L214.181 202.509Z" fill="#34454F"/>
<path d="M46.075 0H0V400.913H46.075V0Z" fill="#ED2142"/>
<path d="M16.957 288.135C16.7932 287.104 16.7177 286.059 16.7312 285.015C16.6439 283.86 16.9635 282.712 17.6343 281.769C17.935 281.419 18.3096 281.14 18.7311 280.952C19.1525 280.765 19.6102 280.673 20.0712 280.685C20.5358 280.67 20.9984 280.751 21.4299 280.925C21.8614 281.098 22.2524 281.359 22.5781 281.691C23.4124 282.654 23.8373 283.906 23.7615 285.179C23.7711 285.511 23.745 285.843 23.6837 286.169H27.8412V288.167L16.957 288.135ZM22.0954 286.138C22.1687 285.813 22.2001 285.48 22.1889 285.147C22.1889 283.642 21.4103 282.721 20.149 282.721C18.8878 282.721 18.2805 283.571 18.2805 284.968C18.2733 285.36 18.3046 285.752 18.3739 286.138H22.0954Z" fill="white"/>
<path d="M16.9725 277.993C16.8056 276.982 16.7248 275.959 16.7312 274.935C16.7312 273.374 16.9959 272.274 17.6187 271.533C17.8922 271.218 18.233 270.969 18.6158 270.804C18.9986 270.639 19.4136 270.563 19.8298 270.581C20.4398 270.585 21.0332 270.78 21.5263 271.14C22.0194 271.5 22.3873 272.006 22.5781 272.586H22.6249C22.8234 272.169 23.1223 271.808 23.4947 271.536C23.8671 271.263 24.3013 271.088 24.7581 271.026C25.7995 270.806 26.8245 270.514 27.8256 270.152V272.227C26.9862 272.571 26.1153 272.833 25.2252 273.007C23.7927 273.327 23.3256 273.85 23.3022 274.997V276.011H27.8256V278.009L16.9725 277.993ZM21.7996 275.996V274.802C21.7996 273.437 21.0833 272.594 19.9855 272.594C18.8878 272.594 18.226 273.437 18.2182 274.739C18.2083 275.161 18.2422 275.582 18.3194 275.996H21.7996Z" fill="white"/>
<path d="M22.22 257.903C25.9026 257.903 28.0125 260.142 28.0125 263.185C28.0125 266.227 25.6768 268.279 22.4146 268.279C19.0279 268.279 16.6378 266.142 16.6378 263.029C16.6378 259.916 19.0669 257.903 22.22 257.903ZM22.3679 266.149C24.618 266.149 26.4086 265.01 26.4086 263.083C26.4086 261.156 24.5946 260.033 22.2901 260.033C20.2113 260.033 18.2494 261.07 18.2494 263.083C18.2494 265.096 20.1101 266.149 22.3679 266.149Z" fill="white"/>
<path d="M16.8168 253.003V250.99H23.964C27.0003 250.99 28.0125 252.465 28.0125 254.649C28.0134 255.223 27.9268 255.794 27.7555 256.342L26.1284 256.093C26.2623 255.693 26.3307 255.274 26.3308 254.852C26.3308 253.705 25.8092 253.003 23.8939 253.003H16.8168Z" fill="white"/>
<path d="M22.9441 241.62V245.802H26.1829V241.121H27.8334V247.791H16.8168V241.363H18.4751V245.802H21.3091V241.643L22.9441 241.62Z" fill="white"/>
<path d="M27.5064 230.455C27.8766 231.363 28.0543 232.338 28.028 233.319C28.028 236.822 25.8325 238.952 22.4769 238.952C18.8566 238.952 16.6689 236.416 16.6689 233.046C16.6312 232.128 16.7987 231.214 17.1594 230.37L18.7632 230.806C18.4675 231.485 18.3189 232.219 18.3272 232.96C18.3272 235.207 19.7286 236.861 22.3835 236.861C24.8048 236.861 26.3463 235.441 26.3463 233.014C26.3529 232.263 26.2182 231.516 25.9493 230.814L27.5064 230.455Z" fill="white"/>
<path d="M18.5063 225.314V228.435H16.8168V220.087H18.5063V223.262H27.849V225.283L18.5063 225.314Z" fill="white"/>
<path d="M23.3567 204.155C21.9319 204.217 20.2425 204.287 18.7243 204.287C20.0712 204.654 21.5582 205.114 22.9518 205.59L27.7244 207.213V208.774L23.0531 210.233C21.6361 210.669 20.1413 211.06 18.7554 211.356C20.1958 211.403 21.9553 211.473 23.4268 211.559L27.849 211.801V213.681L16.8168 213.034V210.381L21.2468 208.945C22.547 208.547 23.855 208.165 25.0773 207.931V207.884C23.8783 207.588 22.5314 207.205 21.2312 206.776L16.8168 205.216V202.594L27.8334 201.962V203.929L23.3567 204.155Z" fill="white"/>
<path d="M24.7192 196.829L27.8334 197.773V199.856L16.8168 196.314V193.747L27.8334 190.158V192.319L24.7192 193.318V196.829ZM23.201 193.653L20.4838 194.527C19.8065 194.738 19.0513 194.917 18.4129 195.089C19.0591 195.253 19.822 195.417 20.476 195.612L23.201 196.47V193.653Z" fill="white"/>
<path d="M27.8334 187.638H16.8168V185.336L21.5427 182.481C22.7324 181.773 23.9678 181.144 25.2408 180.601V180.562C23.7849 180.702 22.3601 180.741 20.6785 180.741H16.8168V178.876H27.8334V180.967L22.9908 183.846C21.7638 184.58 20.4952 185.242 19.1914 185.828V185.883C20.624 185.797 22.0799 185.773 23.8628 185.773H27.8022L27.8334 187.638Z" fill="white"/>
<path d="M24.7192 173.368L27.8334 174.312V176.364L16.8168 172.853V170.279L27.8334 166.697V168.859L24.7192 169.857V173.368ZM23.201 170.193L20.4838 171.067C19.8065 171.277 19.0513 171.457 18.4129 171.62V171.683C19.0591 171.847 19.822 172.011 20.476 172.206L23.201 173.064V170.193Z" fill="white"/>
<path d="M27.3351 155.665C27.7241 156.809 27.9291 158.007 27.9424 159.215C27.9937 159.999 27.8902 160.784 27.6376 161.527C27.3851 162.271 26.9886 162.956 26.4709 163.545C25.9357 164.065 25.3012 164.471 24.6055 164.74C23.9099 165.008 23.1673 165.132 22.4224 165.106C18.9267 165.106 16.7 162.601 16.7 158.95C16.6709 157.947 16.8484 156.948 17.2217 156.017L18.8411 156.469C18.5015 157.259 18.3394 158.114 18.3661 158.973C18.3661 161.314 19.7598 162.984 22.3212 162.984C24.8827 162.984 26.3074 161.423 26.3074 159.153C26.3376 158.623 26.2608 158.092 26.0816 157.593H23.3567V159.535H21.7996V155.634L27.3351 155.665Z" fill="white"/>
<path d="M22.9441 146.451V150.618H26.1829V145.936H27.8334V152.599H16.8168V146.178H18.4751V150.618H21.3091V146.459L22.9441 146.451Z" fill="white"/>
<path d="M23.3567 133.882C21.9319 133.945 20.2425 134.023 18.7243 134.015V134.054C20.0712 134.421 21.5582 134.881 22.9518 135.357L27.7244 136.98V138.54L23.0531 140.007C21.6361 140.436 20.1413 140.834 18.7554 141.123C20.1958 141.169 21.9553 141.24 23.4268 141.325L27.849 141.567V143.447L16.8168 142.738V140.085L21.2468 138.649C22.547 138.251 23.855 137.869 25.0773 137.635V137.588C23.8783 137.292 22.5314 136.909 21.2312 136.48L16.8168 134.92V132.306L27.8334 131.666V133.633L23.3567 133.882Z" fill="white"/>
<path d="M22.9441 122.53V126.697H26.1829V122.015H27.8334V128.686H16.8168V122.257H18.4751V126.673H21.3091V122.53H22.9441Z" fill="white"/>
<path d="M27.8334 119.254H16.8168V116.913L21.5427 114.065C22.7324 113.357 23.9678 112.729 25.2408 112.185V112.146C23.7849 112.286 22.3601 112.325 20.6785 112.325H16.8168V110.461H27.8334V112.552L22.9908 115.431C21.7604 116.158 20.4922 116.82 19.1914 117.412V117.459C20.624 117.381 22.0799 117.358 23.8628 117.358H27.8022L27.8334 119.254Z" fill="white"/>
<path d="M18.5063 105.069V108.19H16.8168V99.9045H18.5063V103.025H27.849V105.038L18.5063 105.069Z" fill="white"/>
<path d="M411.008 0H364.933V400.913H411.008V0Z" fill="#27AAE1"/>
<path d="M394.043 115.196C394.206 116.228 394.282 117.272 394.269 118.317C394.361 119.475 394.041 120.627 393.366 121.571C393.064 121.92 392.689 122.197 392.268 122.383C391.846 122.569 391.389 122.66 390.929 122.647C390.471 122.668 390.013 122.596 389.584 122.435C389.154 122.274 388.762 122.028 388.43 121.711C387.594 120.746 387.169 119.491 387.246 118.216C387.241 117.886 387.267 117.557 387.324 117.233H383.167V115.196H394.043ZM388.905 117.202C388.838 117.525 388.81 117.855 388.819 118.185C388.819 119.698 389.597 120.619 390.859 120.619C392.12 120.619 392.719 119.761 392.719 118.364C392.727 117.974 392.696 117.585 392.626 117.202H388.905Z" fill="white"/>
<path d="M394.035 125.339C394.199 126.35 394.277 127.373 394.269 128.397C394.269 129.958 394.004 131.058 393.381 131.807C393.108 132.122 392.767 132.371 392.384 132.536C392.001 132.701 391.586 132.777 391.17 132.759C390.558 132.755 389.963 132.559 389.468 132.197C388.974 131.836 388.605 131.328 388.414 130.746H388.367C388.168 131.162 387.869 131.523 387.497 131.795C387.125 132.068 386.691 132.243 386.234 132.306C385.194 132.529 384.169 132.818 383.167 133.172V131.113C384.007 130.771 384.878 130.51 385.767 130.332C387.2 130.02 387.667 129.498 387.698 128.351V127.336H383.167V125.339H394.035ZM389.169 127.344V128.538C389.169 129.903 389.893 130.746 390.983 130.746C392.073 130.746 392.751 129.895 392.751 128.592C392.765 128.174 392.731 127.755 392.649 127.344H389.169Z" fill="white"/>
<path d="M388.788 145.429C385.097 145.429 382.988 143.19 382.988 140.147C382.988 137.104 385.362 135.053 388.593 135.053C391.972 135.053 394.362 137.198 394.362 140.311C394.362 143.424 391.933 145.429 388.788 145.429ZM388.632 137.182C386.382 137.182 384.599 138.322 384.599 140.249C384.599 142.176 386.405 143.299 388.71 143.299C390.789 143.299 392.751 142.269 392.751 140.256C392.751 138.244 390.898 137.182 388.632 137.182Z" fill="white"/>
<path d="M394.183 150.329V152.35H387.036C384 152.35 382.988 150.875 382.988 148.683C382.988 148.109 383.074 147.538 383.244 146.99L384.872 147.239C384.738 147.642 384.67 148.063 384.669 148.488C384.669 149.634 385.191 150.329 387.106 150.329H394.183Z" fill="white"/>
<path d="M388.056 161.712V157.554H384.825V162.235H383.167V155.533H394.183V161.962H392.525V157.554H389.699V161.712H388.056Z" fill="white"/>
<path d="M383.494 172.884C383.131 171.975 382.962 171 382.995 170.021C382.995 166.518 385.191 164.38 388.546 164.38C392.167 164.38 394.354 166.916 394.354 170.294C394.392 171.211 394.227 172.125 393.872 172.97L392.268 172.526C392.561 171.849 392.707 171.118 392.696 170.38C392.696 168.125 391.295 166.479 388.648 166.479C386.219 166.479 384.677 167.899 384.677 170.325C384.669 171.077 384.804 171.824 385.074 172.526L383.494 172.884Z" fill="white"/>
<path d="M392.494 178.018V174.897H394.183V183.253H392.494V180.07H383.151V178.049L392.494 178.018Z" fill="white"/>
<path d="M387.659 199.185C389.084 199.115 390.773 199.045 392.33 199.052V198.99C390.976 198.631 389.488 198.163 388.095 197.687L383.33 196.072V194.512L388.001 193.045C389.411 192.616 390.913 192.218 392.299 191.929C390.851 191.882 389.091 191.82 387.628 191.734L383.198 191.484V189.628L394.214 190.361V193.006L389.792 194.449C388.492 194.847 387.184 195.229 385.954 195.463V195.51C387.161 195.807 388.5 196.189 389.8 196.61L394.214 198.171V200.784L383.198 201.416V199.45L387.659 199.185Z" fill="white"/>
<path d="M386.281 206.511L383.167 205.567V203.484L394.183 207.026V209.593L383.167 213.182V211.013L386.281 210.014V206.511ZM387.838 209.679L390.555 208.813C391.24 208.602 391.988 208.415 392.626 208.251V208.212C391.98 208.056 391.217 207.884 390.563 207.689L387.838 206.839V209.679Z" fill="white"/>
<path d="M383.167 215.702H394.183V218.003L389.457 220.835C388.267 221.541 387.032 222.167 385.759 222.708V222.747C387.223 222.607 388.64 222.568 390.322 222.568H394.168V224.432H383.167V222.396L388.017 219.517C389.246 218.786 390.514 218.124 391.816 217.535V217.488C390.384 217.566 388.936 217.598 387.145 217.598H383.206L383.167 215.702Z" fill="white"/>
<path d="M386.281 229.972L383.167 229.028V226.944L394.183 230.487V233.053L383.167 236.642V234.473L386.281 233.475V229.972ZM387.838 233.147L390.555 232.273C391.24 232.063 391.988 231.883 392.626 231.711C391.98 231.548 391.217 231.376 390.563 231.181L387.838 230.331V233.147Z" fill="white"/>
<path d="M383.673 247.674C383.277 246.53 383.069 245.328 383.058 244.117C383.005 243.335 383.107 242.551 383.358 241.809C383.609 241.067 384.004 240.382 384.521 239.794C385.054 239.27 385.688 238.862 386.384 238.593C387.08 238.325 387.824 238.202 388.57 238.234C392.065 238.234 394.292 240.731 394.292 244.39C394.319 245.39 394.144 246.385 393.778 247.315L392.159 246.871C392.496 246.078 392.655 245.22 392.626 244.359C392.626 242.018 391.232 240.348 388.679 240.348C386.125 240.348 384.693 241.909 384.693 244.187C384.666 244.703 384.74 245.22 384.911 245.708H387.659V243.773H389.216V247.674H383.673Z" fill="white"/>
<path d="M388.056 256.889V252.73H384.825V257.411H383.167V250.741H394.183V257.169H392.525V252.761H389.699V256.92L388.056 256.889Z" fill="white"/>
<path d="M387.659 269.458C389.084 269.387 390.773 269.317 392.33 269.325V269.278C390.976 268.919 389.488 268.451 388.095 267.975L383.33 266.352V264.792L388.001 263.325C389.411 262.896 390.913 262.498 392.299 262.209V262.186C390.851 262.139 389.091 262.077 387.628 261.991L383.198 261.741V259.845L394.214 260.626V263.271L389.792 264.714C388.492 265.104 387.184 265.494 385.954 265.728V265.775C387.161 266.071 388.5 266.454 389.8 266.875L394.214 268.435V271.049L383.198 271.681V269.715L387.659 269.458Z" fill="white"/>
<path d="M388.056 280.841V276.682H384.825V281.363H383.167V274.669H394.183V281.098H392.525V276.69H389.699V280.848L388.056 280.841Z" fill="white"/>
<path d="M383.167 284.086H394.183V286.372L389.457 289.228C388.268 289.936 387.032 290.564 385.759 291.108V291.147C387.223 291.007 388.64 290.968 390.322 290.968H394.168V292.832H383.167V290.741L388.017 287.862C389.242 287.125 390.511 286.464 391.816 285.881V285.826C390.384 285.912 388.936 285.935 387.145 285.935H383.206L383.167 284.086Z" fill="white"/>
<path d="M392.494 298.262V295.142H394.183V303.498H392.494V300.314H383.151V298.294L392.494 298.262Z" fill="white"/>
<path d="M411.008 477.17V430.998H0.00778198V477.17H411.008Z" fill="#FBB040"/>
<path d="M136.006 447.874V458.913H133.99V447.874H136.006Z" fill="#1F1011"/>
<path d="M139.611 458.898V447.874H141.946L144.788 452.609C145.498 453.797 146.125 455.033 146.664 456.308C146.524 454.841 146.485 453.421 146.485 451.736V447.874H148.346V458.913H146.26L143.387 454.053C142.657 452.822 141.997 451.55 141.409 450.245H141.362C141.44 451.681 141.464 453.14 141.464 454.927V458.874L139.611 458.898Z" fill="#1F1011"/>
<path d="M151.974 447.874H158.343V449.528H153.991V452.555H158.047V454.201H153.998V458.882H151.974V447.874Z" fill="#1F1011"/>
<path d="M161.605 448.006C162.614 447.842 163.635 447.764 164.657 447.772C166.214 447.772 167.312 448.037 168.051 448.662C168.366 448.935 168.615 449.277 168.78 449.66C168.944 450.044 169.02 450.46 169.001 450.877C168.999 451.489 168.804 452.084 168.445 452.578C168.086 453.073 167.58 453.441 167 453.631V453.678C167.416 453.878 167.775 454.178 168.047 454.551C168.318 454.924 168.494 455.359 168.557 455.816C168.779 456.874 169.071 457.917 169.429 458.937H167.366C167.025 458.095 166.765 457.222 166.588 456.331C166.276 454.888 165.747 454.427 164.61 454.396H163.59V458.937H161.597L161.605 448.006ZM163.598 452.882H164.789C166.16 452.882 167 452.157 167 451.065C167 449.972 166.152 449.294 164.852 449.294C164.431 449.28 164.011 449.314 163.598 449.395V452.882Z" fill="#1F1011"/>
<path d="M174.537 455.777L173.595 458.898H171.516L175.051 447.874H177.62L181.193 458.913H179.068L178.071 455.793L174.537 455.777ZM177.706 454.217L176.834 451.502C176.623 450.815 176.444 450.066 176.281 449.426C176.117 450.074 175.954 450.838 175.759 451.494L174.903 454.217H177.706Z" fill="#1F1011"/>
<path d="M183.996 456.698C184.811 457.151 185.727 457.393 186.659 457.4C187.944 457.4 188.66 456.799 188.66 455.894C188.66 454.989 188.107 454.568 186.713 454.061C184.892 453.413 183.732 452.438 183.732 450.854C183.732 449.044 185.234 447.686 187.624 447.686C188.537 447.657 189.444 447.844 190.271 448.232L189.789 449.855C189.107 449.506 188.351 449.327 187.585 449.333C186.309 449.333 185.764 450.011 185.764 450.659C185.764 451.509 186.402 451.907 187.873 452.469C189.789 453.202 190.707 454.162 190.707 455.754C190.707 457.525 189.376 459.069 186.527 459.069C185.493 459.078 184.473 458.837 183.552 458.367L183.996 456.698Z" fill="#1F1011"/>
<path d="M195.947 449.551H192.833V447.874H201.163V449.567H197.987V458.929H195.978L195.947 449.551Z" fill="#1F1011"/>
<path d="M203.717 448.006C204.726 447.843 205.747 447.764 206.769 447.772C208.326 447.772 209.432 448.037 210.171 448.662C210.486 448.935 210.735 449.277 210.9 449.66C211.064 450.044 211.14 450.46 211.121 450.877C211.118 451.49 210.922 452.086 210.562 452.58C210.201 453.075 209.694 453.443 209.112 453.631V453.678C209.529 453.877 209.889 454.177 210.161 454.55C210.432 454.923 210.607 455.358 210.67 455.816C210.888 456.875 211.179 457.918 211.542 458.937H209.432C209.102 458.094 208.854 457.221 208.692 456.331C208.373 454.888 207.851 454.427 206.707 454.396H205.695V458.937H203.694L203.717 448.006ZM205.718 452.882H206.909C208.272 452.882 209.112 452.157 209.112 451.065C209.112 449.972 208.272 449.294 206.971 449.294C206.551 449.279 206.131 449.313 205.718 449.395V452.882Z" fill="#1F1011"/>
<path d="M216.267 447.874V454.31C216.267 456.464 217.163 457.431 218.525 457.431C219.888 457.431 220.861 456.432 220.861 454.31V447.874H222.877V454.178C222.877 457.579 221.126 459.093 218.471 459.093C215.816 459.093 214.267 457.665 214.267 454.193V447.874H216.267Z" fill="#1F1011"/>
<path d="M234.346 458.57C233.437 458.93 232.465 459.1 231.488 459.069C227.992 459.069 225.867 456.869 225.867 453.507C225.867 449.879 228.397 447.686 231.761 447.686C232.676 447.647 233.588 447.812 234.431 448.17L233.995 449.777C233.317 449.484 232.585 449.338 231.846 449.348C229.604 449.348 227.954 450.753 227.954 453.405C227.954 455.839 229.371 457.384 231.792 457.384C232.543 457.392 233.289 457.255 233.987 456.978L234.346 458.57Z" fill="#1F1011"/>
<path d="M239.795 449.551H236.681V447.874H245.02V449.567H241.843V458.929H239.795V449.551Z" fill="#1F1011"/>
<path d="M249.605 447.874V454.31C249.605 456.464 250.501 457.431 251.863 457.431C253.225 457.431 254.199 456.432 254.199 454.31V447.874H256.215V454.178C256.215 457.579 254.463 459.093 251.801 459.093C249.263 459.093 247.604 457.665 247.604 454.193V447.874H249.605Z" fill="#1F1011"/>
<path d="M259.797 448.006C260.805 447.843 261.826 447.764 262.848 447.772C264.406 447.772 265.503 448.037 266.251 448.662C266.566 448.935 266.814 449.277 266.979 449.66C267.143 450.044 267.219 450.46 267.201 450.877C267.198 451.49 267.002 452.086 266.641 452.58C266.281 453.075 265.773 453.443 265.192 453.631V453.678C265.608 453.877 265.968 454.177 266.24 454.55C266.512 454.923 266.687 455.358 266.749 455.816C266.97 456.874 267.258 457.916 267.613 458.937H265.55C265.22 458.094 264.972 457.221 264.81 456.331C264.491 454.888 263.97 454.427 262.825 454.396H261.813V458.937H259.812L259.797 448.006ZM261.797 452.882H262.989C264.351 452.882 265.192 452.157 265.192 451.065C265.192 449.972 264.351 449.294 263.043 449.294C262.625 449.279 262.207 449.313 261.797 449.395V452.882Z" fill="#1F1011"/>
<path d="M276.574 453.998H272.425V457.236H277.096V458.898H270.439V447.874H276.855V449.528H272.456V452.368H276.606L276.574 453.998Z" fill="#1F1011"/>
</g>
<defs>
<clipPath id="clip0">
<rect width="411" height="477.17" fill="white"/>
</clipPath>
</defs>
</svg>
