<svg viewBox="0 0 46 35" fill="none" xmlns="http://www.w3.org/2000/svg">
<path d="M0.337655 17.3692C0.337655 16.7467 0.36566 16.1242 0.337655 15.5042C0.31554 15.1472 0.380939 14.7902 0.527045 14.4704C0.673151 14.1505 0.894632 13.8794 1.16847 13.6853C1.80559 13.173 2.55707 12.9706 3.33655 12.84C5.20356 12.5274 7.07057 12.1944 8.93758 11.8844C9.52353 11.7897 10.1219 11.8841 10.6599 12.156C11.1267 12.3891 11.5071 12.2969 11.6377 12.8476C11.9295 14.1003 12.2305 15.3505 12.5572 16.5955C12.6376 16.999 12.6311 17.4174 12.5383 17.8177C12.4455 18.2179 12.269 18.5889 12.0228 18.9011C11.6502 19.3312 11.1705 19.6314 10.6436 19.7645C8.10443 20.3434 5.55596 20.8788 2.98882 21.3015C2.52914 21.3635 2.06262 21.3002 1.63057 21.1171C0.816085 20.802 0.578033 20.2179 0.440341 19.3238C0.351658 18.7551 0.237305 17.879 0.237305 17.879C0.237305 17.5613 0.342327 17.6792 0.342327 17.3666L0.337655 17.3692Z" fill="url(#paint0_linear)"/>
<path d="M16.8425 17.984C16.0724 17.9302 15.3606 17.7868 14.7422 17.2667C14.3758 16.9588 14.111 16.5279 13.9883 16.0396C13.6126 14.6511 13.2275 13.2678 12.8518 11.8818C12.6184 11.0416 13.3186 9.77606 13.972 9.25602C14.6861 8.67961 15.0385 9.34312 15.839 9.17916C17.3723 8.86919 18.9126 8.60532 20.4482 8.30303C21.0869 8.16719 21.7485 8.26229 22.3337 8.57405C22.919 8.88582 23.3965 9.39745 23.6945 10.0322C24.2452 11.1722 24.803 12.3071 25.3561 13.4445C26.0119 14.792 25.6525 15.8731 24.3503 16.3496C23.4004 16.698 22.4039 16.8235 21.4261 17.0387C19.9908 17.3564 18.5532 17.6459 17.1156 17.9456C17.0082 17.9661 16.9079 17.9738 16.8425 17.984Z" fill="url(#paint1_linear)"/>
<path d="M24.8302 7.19915C23.57 7.17353 22.7578 6.34864 22.179 5.03957C21.8777 4.42894 21.5482 3.83554 21.1919 3.2617C20.6131 2.23698 21.0262 0.956092 22.109 0.753712C24.0717 0.384815 25.5817 0.956092 27.5864 0.953531C28.01 0.947347 28.4291 1.04972 28.8103 1.25251C29.1915 1.4553 29.5244 1.75292 29.7825 2.1217C30.3589 2.90817 30.912 2.32665 31.5421 3.45895C32.0416 4.35558 31.9902 5.71332 31.1874 6.07453C30.6016 6.33071 29.9668 6.36145 29.3507 6.47673C28.0508 6.73291 26.7439 6.94041 25.4393 7.16073C25.237 7.18509 25.0337 7.19792 24.8302 7.19915Z" fill="url(#paint2_linear)"/>
<path d="M13.8692 9.0639C13.4137 9.06832 12.9623 8.96887 12.5437 8.77186C12.3025 8.67006 12.0872 8.50616 11.9158 8.29395C11.7444 8.08174 11.622 7.82744 11.5588 7.55245C11.3254 6.60459 11.0501 5.66953 10.8027 4.73448C10.5553 3.79943 10.8423 3.11287 11.4118 2.68505C11.9299 2.28029 12.3943 2.7286 12.9917 2.63126L17.3396 1.91396C17.7226 1.85245 18.1117 1.85245 18.4948 1.91396C19.2789 2.03948 19.9184 2.38532 20.2871 3.27939C20.6418 4.13502 21.0036 4.27336 21.398 5.1085C21.7924 5.94365 21.9254 7.12207 21.0036 7.60881C20.5139 7.8548 19.9943 8.02134 19.4609 8.10323C17.734 8.42089 16.007 8.75392 14.28 9.07671C14.143 9.08588 14.0055 9.08159 13.8692 9.0639Z" fill="url(#paint3_linear)"/>
<path d="M0.00381652 8.41565C0.00381652 7.97503 0.0294879 7.53184 0.00381652 7.09377C-0.0335237 6.58142 0.206857 6.25863 0.561589 5.98196C1.32706 5.3825 2.24657 5.30564 3.1474 5.16731L7.17314 4.56529C7.54553 4.51364 7.92194 4.50677 8.29568 4.54479C8.65521 4.56074 9.00077 4.70192 9.28232 4.94787C9.56386 5.19383 9.76676 5.53178 9.86163 5.91279C10.0647 6.6967 10.046 6.7633 10.2677 7.53952C10.4217 8.08775 10.3167 9.20212 9.93631 9.55821C9.30853 10.1474 8.51972 10.2909 7.72624 10.4215C5.95025 10.7161 4.30962 11.044 2.53362 11.3335C2.03257 11.4156 1.52108 11.3718 1.03767 11.2054C0.295535 10.9493 0.0434968 10.6034 0.0248267 9.79134C0.0248267 9.33278 0.0248267 8.87421 0.0248267 8.41565H0.00381652Z" fill="url(#paint4_linear)"/>
<path d="M31.1619 6.05624C32.5925 6.12285 33.6053 6.61215 34.3778 7.8085C35.1503 9.00486 36.0395 9.22517 36.8376 10.3524C37.5914 11.4206 37.2647 13.3881 36.1141 13.6955C33.9694 14.2719 31.8153 14.8713 29.6263 15.1275C28.2937 15.2838 27.0988 14.7023 26.359 13.1857C25.7755 11.9765 25.1501 10.7955 24.5433 9.59919C23.9365 8.40284 24.7137 6.95799 25.8782 6.69925C27.2528 6.39184 28.212 6.63008 29.5889 6.35853L31.1619 6.05624Z" fill="url(#paint5_linear)"/>
<path d="M3.89924 34.9635C6.97048 34.2231 10.0464 33.5007 13.1106 32.7373C15.0827 32.2429 16.1445 30.3548 15.6404 28.3541C15.1597 26.4609 14.6696 24.5703 14.2028 22.672C14.1104 22.2936 13.9367 21.9449 13.6963 21.6552C13.456 21.3655 13.1559 21.1432 12.8212 21.0069C12.1237 20.6808 11.3531 20.5915 10.6088 20.7507C8.22839 21.2289 5.84873 21.7114 3.46983 22.1981C2.85934 22.3184 2.27928 22.5804 1.76851 22.9666C0.944684 23.5866 0.3099 24.3628 0.326236 25.4772C0.354241 27.7213 0.412584 29.968 0.484931 32.2121C0.531606 33.6442 1.35309 34.5946 2.71602 34.8943C3.10197 35.0059 3.50467 35.0294 3.89924 34.9635Z" fill="url(#paint6_linear)"/>
<path d="M3.84315 34.1027C6.87704 33.3649 9.8946 32.6425 12.9122 31.8791C14.8539 31.3847 15.9017 29.4967 15.4023 27.4959C14.9355 25.6027 14.4455 23.7121 13.9857 21.8139C13.8965 21.4369 13.7265 21.0888 13.4898 20.7987C13.2531 20.5086 12.9566 20.2848 12.6251 20.1461C11.9406 19.8202 11.1819 19.7309 10.45 19.89C8.10538 20.3699 5.76228 20.8523 3.42074 21.3374C2.81872 21.4597 2.24745 21.7217 1.74509 22.1059C0.935276 22.7284 0.312157 23.5046 0.326159 24.619C0.354164 26.8631 0.410171 29.1098 0.482518 31.3539C0.529193 32.786 1.33668 33.7364 2.6786 34.0361C3.05846 34.1461 3.45493 34.1688 3.84315 34.1027Z" fill="#E31E26"/>
<path d="M44.1051 24.5063C41.7714 25.1262 39.4376 25.8077 37.0571 26.2739C35.2858 26.6198 33.6638 25.9742 32.623 24.3475C31.3908 22.4107 30.5459 20.7968 29.4351 18.7756C28.8679 17.7509 29.6521 15.7168 30.917 15.3018C31.7828 15.0302 32.0465 15.4196 32.9357 15.2275C34.0676 14.9841 35.1971 14.7151 36.336 14.5179C38.091 14.2028 39.6033 14.7177 40.7702 16.1805C42.0467 17.7713 43.2953 19.3904 44.5882 20.9685C45.0176 21.4936 45.2393 21.3502 45.5217 21.9522C45.5241 21.9522 45.9395 23.8249 44.1051 24.5063Z" fill="url(#paint7_linear)"/>
<path d="M44.1679 23.4611C41.9228 24.0452 39.6871 24.6882 37.414 25.1262C35.715 25.4542 34.1607 24.8496 33.1689 23.3125C31.9903 21.4885 30.9518 19.562 29.8899 17.6586C29.3462 16.6852 29.7966 15.6476 30.9238 15.3018C31.7546 15.0456 32.6181 14.9073 33.4699 14.7254C34.5551 14.4948 35.638 14.2489 36.7372 14.0568C38.4199 13.757 39.8644 14.2438 40.9893 15.622C42.2145 17.1207 43.4118 18.6449 44.6487 20.1308C45.0617 20.6252 45.2648 21.217 45.5285 21.7831C45.5192 21.7754 46.0653 22.7463 44.1679 23.4611Z" fill="url(#paint8_linear)"/>
<path d="M42.537 23.894C40.8381 24.3449 39.1367 24.7958 37.4027 25.1263C35.6688 25.4567 34.1611 24.8496 33.1693 23.3125C31.9907 21.4885 30.9522 19.5621 29.8903 17.6587C29.7509 17.4374 29.6714 17.1772 29.6611 16.9084C29.6507 16.6395 29.71 16.3729 29.832 16.1395L42.537 23.894Z" fill="#313B41"/>
<path d="M24.9944 16.8337C26.5137 16.9285 27.7109 17.5049 28.446 19.0318C29.3212 20.8429 30.2664 22.6183 31.1672 24.4115C32.0681 26.2048 31.4006 27.934 29.5452 28.4335C26.9781 29.1252 24.3853 29.7989 21.7971 30.4343C20.2195 30.8211 17.9044 30.0269 17.2929 27.583C16.8262 25.6975 16.5461 24.4551 16.0164 22.5875C15.4959 20.7635 15.839 18.855 17.566 18.3862C18.5672 18.1172 19.5894 17.9353 20.5999 17.715C21.8088 17.4537 23.0177 17.1975 24.2266 16.9465C24.4903 16.8824 24.7563 16.8645 24.9944 16.8337Z" fill="url(#paint9_linear)"/>
<path d="M25.0946 16.5955C26.5508 16.6852 27.6991 17.2308 28.4038 18.6783C29.2393 20.3921 30.1448 22.0701 31.0107 23.7711C31.8765 25.4721 31.23 27.1014 29.454 27.5805C26.9873 28.2363 24.5135 28.8614 22.0327 29.4762C20.5227 29.8451 18.2986 29.0919 17.7199 26.7761C17.2671 24.9828 16.7023 23.2382 16.1936 21.468C15.6941 19.7388 16.3266 18.5066 17.9812 18.0634C18.9404 17.8072 19.9183 17.6356 20.8891 17.4281C22.0467 17.1805 23.205 16.9354 24.3641 16.6929C24.6021 16.6519 24.8612 16.6237 25.0946 16.5955Z" fill="url(#paint10_linear)"/>
<path d="M17.0081 16.7185C16.2729 16.6723 15.5938 16.5391 15.0081 16.0678C14.6619 15.7909 14.4084 15.3965 14.2869 14.9457C13.9298 13.6802 13.5611 12.4198 13.2017 11.1543C12.9847 10.3857 13.183 9.85543 13.7992 9.37893C14.4806 8.86658 15.2881 8.84096 16.0606 8.68981C17.5238 8.40545 18.9965 8.17746 20.4597 7.89054C21.0601 7.76809 21.6802 7.85549 22.2329 8.14044C22.7856 8.42539 23.2429 8.89351 23.5403 9.47884C24.0678 10.5189 24.5999 11.5539 25.1296 12.594C25.7551 13.8236 25.4097 14.8074 24.1681 15.2429C23.2603 15.5605 22.3011 15.6732 21.3676 15.8705C19.9977 16.16 18.6254 16.4238 17.2531 16.6954C17.1598 16.7031 17.0711 16.7108 17.0081 16.7185Z" fill="#E31E26"/>
<path d="M13.3623 9.82212C13.4861 9.65062 13.6333 9.50113 13.7987 9.37893C14.4802 8.86658 15.2877 8.84096 16.0601 8.68981C17.5234 8.40545 18.996 8.17746 20.4593 7.89054C21.0596 7.76809 21.6798 7.85549 22.2325 8.14044C22.7852 8.42539 23.2424 8.89351 23.5399 9.47884C24.0673 10.5189 24.5994 11.5539 25.1292 12.594C25.3699 13.0084 25.4691 13.5031 25.4093 13.9901L13.3623 9.82212Z" fill="#ED4D5B"/>
<path d="M31.4116 5.66693C32.7978 5.72841 33.778 6.17929 34.5248 7.26805C35.2716 8.3568 36.0698 9.31747 36.8423 10.3422C37.5704 11.3182 37.309 12.3532 36.2075 12.6478C34.1304 13.1601 32.044 13.7212 29.925 13.9569C28.6367 14.0978 27.4792 13.5675 26.7697 12.1815C26.2049 11.0774 25.6028 9.99891 25.0124 8.90759C24.422 7.81627 24.7627 6.94014 25.8899 6.70189C27.2201 6.4201 28.5597 6.18953 29.897 5.94617L31.4116 5.66693Z" fill="url(#paint11_linear)"/>
<path d="M0.00391561 7.15533C0.00391561 6.7147 0.0272533 6.27151 0.00391561 5.83345C-0.0334246 5.32109 0.199956 4.99831 0.547687 4.72163C1.29449 4.12217 2.19299 4.04532 3.07282 3.90955C4.38206 3.7046 5.69129 3.50991 7.00054 3.30497C7.36354 3.25329 7.73067 3.24641 8.09507 3.28447C9.00524 3.37157 9.38798 3.71485 9.62602 4.65503C9.82206 5.42356 9.99709 6.2254 10.2118 7.00418C10.2832 7.24075 10.2842 7.49614 10.2146 7.73336C10.1449 7.97057 10.0083 8.17727 9.8244 8.3235C9.21295 8.91015 8.44281 9.05361 7.668 9.18682C5.92935 9.47887 4.20003 9.78628 2.4567 10.0732C1.96726 10.1553 1.46714 10.1114 0.995765 9.94511C0.272299 9.68893 0.024924 9.34309 0.0085877 8.53101C0.0085877 8.07245 0.0085877 7.61389 0.0085877 7.15533H0.00391561Z" fill="url(#paint12_linear)"/>
<path d="M0.0136719 6.38162C0.0136719 6.6378 0.0136719 6.89398 0.0136719 7.15016C0.0136719 7.60872 0.0136719 8.06728 0.0136719 8.52583C0.0300083 9.33792 0.277384 9.68632 1.00085 9.93994C1.47223 10.1062 1.97235 10.1501 2.4618 10.068C4.19579 9.78111 5.92512 9.4737 7.65678 9.18165C8.13437 9.12046 8.60411 9.00015 9.05705 8.823L0.0136719 6.38162Z" fill="#2F3E45"/>
<path d="M13.9245 7.72145C13.4858 7.72559 13.0503 7.63867 12.6409 7.46527C12.4147 7.38871 12.2086 7.25321 12.0404 7.07032C11.8721 6.88742 11.7467 6.66257 11.6748 6.41494C11.4414 5.59517 11.187 4.78821 10.9443 3.97612C10.7483 3.32287 10.8509 3.04107 11.411 2.65936C11.9128 2.31096 12.4962 2.23411 13.075 2.14701L17.2758 1.52706C17.6477 1.47454 18.0241 1.47454 18.396 1.52706C19.1545 1.63465 19.7753 1.93438 20.1323 2.70548C20.4894 3.47657 20.9001 4.14008 21.2829 4.85994C21.6656 5.5798 21.5163 6.03323 20.8161 6.438C20.3453 6.67663 19.8396 6.82149 19.3225 6.86581C17.6585 7.15273 15.9922 7.42941 14.3143 7.71889C14.1846 7.73 14.0543 7.73086 13.9245 7.72145Z" fill="url(#paint13_linear)"/>
<path d="M25.0753 5.73606C23.9084 5.71045 22.9609 5.30312 22.4195 4.10165C22.1384 3.54039 21.8307 2.99569 21.4976 2.46979C20.9585 1.53218 21.0986 0.93272 22.1091 0.753395C23.9411 0.41524 25.7731 0.000230816 27.6447 0.000230816C28.0384 -0.00529985 28.4279 0.0886289 28.7832 0.274754C29.1385 0.460878 29.4501 0.734212 29.6938 1.07362C30.2282 1.79348 30.8023 2.4826 31.3601 3.18453C31.8758 3.83522 31.7498 4.37063 31.003 4.7011C30.4569 4.94447 29.8641 4.95728 29.29 5.07256C28.0765 5.30056 26.8583 5.49782 25.6424 5.7002C25.4557 5.73094 25.2643 5.72326 25.0753 5.73606Z" fill="#313B41"/>
<path d="M0.225393 17.6971C0.225393 18.6065 0.601124 19.1778 1.41561 19.4903C1.84766 19.6735 2.31418 19.7368 2.77386 19.6748C5.34101 19.2521 7.88948 18.7167 10.4286 18.1377C10.9558 18.0053 11.4356 17.7049 11.8079 17.2744C12.0405 17.0494 12.2084 16.755 12.2913 16.427C12.3742 16.0991 12.3684 15.7518 12.2746 15.4274C11.9479 14.1823 11.6469 12.9322 11.3551 11.6795C11.2995 11.4205 11.1883 11.1798 11.0308 10.9775C10.8733 10.7752 10.6741 10.6171 10.4496 10.5164C9.91106 10.2436 9.31145 10.1501 8.72497 10.2474C6.85796 10.5549 4.99094 10.8904 3.12393 11.203C2.34445 11.3336 1.59532 11.5258 0.955863 12.0484C0.681923 12.2422 0.460486 12.5133 0.314732 12.8333C0.168979 13.1533 0.104271 13.5104 0.127378 13.8672L0.225393 17.6971Z" fill="url(#paint14_linear)"/>
<defs>
<linearGradient id="paint0_linear" x1="16.2446" y1="13.2806" x2="-5.93644" y2="19.2159" gradientUnits="userSpaceOnUse">
<stop stop-color="#949DA7"/>
<stop offset="0.5" stop-color="#414F58"/>
<stop offset="1" stop-color="#394144"/>
</linearGradient>
<linearGradient id="paint1_linear" x1="12.8121" y1="13.1166" x2="25.6665" y2="13.1166" gradientUnits="userSpaceOnUse">
<stop stop-color="#1D0C12"/>
<stop offset="0.5" stop-color="#582A1D"/>
<stop offset="1" stop-color="#9C3722"/>
</linearGradient>
<linearGradient id="paint2_linear" x1="20.9305" y1="3.91495" x2="31.8642" y2="3.91495" gradientUnits="userSpaceOnUse">
<stop stop-color="#949DA7"/>
<stop offset="0.83" stop-color="#5F6C75"/>
</linearGradient>
<linearGradient id="paint3_linear" x1="10.9077" y1="6.97092" x2="26.9781" y2="2.32775" gradientUnits="userSpaceOnUse">
<stop stop-color="#949DA7"/>
<stop offset="0.5" stop-color="#5F6C75"/>
<stop offset="1" stop-color="#233F40"/>
</linearGradient>
<linearGradient id="paint4_linear" x1="6463.91" y1="156.455" x2="6177.35" y2="386.953" gradientUnits="userSpaceOnUse">
<stop stop-color="#949DA7"/>
<stop offset="0.5" stop-color="#414F58"/>
<stop offset="1" stop-color="#394144"/>
</linearGradient>
<linearGradient id="paint5_linear" x1="9158.57" y1="541.075" x2="9366.52" y2="85.4606" gradientUnits="userSpaceOnUse">
<stop stop-color="#949DA7"/>
<stop offset="0.5" stop-color="#5F6C75"/>
<stop offset="1" stop-color="#233F40"/>
</linearGradient>
<linearGradient id="paint6_linear" x1="9091.95" y1="1577.5" x2="10113.4" y2="1577.5" gradientUnits="userSpaceOnUse">
<stop stop-color="#1D0C12"/>
<stop offset="0.5" stop-color="#582A1D"/>
<stop offset="1" stop-color="#9C3722"/>
</linearGradient>
<linearGradient id="paint7_linear" x1="11938" y1="1306.8" x2="12382.9" y2="295.721" gradientUnits="userSpaceOnUse">
<stop stop-color="#949DA7"/>
<stop offset="0.5" stop-color="#414F58"/>
<stop offset="1" stop-color="#394144"/>
</linearGradient>
<linearGradient id="paint8_linear" x1="11693.9" y1="1176.73" x2="12080.5" y2="265.458" gradientUnits="userSpaceOnUse">
<stop stop-color="#949DA7"/>
<stop offset="0.5" stop-color="#414F58"/>
<stop offset="1" stop-color="#394144"/>
</linearGradient>
<linearGradient id="paint9_linear" x1="10956.1" y1="1112.32" x2="10503.6" y2="2358.48" gradientUnits="userSpaceOnUse">
<stop stop-color="#949DA7"/>
<stop offset="0.5" stop-color="#414F58"/>
<stop offset="1" stop-color="#394144"/>
</linearGradient>
<linearGradient id="paint10_linear" x1="10350.4" y1="1555.59" x2="10773.1" y2="651.548" gradientUnits="userSpaceOnUse">
<stop stop-color="#949DA7"/>
<stop offset="0.5" stop-color="#5F6C75"/>
<stop offset="1" stop-color="#233F40"/>
</linearGradient>
<linearGradient id="paint11_linear" x1="28.4477" y1="13.9953" x2="35.2752" y2="4.39388" gradientUnits="userSpaceOnUse">
<stop stop-color="#484F54"/>
<stop offset="0.6" stop-color="#313B41"/>
</linearGradient>
<linearGradient id="paint12_linear" x1="6195.49" y1="228.043" x2="6359.43" y2="-68.4186" gradientUnits="userSpaceOnUse">
<stop stop-color="#949DA7"/>
<stop offset="0.5" stop-color="#414F58"/>
<stop offset="1" stop-color="#394144"/>
</linearGradient>
<linearGradient id="paint13_linear" x1="12.7786" y1="8.13902" x2="22.0647" y2="-0.088744" gradientUnits="userSpaceOnUse">
<stop stop-color="#5F6C75"/>
<stop offset="1" stop-color="#394144"/>
</linearGradient>
<linearGradient id="paint14_linear" x1="7263.74" y1="742.388" x2="7794.59" y2="82.1945" gradientUnits="userSpaceOnUse">
<stop stop-color="#949DA7"/>
<stop offset="0.5" stop-color="#5F6C75"/>
<stop offset="1" stop-color="#233F40"/>
</linearGradient>
</defs>
</svg>
