<svg width="1380" height="148" viewBox="0 0 1380 148" fill="none" xmlns="http://www.w3.org/2000/svg">
<path opacity="0.4" d="M247.878 77.0698C247.878 77.0698 407.636 -52.0023 573.678 23.9227C861.504 155.527 995.51 16.6122 1119.61 6.21199C1300.75 -8.97826 1380 66.9505 1380 66.9505V270.671H247.878V77.0698Z" fill="#FF002A"/>
<path opacity="0.4" d="M0 79.6316C0 79.6316 159.754 -49.4368 325.8 26.4845C613.626 158.092 747.632 19.174 871.738 8.77376C1052.87 -6.41275 1132.12 69.5123 1132.12 69.5123V273.232H0V79.6316Z" fill="#FF002A"/>
<path opacity="0.4" d="M294.422 280.797C294.422 280.797 474.18 22.6568 700.725 22.6568C946.02 22.6568 1065.52 277.004 1065.52 277.004V290.921H290.647L294.422 280.797Z" fill="#FF002A"/>
<path d="M0 154C0 154 207.556 -12.4696 445.934 54C749.244 138.571 749.5 139 989.424 54C1216.5 -26.4483 1380 154 1380 154V291.013H1.23422L0 154Z" fill="white"/>
</svg>
