<svg width="236" height="46" viewBox="0 0 236 46" fill="none" xmlns="http://www.w3.org/2000/svg">
<path d="M87.1987 37.2884H85.834C85.7684 37.2888 85.703 37.2822 85.6386 37.2686C85.585 37.2573 85.5346 37.2324 85.4913 37.196C85.4686 37.1721 85.4514 37.1427 85.4412 37.11C85.4309 37.0774 85.4279 37.0426 85.4323 37.0085C85.4367 36.9743 85.4484 36.9418 85.4665 36.9136C85.4846 36.8854 85.5086 36.8623 85.5364 36.8462C85.6192 36.8135 85.7069 36.7978 85.7949 36.8H89.2278C89.3134 36.7951 89.3986 36.8156 89.4743 36.8594C89.4998 36.8716 89.5227 36.8893 89.5418 36.9114C89.5609 36.9335 89.5758 36.9596 89.5856 36.9881C89.6005 37.0352 89.6005 37.0863 89.5856 37.1333C89.576 37.1578 89.5615 37.1797 89.5434 37.1974C89.5252 37.215 89.5037 37.2281 89.4804 37.2356C89.3703 37.2666 89.2573 37.2832 89.1437 37.2851C88.9693 37.2851 88.7859 37.2851 88.5966 37.2851H88.0795H87.839V42.3405C88.1396 42.3405 88.3891 42.3405 88.5815 42.3405C88.7739 42.3405 88.9693 42.3405 89.1467 42.3405C89.2629 42.3391 89.3789 42.3524 89.4924 42.3801C89.5249 42.3962 89.5521 42.4229 89.5704 42.4565C89.5887 42.4901 89.5971 42.5291 89.5946 42.5682C89.5961 42.5956 89.5918 42.623 89.5818 42.6483C89.5719 42.6735 89.5567 42.6958 89.5375 42.7134C89.4931 42.7498 89.4417 42.7747 89.3872 42.786C89.3228 42.7995 89.2573 42.8062 89.1918 42.8058H85.7949C85.71 42.8105 85.6254 42.7924 85.5484 42.753C85.4974 42.7288 85.4558 42.6855 85.4311 42.6309C85.4223 42.6085 85.4177 42.5843 85.4177 42.5599C85.4177 42.5355 85.4223 42.5114 85.4311 42.489C85.4417 42.4656 85.4565 42.4447 85.4746 42.4277C85.4927 42.4107 85.5137 42.3979 85.5364 42.39C85.6486 42.3603 85.7636 42.3448 85.8791 42.3438C86.0564 42.3438 86.2428 42.3438 86.4322 42.3438C86.6216 42.3438 86.8891 42.3438 87.1987 42.3438V37.2884Z" fill="black"/>
<path d="M96.7371 36.7011C96.7937 36.6771 96.8556 36.6725 96.9146 36.6878C96.9736 36.7031 97.027 36.7377 97.0678 36.7869C97.1052 36.8771 97.1246 36.9749 97.1249 37.074C97.1403 37.2484 97.1473 37.4235 97.146 37.5987V38.4698C97.1466 38.4955 97.1392 38.5207 97.125 38.5411C97.1108 38.5615 97.0906 38.576 97.0678 38.582C97.017 38.5983 96.9644 38.6072 96.9115 38.6084H96.7552C96.6169 38.6084 96.5357 38.5622 96.5147 38.4665C96.4917 38.358 96.4766 38.2477 96.4696 38.1365C96.4591 37.9923 96.4349 37.8496 96.3975 37.7109C96.3468 37.5458 96.2387 37.4094 96.0968 37.3314C96.0171 37.2838 95.9322 37.2473 95.8443 37.2225C95.7381 37.1885 95.6295 37.1642 95.5197 37.1499C95.4024 37.1499 95.2882 37.1169 95.174 37.107C95.0597 37.0971 94.9665 37.107 94.8884 37.107C94.5363 37.0929 94.1877 37.1866 93.8813 37.3776C93.6269 37.5477 93.4111 37.779 93.25 38.054C93.0952 38.3184 92.9852 38.6113 92.9254 38.9186C92.8684 39.1971 92.8382 39.4813 92.8352 39.7667C92.8386 40.0546 92.8708 40.3412 92.9314 40.6213C92.996 40.9255 93.109 41.2148 93.2651 41.476C93.431 41.7468 93.651 41.9726 93.9084 42.1359C94.2248 42.326 94.5821 42.4183 94.9425 42.4032C95.1868 42.4063 95.4301 42.3684 95.664 42.291C95.87 42.2233 96.071 42.1383 96.2652 42.037C96.4395 41.9413 96.5838 41.8555 96.7011 41.7763C96.7766 41.7153 96.8641 41.6747 96.9566 41.6575C97.155 41.6575 97.2813 41.7202 97.3324 41.8456C97.3567 41.9084 97.361 41.9784 97.3447 42.0442C97.3283 42.1101 97.2922 42.168 97.2422 42.2085C97.1101 42.3309 96.9634 42.4331 96.8063 42.5121C96.6206 42.6043 96.4298 42.6836 96.2351 42.7497C96.025 42.8151 95.8111 42.8647 95.5948 42.8982C95.4039 42.932 95.211 42.9496 95.0176 42.951C94.6148 42.9598 94.2144 42.8813 93.8392 42.72C93.4726 42.549 93.1434 42.2943 92.8733 41.9728C92.6033 41.6514 92.3987 41.2705 92.273 40.8556C92.1441 40.4082 92.1021 39.936 92.1498 39.4697C92.1977 39.0053 92.3306 38.5563 92.5406 38.1497C92.7503 37.7365 93.0485 37.3854 93.4094 37.1268C93.8071 36.8504 94.2599 36.684 94.729 36.6417C95.3229 36.5958 95.9186 36.6961 96.4726 36.9354C96.4978 36.877 96.5347 36.8256 96.5805 36.785C96.6263 36.7445 96.6798 36.7158 96.7371 36.7011Z" fill="black"/>
<path d="M102.28 37.2885V42.3438H102.509H102.891C103.038 42.3438 103.191 42.3438 103.303 42.3438C103.389 42.3423 103.475 42.3591 103.555 42.3933C103.605 42.4208 103.644 42.4663 103.666 42.522C103.672 42.5442 103.673 42.5677 103.668 42.5902C103.663 42.6127 103.653 42.6336 103.639 42.6507C103.603 42.6951 103.559 42.731 103.51 42.7563C103.447 42.7869 103.378 42.8016 103.309 42.7992H100.576C100.51 42.8003 100.444 42.7856 100.384 42.7563C100.331 42.7352 100.286 42.6986 100.251 42.6507C100.239 42.6323 100.231 42.6113 100.227 42.5892C100.223 42.567 100.223 42.5441 100.227 42.522C100.235 42.4949 100.248 42.4701 100.266 42.4495C100.283 42.4289 100.305 42.4131 100.329 42.4032C100.415 42.3701 100.506 42.3534 100.597 42.3537C100.723 42.3537 100.856 42.3537 100.994 42.3537H101.385H101.604V37.2885H99.9658L99.9146 38.5787V38.7569C99.915 38.8175 99.9058 38.8778 99.8876 38.9351C99.8684 38.9923 99.8351 39.0426 99.7914 39.0803C99.7333 39.127 99.6618 39.1492 99.59 39.143C99.5498 39.1463 99.5093 39.1407 99.4711 39.1265C99.4329 39.1124 99.3977 39.0899 99.3675 39.0605C99.3426 39.0308 99.3233 38.996 99.3109 38.958C99.2986 38.92 99.2933 38.8797 99.2954 38.8394C99.2954 38.7569 99.2954 38.6777 99.3164 38.6018L99.3555 37.1004C99.3554 37.0564 99.3626 37.0128 99.3765 36.9717C99.3911 36.9217 99.4208 36.8786 99.4607 36.8496C99.4976 36.8158 99.5424 36.794 99.59 36.7869H99.7343H104.162C104.212 36.7834 104.263 36.7834 104.313 36.7869C104.362 36.7965 104.41 36.8178 104.451 36.8496C104.489 36.8783 104.516 36.9202 104.529 36.9684L104.556 37.1004C104.556 37.3908 104.574 37.6778 104.58 37.9616C104.586 38.2454 104.598 38.5325 104.607 38.8229C104.61 38.862 104.604 38.9012 104.591 38.9377C104.578 38.9742 104.558 39.0071 104.532 39.0341C104.486 39.0852 104.428 39.1197 104.364 39.1331C104.301 39.1479 104.237 39.1479 104.174 39.1331C104.122 39.1204 104.074 39.0891 104.039 39.044C103.997 38.9747 103.975 38.893 103.976 38.8097C103.976 38.7041 103.976 38.6216 103.976 38.5655L103.925 37.2786L102.28 37.2885Z" fill="black"/>
<path d="M114.747 42.8685C114.714 42.951 114.624 42.9939 114.476 42.9939C114.41 42.9978 114.344 42.9794 114.287 42.9411C114.242 42.9106 114.205 42.8691 114.178 42.8197C114.151 42.7704 114.134 42.7148 114.131 42.6573C114.131 42.5979 114.131 42.5451 114.131 42.4956L114.064 41.3209C114.054 41.2821 114.054 41.2408 114.064 41.2021C114.083 41.16 114.114 41.1254 114.152 41.1031C114.199 41.0746 114.251 41.0588 114.305 41.0569H114.461C114.518 41.0525 114.574 41.0627 114.627 41.0868C114.679 41.1109 114.725 41.1481 114.762 41.1955C114.818 41.2824 114.867 41.3752 114.906 41.4727C114.933 41.5812 114.972 41.6855 115.023 41.7829C115.126 41.9705 115.274 42.1235 115.45 42.225C115.644 42.3391 115.853 42.4171 116.069 42.456C116.295 42.4986 116.525 42.5063 116.752 42.4791C116.973 42.4544 117.188 42.3886 117.389 42.2844C117.573 42.1918 117.732 42.0513 117.855 41.8753C117.981 41.6936 118.046 41.4698 118.038 41.2417C118.047 41.0353 118.002 40.8305 117.909 40.651C117.818 40.5063 117.692 40.3921 117.545 40.321C117.367 40.2358 117.179 40.178 116.986 40.1494L116.271 40.034C115.986 39.9928 115.704 39.9322 115.426 39.8525C115.197 39.7897 114.977 39.6908 114.774 39.5588C114.591 39.4409 114.441 39.2703 114.341 39.0656C114.24 38.8608 114.192 38.6297 114.203 38.3972C114.202 38.1468 114.262 37.9008 114.377 37.6845C114.501 37.46 114.668 37.2684 114.867 37.1235C115.091 36.9605 115.336 36.8369 115.595 36.7572C115.888 36.6649 116.191 36.6193 116.496 36.6219C116.724 36.6222 116.951 36.6522 117.173 36.711C117.388 36.765 117.601 36.8322 117.81 36.9123C117.814 36.8572 117.834 36.8049 117.866 36.7625C117.898 36.72 117.942 36.6894 117.99 36.6747C118.044 36.6496 118.102 36.6418 118.159 36.6524C118.216 36.6629 118.269 36.6913 118.312 36.7341C118.351 36.8079 118.374 36.8901 118.381 36.975C118.403 37.1159 118.418 37.258 118.426 37.4007C118.426 37.5525 118.444 37.6944 118.453 37.8297C118.462 37.965 118.453 38.0508 118.453 38.0838C118.453 38.1198 118.444 38.155 118.426 38.185C118.407 38.2149 118.381 38.2383 118.351 38.252C118.306 38.273 118.258 38.2853 118.21 38.2883H118.057C118.005 38.2941 117.953 38.2864 117.905 38.2657C117.857 38.245 117.814 38.2121 117.78 38.1696C117.716 38.0795 117.662 37.9821 117.618 37.8792C117.558 37.7614 117.488 37.6508 117.407 37.5492C117.294 37.4118 117.151 37.3075 116.992 37.2456C116.736 37.1336 116.462 37.0808 116.187 37.0905C115.947 37.0987 115.712 37.164 115.498 37.2819C115.306 37.3887 115.141 37.5463 115.017 37.7406C114.896 37.9258 114.831 38.1491 114.834 38.3774C114.824 38.5081 114.845 38.6394 114.896 38.7585C114.946 38.8775 115.023 38.9804 115.12 39.0572C115.337 39.2156 115.58 39.3276 115.835 39.3872C116.14 39.4594 116.448 39.5134 116.758 39.5489C117.071 39.5814 117.381 39.6511 117.681 39.7568C117.95 39.8459 118.194 40.0082 118.39 40.2286C118.592 40.4913 118.692 40.8299 118.67 41.1724C118.676 41.3681 118.647 41.5633 118.585 41.7468C118.523 41.9302 118.428 42.0984 118.306 42.2415C118.045 42.529 117.719 42.7352 117.362 42.8388C116.952 42.9609 116.526 43.0066 116.103 42.9741C115.653 42.9435 115.211 42.8321 114.795 42.6441C114.789 42.7211 114.773 42.7967 114.747 42.8685Z" fill="black"/>
<path d="M121.977 37.2886H121.574H121.327C121.27 37.2871 121.213 37.2759 121.159 37.2556C121.111 37.2338 121.072 37.1941 121.048 37.1434C121.036 37.1214 121.03 37.0963 121.03 37.0708C121.03 37.0452 121.036 37.0202 121.048 36.9982C121.076 36.9431 121.119 36.8992 121.171 36.8728C121.248 36.8346 121.333 36.8165 121.417 36.82H125.797C125.845 36.8164 125.892 36.8234 125.937 36.8404C125.982 36.8574 126.024 36.8841 126.059 36.919C126.098 36.952 126.125 36.9985 126.137 37.051C126.142 37.0971 126.142 37.1435 126.137 37.1896C126.137 37.216 126.137 37.2985 126.152 37.4338C126.167 37.5691 126.152 37.7275 126.152 37.899C126.153 38.0588 126.146 38.2186 126.131 38.3775C126.131 38.4823 126.107 38.5855 126.062 38.6778C126.026 38.7405 125.954 38.7702 125.839 38.7702C125.804 38.774 125.769 38.7685 125.736 38.7542C125.703 38.7398 125.673 38.717 125.65 38.6877C125.611 38.6313 125.584 38.5658 125.572 38.4963C125.56 38.4234 125.554 38.3494 125.554 38.2752V37.2853H122.602V39.3708H124.153V39.2355C124.153 39.1728 124.153 39.1068 124.153 39.0375C124.153 38.9682 124.153 38.9022 124.174 38.8395C124.18 38.789 124.193 38.7399 124.213 38.6943C124.235 38.6565 124.266 38.6261 124.303 38.6063C124.339 38.5865 124.38 38.5781 124.421 38.5821C124.449 38.5797 124.478 38.5841 124.505 38.5949C124.532 38.6057 124.556 38.6227 124.577 38.6448C124.611 38.6873 124.636 38.7382 124.649 38.7933C124.661 38.8529 124.667 38.9138 124.667 38.9748V39.1299C124.667 39.3675 124.667 39.5589 124.667 39.7107C124.667 39.8624 124.667 40.001 124.667 40.1363C124.669 40.2296 124.652 40.3222 124.616 40.4069C124.593 40.439 124.563 40.4644 124.529 40.481C124.495 40.4977 124.458 40.5051 124.421 40.5026C124.391 40.5045 124.361 40.4992 124.333 40.4873C124.305 40.4753 124.279 40.4569 124.258 40.4333C124.22 40.3904 124.193 40.3368 124.18 40.2782C124.168 40.2186 124.162 40.1578 124.162 40.0967V39.7668H122.626V42.3736H125.566V41.3837C125.565 41.3156 125.573 41.2478 125.59 41.1824C125.606 41.1192 125.635 41.0606 125.674 41.0108C125.699 40.9843 125.729 40.964 125.762 40.9515C125.794 40.9389 125.829 40.9344 125.864 40.9382C125.904 40.9362 125.945 40.9433 125.983 40.9592C126.022 40.9751 126.057 40.9994 126.086 41.0306C126.13 41.1223 126.154 41.224 126.155 41.3276C126.17 41.4843 126.177 41.6418 126.176 41.7994C126.176 41.9644 126.176 42.1294 126.176 42.2548C126.176 42.3802 126.161 42.4726 126.161 42.4957C126.166 42.5363 126.166 42.5773 126.161 42.6178C126.148 42.665 126.12 42.7058 126.083 42.7333C126.008 42.794 125.915 42.8233 125.821 42.8158H121.417C121.344 42.8164 121.272 42.8007 121.204 42.7696C121.149 42.7469 121.101 42.7067 121.066 42.6541C121.053 42.6347 121.045 42.6123 121.042 42.5888C121.039 42.5653 121.041 42.5413 121.048 42.5188C121.048 42.4759 121.102 42.4363 121.171 42.4C121.222 42.3754 121.277 42.362 121.333 42.3604C121.405 42.3604 121.487 42.3604 121.574 42.3604H121.977V37.2886Z" fill="black"/>
<path d="M129.465 42.3406H129.699C129.793 42.334 129.886 42.334 129.979 42.3406C130.062 42.3489 130.143 42.3712 130.219 42.4066C130.25 42.4188 130.276 42.4409 130.294 42.4698C130.312 42.4987 130.322 42.5331 130.322 42.5683C130.325 42.5921 130.323 42.6163 130.317 42.6393C130.311 42.6624 130.301 42.6839 130.287 42.7024C130.273 42.721 130.256 42.7363 130.237 42.7473C130.217 42.7582 130.196 42.7647 130.174 42.7663C130.064 42.7859 129.952 42.7948 129.841 42.7927H129.468C129.288 42.7927 129.101 42.7927 128.903 42.7927C128.704 42.7927 128.521 42.7927 128.347 42.7927C128.235 42.7973 128.124 42.7748 128.022 42.7267C127.998 42.7084 127.978 42.6837 127.964 42.6549C127.951 42.6262 127.944 42.5942 127.944 42.5617C127.942 42.5245 127.951 42.4875 127.97 42.4566C127.989 42.4256 128.017 42.4023 128.049 42.3901C128.127 42.3539 128.211 42.3316 128.296 42.3241C128.396 42.3153 128.496 42.3153 128.596 42.3241H128.837V37.2457H128.446C128.368 37.2457 128.296 37.2457 128.226 37.2457C128.173 37.2401 128.121 37.229 128.07 37.2127C128.047 37.2053 128.026 37.1927 128.008 37.1756C127.99 37.1585 127.975 37.1374 127.965 37.1137C127.956 37.0925 127.951 37.0694 127.951 37.046C127.951 37.0227 127.956 36.9996 127.965 36.9784C127.989 36.9288 128.026 36.8877 128.07 36.8596C128.143 36.8202 128.224 36.802 128.305 36.8068H128.924C129.206 36.8068 129.507 36.8068 129.826 36.8068C130.153 36.8068 130.478 36.8068 130.794 36.8068C131.049 36.8108 131.303 36.8361 131.554 36.8827C131.817 36.929 132.066 37.042 132.282 37.2127C132.471 37.3641 132.628 37.5575 132.745 37.7802C132.85 37.9917 132.91 38.2272 132.919 38.4683C132.928 38.7093 132.886 38.9493 132.796 39.1695C132.696 39.4038 132.546 39.6085 132.36 39.7668C132.138 39.9566 131.88 40.0896 131.605 40.1561C131.681 40.2031 131.751 40.2608 131.813 40.3277C131.875 40.3934 131.932 40.464 131.984 40.5389L133.22 42.3571C133.325 42.3561 133.431 42.3628 133.535 42.3769C133.628 42.3769 133.674 42.4561 133.674 42.5782C133.675 42.6122 133.668 42.6459 133.654 42.6764C133.641 42.7068 133.62 42.7332 133.595 42.7531C133.547 42.7832 133.494 42.8023 133.439 42.8092C133.366 42.8143 133.293 42.8143 133.22 42.8092H133.009H132.853C132.798 42.8072 132.745 42.792 132.697 42.7646C132.648 42.7372 132.606 42.6983 132.573 42.6508C132.492 42.5485 132.429 42.466 132.387 42.4033L131.368 40.9184C131.221 40.7039 131.097 40.5389 131.004 40.4267C130.916 40.3168 130.805 40.2328 130.679 40.1825C130.532 40.1285 130.378 40.1018 130.222 40.1033H129.456L129.465 42.3406ZM129.465 39.6216H130.415C130.709 39.6311 131.004 39.6035 131.293 39.5391C131.53 39.4935 131.752 39.3796 131.936 39.2091C132.023 39.1086 132.09 38.9891 132.133 38.8584C132.175 38.7276 132.192 38.5885 132.182 38.4501C132.181 38.2842 132.153 38.1198 132.098 37.965C132.036 37.798 131.932 37.6538 131.798 37.5493C131.644 37.4375 131.471 37.3612 131.29 37.3249C131.086 37.2802 130.88 37.2526 130.673 37.2424C130.46 37.2424 130.25 37.2424 130.036 37.2424H129.471L129.465 39.6216Z" fill="black"/>
<path d="M138.67 42.2779C138.624 42.3868 138.594 42.4792 138.57 42.5518C138.552 42.6188 138.519 42.6799 138.474 42.73C138.424 42.7772 138.364 42.8111 138.3 42.829C138.19 42.8522 138.078 42.8621 137.966 42.8587C137.895 42.8611 137.824 42.8392 137.765 42.796C137.709 42.7547 137.661 42.702 137.623 42.6409C137.585 42.5805 137.552 42.5164 137.524 42.4495C137.5 42.3835 137.476 42.3307 137.461 42.2878L135.444 37.2885C135.325 37.3 135.206 37.2725 135.101 37.2093C135.074 37.1941 135.051 37.1716 135.033 37.144C135.016 37.1163 135.005 37.0843 135.002 37.0509C135.005 37.0156 135.015 36.9816 135.032 36.9517C135.05 36.9218 135.073 36.8969 135.101 36.8794C135.171 36.8244 135.256 36.7965 135.342 36.8002H136.779C136.889 36.7993 136.999 36.8114 137.106 36.8365C137.15 36.8461 137.189 36.8735 137.215 36.9133C137.242 36.9531 137.253 37.0022 137.248 37.0509C137.247 37.0946 137.234 37.1369 137.209 37.1715C137.185 37.206 137.151 37.2309 137.112 37.2423C137.008 37.2816 136.898 37.3038 136.788 37.3083C136.667 37.3182 136.545 37.3182 136.424 37.3083H136.168L138.092 42.0931L139.968 37.2885H139.755H139.436C139.322 37.2885 139.217 37.2885 139.117 37.2885C139.039 37.2875 138.961 37.2696 138.889 37.2357C138.852 37.2192 138.82 37.1902 138.799 37.1529C138.777 37.1156 138.767 37.0719 138.769 37.0278C138.772 36.9838 138.786 36.9416 138.812 36.9073C138.837 36.873 138.871 36.8482 138.91 36.8365C139.015 36.811 139.122 36.7989 139.229 36.8002H140.711C140.799 36.795 140.886 36.823 140.957 36.8794C140.983 36.8983 141.005 36.9237 141.021 36.9534C141.036 36.9832 141.046 37.0166 141.047 37.0509C141.044 37.0839 141.034 37.1156 141.017 37.1432C141 37.1708 140.978 37.1935 140.951 37.2093C140.855 37.2707 140.744 37.2984 140.633 37.2885L138.67 42.2779Z" fill="black"/>
<path d="M144.922 37.2885H143.558C143.492 37.289 143.427 37.2823 143.362 37.2687C143.308 37.2574 143.256 37.2326 143.212 37.1961C143.19 37.1717 143.174 37.142 143.164 37.1093C143.154 37.0767 143.152 37.042 143.156 37.0081C143.161 36.9741 143.173 36.9418 143.191 36.9138C143.209 36.8857 143.232 36.8626 143.26 36.8464C143.343 36.8133 143.43 36.7977 143.519 36.8002H146.952C147.037 36.7957 147.122 36.8162 147.198 36.8596C147.249 36.8854 147.288 36.9314 147.309 36.9883C147.323 37.0355 147.323 37.0862 147.309 37.1334C147.3 37.1579 147.285 37.1798 147.267 37.1975C147.249 37.2152 147.227 37.2282 147.204 37.2357C147.094 37.2667 146.981 37.2833 146.867 37.2852C146.693 37.2852 146.51 37.2852 146.32 37.2852H145.797H145.557V42.3406C145.857 42.3406 146.107 42.3406 146.299 42.3406C146.492 42.3406 146.687 42.3406 146.864 42.3406C146.98 42.3389 147.095 42.3522 147.207 42.3802C147.24 42.3962 147.267 42.4227 147.286 42.4563C147.305 42.4899 147.314 42.5289 147.312 42.5683C147.313 42.5959 147.308 42.6235 147.298 42.6487C147.287 42.6739 147.272 42.6961 147.252 42.7135C147.209 42.7499 147.158 42.7747 147.105 42.7861C147.04 42.7995 146.975 42.8061 146.909 42.8059H143.519C143.434 42.8109 143.349 42.7928 143.272 42.7531C143.221 42.7289 143.179 42.6856 143.155 42.631C143.146 42.6086 143.141 42.5844 143.141 42.56C143.141 42.5356 143.146 42.5115 143.155 42.4891C143.165 42.4657 143.18 42.4448 143.198 42.4278C143.216 42.4108 143.237 42.398 143.26 42.3901C143.372 42.3604 143.487 42.3449 143.603 42.3439C143.78 42.3439 143.966 42.3439 144.156 42.3439C144.345 42.3439 144.61 42.3439 144.922 42.3439V37.2885Z" fill="black"/>
<path d="M154.458 36.7011C154.515 36.6764 154.577 36.6714 154.637 36.6867C154.696 36.7021 154.75 36.737 154.791 36.7869C154.829 36.8771 154.848 36.975 154.849 37.074C154.861 37.228 154.867 37.4029 154.867 37.5987V38.4698C154.868 38.4952 154.861 38.5204 154.847 38.5409C154.834 38.5613 154.814 38.5759 154.791 38.582C154.741 38.5984 154.688 38.6072 154.635 38.6084H154.479C154.341 38.6084 154.259 38.5622 154.238 38.4665C154.214 38.3583 154.199 38.2479 154.193 38.1366C154.183 37.9923 154.158 37.8496 154.121 37.7109C154.07 37.5458 153.962 37.4094 153.82 37.3314C153.741 37.2839 153.656 37.2473 153.568 37.2225C153.462 37.1885 153.353 37.1642 153.243 37.1499C153.126 37.1499 153.012 37.1169 152.898 37.107C152.783 37.0971 152.69 37.107 152.597 37.107C152.245 37.0926 151.896 37.1863 151.59 37.3776C151.335 37.5477 151.12 37.779 150.959 38.0541C150.804 38.3184 150.694 38.6113 150.634 38.9186C150.577 39.1971 150.547 39.4813 150.544 39.7667C150.546 40.0547 150.578 40.3415 150.64 40.6213C150.703 40.9254 150.815 41.2148 150.971 41.476C151.151 41.78 151.4 42.0264 151.695 42.1904C151.99 42.3543 152.318 42.43 152.648 42.4098C152.892 42.4129 153.136 42.375 153.37 42.2976C153.575 42.2297 153.776 42.1447 153.971 42.0436C154.145 41.9479 154.289 41.8621 154.407 41.7829C154.481 41.7224 154.568 41.6818 154.659 41.6641C154.861 41.6641 154.984 41.7268 155.038 41.8522C155.063 41.9153 155.067 41.9857 155.05 42.0517C155.033 42.1178 154.996 42.1754 154.945 42.2151C154.814 42.3383 154.668 42.4405 154.512 42.5187C154.325 42.6109 154.133 42.6902 153.938 42.7563C153.732 42.8189 153.523 42.8663 153.312 42.8982C153.121 42.9321 152.927 42.9497 152.732 42.951C152.33 42.9595 151.931 42.881 151.557 42.72C151.19 42.549 150.861 42.2943 150.591 41.9728C150.321 41.6514 150.116 41.2706 149.991 40.8556C149.86 40.4085 149.818 39.936 149.867 39.4697C149.914 39.0055 150.046 38.5565 150.255 38.1498C150.467 37.7374 150.766 37.3866 151.127 37.1268C151.525 36.8505 151.977 36.684 152.447 36.6417C153.04 36.596 153.636 36.6964 154.19 36.9354C154.216 36.8768 154.253 36.8253 154.3 36.7847C154.346 36.7441 154.4 36.7156 154.458 36.7011Z" fill="black"/>
<path d="M158.053 37.2885H157.65H157.404C157.346 37.287 157.29 37.2758 157.235 37.2555C157.187 37.2337 157.148 37.1939 157.124 37.1433C157.114 37.1207 157.108 37.0959 157.108 37.0707C157.108 37.0455 157.114 37.0206 157.124 36.9981C157.152 36.943 157.195 36.8991 157.247 36.8727C157.325 36.8345 157.409 36.8164 157.494 36.8199H161.877C161.924 36.8166 161.971 36.8236 162.015 36.8406C162.06 36.8576 162.1 36.8842 162.135 36.9189C162.174 36.9518 162.202 36.9984 162.213 37.0509C162.218 37.0969 162.218 37.1434 162.213 37.1895C162.213 37.2159 162.213 37.2984 162.229 37.4337C162.244 37.569 162.229 37.7273 162.229 37.8989C162.229 38.0587 162.222 38.2185 162.207 38.3774C162.207 38.4822 162.184 38.5854 162.138 38.6777C162.102 38.7404 162.03 38.7701 161.916 38.7701C161.881 38.7739 161.845 38.7684 161.812 38.754C161.779 38.7397 161.75 38.7169 161.727 38.6876C161.687 38.6312 161.661 38.5657 161.648 38.4962C161.636 38.4233 161.63 38.3493 161.63 38.2751V37.2852H158.678V39.3707H160.226V39.2354C160.226 39.1727 160.226 39.1067 160.226 39.0374C160.226 38.9681 160.226 38.9021 160.247 38.8394C160.253 38.7889 160.266 38.7398 160.287 38.6942C160.308 38.6564 160.339 38.626 160.376 38.6062C160.413 38.5864 160.453 38.578 160.494 38.582C160.523 38.5796 160.551 38.584 160.578 38.5948C160.605 38.6056 160.63 38.6226 160.65 38.6447C160.686 38.6865 160.711 38.7377 160.722 38.7932C160.735 38.8528 160.741 38.9136 160.74 38.9747V39.1298C160.74 39.3674 160.74 39.5588 160.74 39.7106C160.74 39.8623 160.74 40.0009 160.74 40.1362C160.743 40.2295 160.725 40.3221 160.689 40.4068C160.666 40.4391 160.637 40.4646 160.603 40.4813C160.568 40.498 160.531 40.5053 160.494 40.5025C160.464 40.5044 160.434 40.4991 160.406 40.4872C160.378 40.4752 160.353 40.4568 160.332 40.4332C160.293 40.3903 160.266 40.3367 160.254 40.2781C160.241 40.2185 160.235 40.1577 160.235 40.0966V39.7667H158.699V42.3735H161.639V41.3836C161.64 41.3156 161.648 41.248 161.663 41.1823C161.68 41.1191 161.709 41.0606 161.748 41.0107C161.772 40.9842 161.802 40.9639 161.835 40.9514C161.868 40.9388 161.902 40.9343 161.937 40.9381C161.978 40.9361 162.019 40.9432 162.057 40.9591C162.095 40.975 162.13 40.9993 162.159 41.0305C162.203 41.1222 162.227 41.2239 162.229 41.3275C162.243 41.4842 162.25 41.6418 162.25 41.7994C162.25 41.9643 162.25 42.1293 162.25 42.2547C162.25 42.3801 162.235 42.4725 162.235 42.4956C162.239 42.5362 162.239 42.5772 162.235 42.6177C162.221 42.6649 162.194 42.7057 162.156 42.7332C162.082 42.7935 161.99 42.8227 161.898 42.8157H157.494C157.421 42.8163 157.348 42.8006 157.28 42.7695C157.225 42.7468 157.177 42.7066 157.142 42.654C157.13 42.6346 157.122 42.6122 157.118 42.5887C157.115 42.5652 157.117 42.5413 157.124 42.5187C157.124 42.4758 157.178 42.4362 157.247 42.3999C157.299 42.3753 157.354 42.3619 157.41 42.3603C157.482 42.3603 157.563 42.3603 157.65 42.3603H158.053V37.2885Z" fill="black"/>
<path d="M165.256 42.8685C165.22 42.951 165.13 42.9939 164.982 42.9939C164.922 42.9986 164.862 42.9843 164.808 42.9528C164.755 42.9212 164.711 42.8737 164.682 42.8157C164.655 42.768 164.639 42.7135 164.637 42.6573C164.634 42.6034 164.634 42.5495 164.637 42.4956L164.573 41.3209C164.563 41.2821 164.563 41.2408 164.573 41.2021C164.591 41.1601 164.621 41.1254 164.658 41.1031C164.706 41.0745 164.759 41.0587 164.814 41.0569H164.97C165.027 41.0527 165.083 41.0631 165.136 41.0871C165.188 41.1112 165.234 41.1483 165.271 41.1955C165.327 41.2816 165.375 41.3746 165.412 41.4727C165.441 41.5802 165.481 41.6842 165.529 41.7828C165.633 41.9706 165.782 42.1235 165.959 42.225C166.147 42.3373 166.35 42.4153 166.561 42.456C166.786 42.4985 167.016 42.5062 167.243 42.4791C167.464 42.4548 167.68 42.389 167.88 42.2844C168.065 42.1927 168.226 42.0521 168.349 41.8752C168.473 41.6924 168.536 41.4691 168.53 41.2417C168.54 41.0352 168.495 40.83 168.4 40.651C168.31 40.5056 168.184 40.3912 168.037 40.321C167.858 40.2357 167.67 40.178 167.477 40.1494L166.762 40.0339C166.477 39.9925 166.195 39.9319 165.917 39.8524C165.689 39.7897 165.47 39.6907 165.268 39.5588C165.094 39.4428 164.948 39.2819 164.844 39.0902C164.74 38.8777 164.689 38.6385 164.697 38.3972C164.695 38.1466 164.755 37.9002 164.871 37.6845C164.994 37.4608 165.161 37.2694 165.358 37.1235C165.582 36.9604 165.827 36.8368 166.086 36.7572C166.379 36.6651 166.682 36.6196 166.987 36.6219C167.215 36.6222 167.442 36.6521 167.664 36.711C167.879 36.7654 168.092 36.8326 168.301 36.9123C168.305 36.8571 168.324 36.8045 168.357 36.762C168.389 36.7194 168.433 36.6889 168.481 36.6747C168.534 36.6503 168.592 36.6429 168.649 36.6534C168.705 36.6639 168.758 36.6919 168.8 36.7341C168.842 36.8067 168.866 36.8894 168.872 36.975C168.894 37.1159 168.909 37.258 168.917 37.4007C168.917 37.5525 168.917 37.6944 168.941 37.8296C168.965 37.9649 168.941 38.0507 168.941 38.0837C168.942 38.12 168.933 38.1556 168.915 38.1857C168.896 38.2159 168.87 38.2391 168.839 38.252C168.795 38.273 168.749 38.2853 168.701 38.2883H168.548C168.496 38.2936 168.444 38.2856 168.395 38.265C168.347 38.2444 168.303 38.2117 168.268 38.1695C168.204 38.0795 168.15 37.9821 168.106 37.8791C168.048 37.7607 167.979 37.65 167.898 37.5492C167.784 37.411 167.641 37.3066 167.48 37.2456C167.224 37.1334 166.95 37.0806 166.675 37.0905C166.435 37.0991 166.201 37.1644 165.986 37.2819C165.794 37.3896 165.629 37.547 165.505 37.7406C165.386 37.9268 165.323 38.1496 165.325 38.3774C165.315 38.5082 165.336 38.6397 165.386 38.7588C165.436 38.878 165.513 38.9809 165.611 39.0572C165.827 39.2168 166.07 39.3288 166.326 39.3872C166.631 39.4594 166.939 39.5134 167.249 39.5489C167.561 39.5817 167.87 39.6514 168.169 39.7568C168.438 39.845 168.682 40.0075 168.878 40.2286C169.08 40.4913 169.18 40.8298 169.158 41.1724C169.165 41.3682 169.136 41.5636 169.074 41.7471C169.012 41.9307 168.916 42.0988 168.794 42.2415C168.535 42.5295 168.21 42.7358 167.853 42.8388C167.442 42.9609 167.015 43.0066 166.591 42.9741C166.142 42.9432 165.701 42.8317 165.286 42.6441C165.285 42.72 165.275 42.7954 165.256 42.8685Z" fill="black"/>
<path d="M0 30.9658V10.6917H10.1547C12.1969 10.6917 13.749 10.8742 14.8112 11.2394C15.8261 11.5658 16.7186 12.2413 17.3574 13.1665C17.978 14.0404 18.3135 15.1175 18.3103 16.2255C18.3135 16.922 18.1732 17.6102 17.8999 18.2388C17.6266 18.8674 17.2274 19.42 16.7321 19.8553C15.6799 20.8408 14.0556 21.4678 11.8592 21.7362C12.5054 21.9952 13.1194 22.3422 13.6869 22.769C14.6269 23.5462 15.4725 24.4522 16.203 25.465L20.1861 30.9658H16.3744L13.3442 26.7486C12.4644 25.5321 11.7349 24.6005 11.1557 23.9537C10.709 23.4191 10.1911 22.9618 9.6196 22.5975C9.18405 22.3475 8.71851 22.1665 8.23678 22.0596C7.67767 21.9806 7.11389 21.9486 6.55035 21.9639H3.03017V30.9658H0ZM3.03017 19.6408H9.54745C10.6415 19.6772 11.735 19.5484 12.7971 19.258C13.4912 19.0671 14.1135 18.6425 14.5767 18.0437C14.9636 17.5328 15.1762 16.8898 15.1779 16.2255C15.1796 15.7547 15.073 15.291 14.8681 14.8775C14.6632 14.4639 14.3665 14.1138 14.0055 13.8595C13.2199 13.2435 11.9784 12.9344 10.2809 12.9322H3.03017V19.6408Z" fill="black"/>
<path d="M23.123 30.9658V10.6917H39.6808V13.084H26.1532V19.2943H38.8241V21.6735H26.1532V28.5735H40.2159V30.9658H23.123Z" fill="black"/>
<path d="M44.4036 30.966V10.6918H52.3067C53.6705 10.6603 55.0343 10.7575 56.383 10.9822C57.5839 11.2011 58.7291 11.6959 59.7438 12.4341C60.9173 13.2959 61.853 14.4943 62.4494 15.899C63.0709 17.4119 63.3789 19.0573 63.3512 20.7167C63.3761 22.1103 63.1725 23.4974 62.75 24.8118C62.4007 25.8993 61.8706 26.9063 61.1868 27.7817C60.5938 28.5225 59.8878 29.1445 59.1005 29.6197C58.2405 30.1076 57.3182 30.4503 56.365 30.636C55.151 30.8757 53.9188 30.9862 52.6855 30.966H44.4036ZM47.4337 28.5736H52.3247C53.5186 28.6091 54.7119 28.4839 55.878 28.2007C56.6226 28.0106 57.3229 27.6521 57.9342 27.1481C58.6835 26.4639 59.2618 25.5815 59.6146 24.5841C60.0427 23.3365 60.2468 22.0098 60.2158 20.6771C60.2158 18.5564 59.822 16.9274 59.0344 15.7901C58.3268 14.7104 57.3228 13.9079 56.1696 13.5C55.3539 13.2228 54.0512 13.0842 52.2616 13.0842H47.4518L47.4337 28.5736Z" fill="black"/>
<path d="M67.5117 30.966V10.6918H76.1513C77.3154 10.6704 78.4794 10.7355 79.6354 10.8865C80.624 11.0055 81.5834 11.3267 82.4642 11.8336C83.2219 12.2969 83.8546 12.972 84.2979 13.7904C84.7616 14.6223 85.0032 15.5804 84.9954 16.5556C85.0016 17.3911 84.8378 18.2174 84.5158 18.9745C84.1939 19.7315 83.722 20.4 83.1346 20.9312C81.896 22.1258 79.6565 22.723 76.4159 22.723H70.5419V30.9726L67.5117 30.966ZM70.5419 20.3307H76.464C78.42 20.3307 79.8108 20.0084 80.6365 19.3638C81.0342 19.06 81.3557 18.6509 81.5711 18.1745C81.7866 17.698 81.889 17.1696 81.869 16.6381C81.8854 15.838 81.6267 15.0605 81.1445 14.4602C80.6409 13.8449 79.9689 13.4257 79.2296 13.2657C78.2936 13.112 77.3468 13.0513 76.4008 13.0842H70.5419V20.3307Z" fill="black"/>
<path d="M83.9641 30.9658L92.76 10.6917H96.0247L105.401 30.9658H101.947L99.2743 24.8248H89.6968L87.1777 30.9658H83.9641ZM90.5776 22.6404H98.3424L95.9526 17.0306C95.2251 15.3235 94.684 13.9222 94.3292 12.8266C94.0282 14.1563 93.6146 15.4522 93.0937 16.6973L90.5776 22.6404Z" fill="black"/>
<path d="M118.54 23.0133V20.6341H128.241V28.1578C126.812 29.1776 125.261 29.976 123.633 30.5303C122.052 31.059 120.409 31.327 118.757 31.3256C116.654 31.3505 114.568 30.9095 112.624 30.0288C110.922 29.2983 109.468 28.0073 108.461 26.333C107.523 24.7187 107.034 22.8392 107.054 20.9245C107.048 18.9766 107.533 17.0648 108.455 15.4006C109.388 13.6895 110.798 12.3542 112.477 11.5926C114.393 10.7259 116.451 10.3013 118.522 10.3453C120.05 10.322 121.572 10.5625 123.032 11.058C124.211 11.4303 125.29 12.1095 126.179 13.0379C126.986 13.9728 127.58 15.1033 127.914 16.3378L125.178 16.9977C124.907 16.0986 124.471 15.2699 123.897 14.5624C123.283 13.9029 122.532 13.4161 121.709 13.1435C120.691 12.7778 119.626 12.5984 118.556 12.6122C117.333 12.5842 116.115 12.7736 114.948 13.1732C114.051 13.4775 113.22 13.9782 112.504 14.6449C111.915 15.2113 111.425 15.8913 111.058 16.6512C110.473 17.9142 110.173 19.313 110.183 20.7298C110.183 22.5381 110.535 24.0506 111.239 25.2671C111.971 26.5081 113.047 27.4579 114.308 27.9763C115.67 28.5697 117.123 28.87 118.589 28.8606C119.894 28.8662 121.192 28.6434 122.433 28.2007C123.44 27.8778 124.398 27.3953 125.277 26.7685V23.0133H118.54Z" fill="black"/>
<path d="M132.771 30.9658V10.6917H149.332V13.084H135.805V19.2943H148.476V21.6735H135.805V28.5735H149.864V30.9658H132.771Z" fill="black"/>
<path d="M153.012 24.4521L155.871 24.231C155.969 25.1457 156.301 26.0114 156.827 26.729C157.451 27.4723 158.247 28.0172 159.129 28.3063C160.262 28.7235 161.452 28.9266 162.646 28.9069C163.682 28.9253 164.713 28.7717 165.707 28.4515C166.456 28.2371 167.14 27.8051 167.685 27.2008C168.098 26.7346 168.334 26.1125 168.343 25.4618C168.343 25.1552 168.287 24.8517 168.18 24.5685C168.073 24.2854 167.916 24.0283 167.718 23.8119C167.295 23.3367 166.601 22.932 165.638 22.5976C165.022 22.3776 163.663 22.0476 161.558 21.6076C159.454 21.1676 157.98 20.7453 157.136 20.3405C156.188 19.9503 155.347 19.3006 154.692 18.453C154.166 17.7404 153.881 16.8493 153.887 15.9319C153.896 14.8771 154.245 13.8601 154.873 13.061C155.633 12.0959 156.631 11.3923 157.746 11.0349C159.106 10.5557 160.527 10.3217 161.955 10.342C163.478 10.3132 164.996 10.5596 166.446 11.0712C167.613 11.454 168.656 12.1947 169.452 13.2062C170.135 14.1076 170.53 15.2295 170.577 16.4005L167.67 16.5952C167.62 16.012 167.452 15.4486 167.177 14.9461C166.903 14.4436 166.53 14.0148 166.085 13.6913C165.184 13.0313 163.853 12.7014 162.093 12.7014C160.26 12.7014 158.923 12.9983 158.083 13.5923C157.247 14.1896 156.827 14.9122 156.827 15.7438C156.827 16.1026 156.91 16.4553 157.068 16.7696C157.226 17.0839 157.453 17.3496 157.728 17.5422C158.312 18.0108 159.836 18.4926 162.301 18.9875C164.766 19.4825 166.455 19.9137 167.369 20.2811C168.704 20.8223 169.688 21.5108 170.321 22.3468C170.947 23.1495 171.285 24.1744 171.274 25.2308C171.261 26.3502 170.891 27.429 170.228 28.2799C169.43 29.3099 168.39 30.0803 167.222 30.5073C165.805 31.0566 164.311 31.3258 162.809 31.3025C161.043 31.3523 159.282 31.0814 157.596 30.5007C156.308 30.0547 155.162 29.2172 154.289 28.0852C153.504 27.0662 153.054 25.7863 153.012 24.4521Z" fill="black"/>
<path d="M177.037 22.3732C177.037 21.5713 177.073 20.7695 177.037 19.9709C177.008 19.5111 177.093 19.0512 177.281 18.6392C177.469 18.2272 177.754 17.878 178.107 17.628C178.928 16.9681 179.896 16.7074 180.9 16.5391C183.305 16.1365 185.71 15.7075 188.114 15.3082C188.869 15.1863 189.64 15.3078 190.333 15.658C190.934 15.9583 191.424 15.8395 191.593 16.549C191.968 18.1626 192.356 19.7729 192.777 21.3766C192.88 21.8963 192.872 22.4354 192.752 22.9509C192.633 23.4664 192.406 23.9443 192.089 24.3465C191.608 24.9004 190.991 25.2872 190.312 25.4585C187.041 26.2043 183.759 26.894 180.452 27.4384C179.86 27.5183 179.259 27.4367 178.702 27.2008C177.653 26.795 177.346 26.0426 177.169 24.891C177.055 24.1584 176.908 23.0299 176.908 23.0299C176.908 22.6207 177.043 22.7725 177.043 22.3699L177.037 22.3732Z" fill="url(#paint0_linear)"/>
<path d="M198.296 23.1652C197.304 23.0959 196.387 22.9111 195.591 22.2412C195.119 21.8446 194.778 21.2896 194.62 20.6606C194.136 18.8721 193.64 17.0902 193.156 15.305C192.855 14.2226 193.757 12.5925 194.599 11.9226C195.518 11.1802 195.972 12.0348 197.004 11.8236C198.979 11.4244 200.963 11.0845 202.941 10.6951C203.763 10.5201 204.615 10.6426 205.369 11.0442C206.123 11.4458 206.738 12.1048 207.122 12.9225C207.832 14.3909 208.55 15.8527 209.262 17.3179C210.107 19.0536 209.644 20.4461 207.967 21.0599C206.743 21.5087 205.46 21.6703 204.2 21.9475C202.351 22.3567 200.5 22.7296 198.648 23.1157C198.51 23.1421 198.38 23.152 198.296 23.1652Z" fill="url(#paint1_linear)"/>
<path d="M208.586 9.27327C206.963 9.24027 205.917 8.17772 205.171 6.49151C204.783 5.70495 204.359 4.9406 203.9 4.20143C203.154 2.8815 203.686 1.23158 205.081 0.970893C207.609 0.495717 209.554 1.23158 212.136 1.22828C212.682 1.22031 213.222 1.35218 213.713 1.61339C214.204 1.87461 214.633 2.25797 214.965 2.733C215.708 3.74605 216.42 2.99699 217.232 4.45551C217.875 5.61046 217.809 7.35937 216.775 7.82464C216.02 8.15463 215.203 8.19422 214.409 8.34272C212.735 8.6727 211.051 8.93999 209.371 9.22377C209.11 9.25515 208.848 9.27168 208.586 9.27327Z" fill="url(#paint2_linear)"/>
<path d="M194.466 11.6753C193.88 11.681 193.298 11.5529 192.759 11.2991C192.448 11.168 192.171 10.9568 191.95 10.6835C191.729 10.4102 191.572 10.0826 191.49 9.72837C191.19 8.50743 190.835 7.30299 190.516 6.09854C190.198 4.8941 190.567 4.00975 191.301 3.45867C191.968 2.9373 192.566 3.51477 193.336 3.38938L198.936 2.46542C199.43 2.3862 199.931 2.3862 200.424 2.46542C201.435 2.62711 202.258 3.07259 202.733 4.22424C203.19 5.32638 203.656 5.50457 204.164 6.58032C204.672 7.65607 204.843 9.17399 203.656 9.80096C203.025 10.1178 202.356 10.3324 201.669 10.4378C199.444 10.847 197.22 11.276 194.995 11.6918C194.819 11.7036 194.642 11.6981 194.466 11.6753Z" fill="url(#paint3_linear)"/>
<path d="M176.607 10.8402C176.607 10.2726 176.64 9.70174 176.607 9.13746C176.559 8.4775 176.869 8.06172 177.325 7.70533C178.311 6.93317 179.496 6.83418 180.656 6.65598L185.842 5.88052C186.321 5.81399 186.806 5.80514 187.288 5.85412C187.751 5.87467 188.196 6.05652 188.559 6.37333C188.921 6.69014 189.183 7.12547 189.305 7.61624C189.566 8.62599 189.542 8.71179 189.828 9.71164C190.026 10.4178 189.891 11.8532 189.401 12.3119C188.592 13.0709 187.576 13.2557 186.554 13.424C184.267 13.8034 182.153 14.2258 179.866 14.5987C179.22 14.7044 178.561 14.648 177.939 14.4337C176.983 14.1037 176.658 13.6582 176.634 12.6122C176.634 12.0215 176.634 11.4309 176.634 10.8402H176.607Z" fill="url(#paint4_linear)"/>
<path d="M216.742 7.80103C218.584 7.88682 219.889 8.51709 220.884 10.0581C221.879 11.5991 223.025 11.8829 224.053 13.3348C225.024 14.7109 224.603 17.2452 223.121 17.6411C220.358 18.3836 217.583 19.1558 214.764 19.4857C213.047 19.687 211.508 18.938 210.555 16.9845C209.804 15.4269 208.998 13.9057 208.216 12.3647C207.435 10.8237 208.436 8.96257 209.936 8.62928C211.706 8.2333 212.942 8.54019 214.716 8.19041L216.742 7.80103Z" fill="url(#paint5_linear)"/>
<path d="M181.624 45.0365C185.58 44.0828 189.542 43.1523 193.489 42.1689C196.029 41.5321 197.397 39.1001 196.748 36.5229C196.129 34.0843 195.497 31.6491 194.896 29.2039C194.777 28.7164 194.553 28.2673 194.244 27.8941C193.934 27.521 193.548 27.2346 193.116 27.059C192.218 26.6389 191.225 26.524 190.267 26.729C187.2 27.345 184.135 27.9665 181.071 28.5934C180.285 28.7483 179.537 29.0858 178.879 29.5834C177.818 30.3819 177.001 31.3818 177.022 32.8172C177.058 35.7079 177.133 38.6018 177.226 41.4925C177.286 43.3371 178.344 44.5613 180.1 44.9474C180.597 45.0912 181.116 45.1215 181.624 45.0365Z" fill="url(#paint6_linear)"/>
<path d="M181.552 43.9278C185.46 42.9774 189.347 42.0469 193.234 41.0635C195.735 40.4266 197.085 37.9947 196.441 35.4175C195.84 32.9789 195.209 30.5436 194.617 28.0984C194.502 27.6129 194.283 27.1645 193.978 26.7908C193.673 26.4171 193.291 26.1289 192.864 25.9502C191.982 25.5305 191.005 25.4154 190.062 25.6203C187.042 26.2384 184.024 26.8599 181.008 27.4847C180.232 27.6423 179.497 27.9798 178.85 28.4746C177.806 29.2765 177.004 30.2763 177.022 31.7118C177.058 34.6024 177.13 37.4964 177.223 40.387C177.283 42.2316 178.323 43.4559 180.052 43.842C180.541 43.9837 181.052 44.0129 181.552 43.9278Z" fill="#E31E26"/>
<path d="M233.414 31.5666C230.408 32.3651 227.402 33.2429 224.335 33.8434C222.054 34.2889 219.964 33.4574 218.624 31.362C217.036 28.8673 215.948 26.7884 214.517 24.1848C213.787 22.8649 214.797 20.2448 216.426 19.7102C217.541 19.3605 217.881 19.862 219.026 19.6145C220.484 19.3011 221.939 18.9546 223.406 18.7005C225.667 18.2946 227.615 18.9579 229.118 20.8421C230.762 22.8913 232.371 24.9768 234.036 27.0095C234.589 27.6859 234.875 27.5012 235.239 28.2766C235.242 28.2766 235.777 30.6888 233.414 31.5666Z" fill="url(#paint7_linear)"/>
<path d="M233.495 30.2202C230.603 30.9726 227.723 31.8008 224.795 32.3651C222.607 32.7875 220.605 32.0087 219.327 30.0288C217.809 27.6793 216.471 25.1979 215.103 22.7461C214.403 21.4921 214.983 20.1557 216.435 19.7102C217.505 19.3802 218.618 19.2021 219.715 18.9678C221.113 18.6708 222.508 18.354 223.923 18.1065C226.091 17.7204 227.952 18.3474 229.401 20.1227C230.979 22.0531 232.521 24.0165 234.114 25.9304C234.646 26.5673 234.908 27.3296 235.247 28.0588C235.235 28.0489 235.939 29.2996 233.495 30.2202Z" fill="url(#paint8_linear)"/>
<path d="M231.394 30.7779C229.205 31.3587 227.014 31.9395 224.78 32.3651C222.547 32.7908 220.605 32.0087 219.327 30.0288C217.809 27.6794 216.471 25.1979 215.103 22.7461C214.924 22.461 214.821 22.126 214.808 21.7796C214.795 21.4333 214.871 21.09 215.028 20.7893L231.394 30.7779Z" fill="#313B41"/>
<path d="M208.797 21.6836C210.754 21.8057 212.296 22.5482 213.243 24.5149C214.37 26.8478 215.587 29.1346 216.748 31.4445C217.908 33.7544 217.048 35.9818 214.659 36.6253C211.352 37.5162 208.012 38.3841 204.678 39.2024C202.646 39.7007 199.664 38.6778 198.876 35.5297C198.275 33.101 197.914 31.5006 197.232 29.095C196.562 26.7455 197.004 24.2872 199.228 23.6833C200.518 23.3368 201.834 23.1025 203.136 22.8187C204.693 22.4822 206.25 22.1522 207.808 21.8288C208.147 21.7463 208.49 21.7232 208.797 21.6836Z" fill="url(#paint9_linear)"/>
<path d="M208.926 21.3767C210.802 21.4922 212.281 22.1951 213.188 24.0595C214.265 26.2671 215.431 28.4285 216.546 30.6196C217.662 32.8106 216.829 34.9093 214.541 35.5264C211.364 36.3712 208.177 37.1763 204.982 37.9683C203.037 38.4435 200.172 37.4733 199.426 34.4903C198.843 32.1804 198.116 29.9332 197.46 27.653C196.817 25.4256 197.632 23.8384 199.763 23.2675C200.999 22.9375 202.258 22.7164 203.509 22.4492C205 22.1302 206.492 21.8145 207.985 21.5021C208.291 21.4493 208.625 21.413 208.926 21.3767Z" fill="url(#paint10_linear)"/>
<path d="M198.51 21.535C197.563 21.4756 196.688 21.304 195.933 20.6969C195.487 20.3402 195.161 19.8323 195.004 19.2515C194.544 17.6214 194.07 15.9979 193.607 14.3678C193.327 13.3778 193.583 12.6948 194.376 12.081C195.254 11.421 196.294 11.388 197.289 11.1933C199.174 10.8271 201.071 10.5334 202.956 10.1638C203.729 10.0061 204.528 10.1186 205.24 10.4857C205.952 10.8527 206.541 11.4557 206.924 12.2097C207.603 13.5494 208.289 14.8826 208.971 16.2223C209.777 17.8062 209.332 19.0733 207.732 19.6343C206.563 20.0435 205.327 20.1887 204.125 20.4428C202.36 20.8157 200.593 21.1555 198.825 21.5053C198.705 21.5152 198.591 21.5251 198.51 21.535Z" fill="#E31E26"/>
<path d="M193.814 12.6519C193.973 12.431 194.163 12.2384 194.376 12.081C195.254 11.421 196.294 11.388 197.289 11.1933C199.174 10.8271 201.071 10.5334 202.956 10.1638C203.729 10.0061 204.528 10.1186 205.24 10.4857C205.952 10.8527 206.541 11.4557 206.924 12.2097C207.603 13.5494 208.289 14.8826 208.971 16.2223C209.281 16.7561 209.409 17.3933 209.332 18.0207L193.814 12.6519Z" fill="#ED4D5B"/>
<path d="M217.063 7.29956C218.849 7.37876 220.112 7.95953 221.074 9.36196C222.036 10.7644 223.064 12.0018 224.059 13.3218C224.997 14.579 224.66 15.9121 223.241 16.2916C220.566 16.9516 217.878 17.6742 215.149 17.9778C213.489 18.1593 211.998 17.4763 211.084 15.691C210.357 14.2688 209.581 12.8796 208.821 11.4739C208.06 10.0681 208.499 8.93958 209.951 8.63269C211.664 8.26971 213.39 7.97273 215.112 7.65924L217.063 7.29956Z" fill="url(#paint11_linear)"/>
<path d="M176.607 9.21679C176.607 8.64922 176.637 8.07835 176.607 7.51408C176.559 6.85411 176.859 6.43833 177.307 6.08195C178.269 5.30979 179.427 5.21079 180.56 5.0359C182.246 4.77191 183.933 4.52113 185.619 4.25714C186.087 4.19057 186.56 4.18172 187.029 4.23074C188.201 4.34293 188.694 4.78511 189.001 5.99615C189.254 6.9861 189.479 8.01895 189.756 9.0221C189.848 9.32682 189.849 9.6558 189.759 9.96135C189.669 10.2669 189.493 10.5332 189.257 10.7215C188.469 11.4772 187.477 11.662 186.479 11.8336C184.239 12.2097 182.012 12.6057 179.766 12.9753C179.136 13.081 178.492 13.0245 177.884 12.8103C176.953 12.4803 176.634 12.0349 176.613 10.9888C176.613 10.3981 176.613 9.80746 176.613 9.21679H176.607Z" fill="url(#paint12_linear)"/>
<path d="M176.619 8.22021C176.619 8.5502 176.619 8.88018 176.619 9.21017C176.619 9.80084 176.619 10.3915 176.619 10.9822C176.64 12.0282 176.959 12.477 177.89 12.8037C178.498 13.0179 179.142 13.0744 179.772 12.9687C182.006 12.5991 184.233 12.2031 186.464 11.8269C187.079 11.7481 187.684 11.5931 188.268 11.365L176.619 8.22021Z" fill="#2F3E45"/>
<path d="M194.538 9.94599C193.973 9.95133 193.412 9.83937 192.885 9.61601C192.594 9.5174 192.328 9.34285 192.112 9.10727C191.895 8.87168 191.733 8.58205 191.641 8.26308C191.34 7.20713 191.012 6.16768 190.7 5.12163C190.447 4.28018 190.579 3.91719 191.301 3.42552C191.947 2.97674 192.699 2.87775 193.444 2.76555L198.855 1.96699C199.334 1.89935 199.819 1.89935 200.298 1.96699C201.275 2.10558 202.075 2.49166 202.535 3.48492C202.995 4.47817 203.524 5.33282 204.017 6.26008C204.51 7.18733 204.317 7.7714 203.416 8.29278C202.809 8.60016 202.158 8.78676 201.492 8.84385C199.348 9.21343 197.202 9.56981 195.041 9.94269C194.873 9.95701 194.706 9.95811 194.538 9.94599Z" fill="url(#paint13_linear)"/>
<path d="M208.902 7.38863C207.399 7.35563 206.178 6.83096 205.481 5.28333C205.119 4.56037 204.722 3.85875 204.293 3.18134C203.599 1.9736 203.779 1.20144 205.081 0.970449C207.441 0.534871 209.801 0.000297314 212.212 0.000297314C212.719 -0.00682675 213.22 0.114163 213.678 0.35391C214.136 0.593658 214.537 0.945739 214.851 1.38293C215.539 2.31018 216.279 3.19784 216.997 4.10199C217.662 4.94015 217.499 5.62982 216.537 6.0555C215.834 6.36898 215.07 6.38548 214.331 6.53397C212.768 6.82766 211.198 7.08174 209.632 7.34243C209.392 7.38203 209.145 7.37213 208.902 7.38863Z" fill="#313B41"/>
<path d="M176.893 22.7956C176.893 23.967 177.377 24.7029 178.426 25.1055C178.982 25.3413 179.583 25.4229 180.175 25.3431C183.482 24.7986 186.765 24.1089 190.035 23.3632C190.714 23.1925 191.332 22.8057 191.812 22.2511C192.112 21.9613 192.328 21.582 192.435 21.1596C192.541 20.7372 192.534 20.2898 192.413 19.8719C191.992 18.2682 191.605 16.6579 191.229 15.0443C191.157 14.7106 191.014 14.4006 190.811 14.14C190.608 13.8794 190.351 13.6758 190.062 13.5462C189.369 13.1948 188.596 13.0743 187.841 13.1997C185.436 13.5957 183.031 14.0279 180.626 14.4305C179.622 14.5988 178.657 14.8463 177.833 15.5195C177.481 15.7691 177.195 16.1183 177.008 16.5305C176.82 16.9427 176.737 17.4027 176.766 17.8623L176.893 22.7956Z" fill="url(#paint14_linear)"/>
<defs>
<linearGradient id="paint0_linear" x1="197.527" y1="17.1067" x2="168.955" y2="24.7519" gradientUnits="userSpaceOnUse">
<stop stop-color="#949DA7"/>
<stop offset="0.5" stop-color="#414F58"/>
<stop offset="1" stop-color="#394144"/>
</linearGradient>
<linearGradient id="paint1_linear" x1="193.105" y1="16.8955" x2="209.662" y2="16.8955" gradientUnits="userSpaceOnUse">
<stop stop-color="#1D0C12"/>
<stop offset="0.5" stop-color="#582A1D"/>
<stop offset="1" stop-color="#9C3722"/>
</linearGradient>
<linearGradient id="paint2_linear" x1="203.563" y1="5.04288" x2="217.647" y2="5.04288" gradientUnits="userSpaceOnUse">
<stop stop-color="#949DA7"/>
<stop offset="0.83" stop-color="#5F6C75"/>
</linearGradient>
<linearGradient id="paint3_linear" x1="190.652" y1="8.9793" x2="211.352" y2="2.99843" gradientUnits="userSpaceOnUse">
<stop stop-color="#949DA7"/>
<stop offset="0.5" stop-color="#5F6C75"/>
<stop offset="1" stop-color="#233F40"/>
</linearGradient>
<linearGradient id="paint4_linear" x1="8502.76" y1="201.53" x2="8133.65" y2="498.434" gradientUnits="userSpaceOnUse">
<stop stop-color="#949DA7"/>
<stop offset="0.5" stop-color="#414F58"/>
<stop offset="1" stop-color="#394144"/>
</linearGradient>
<linearGradient id="paint5_linear" x1="11973.8" y1="696.96" x2="12241.6" y2="110.082" gradientUnits="userSpaceOnUse">
<stop stop-color="#949DA7"/>
<stop offset="0.5" stop-color="#5F6C75"/>
<stop offset="1" stop-color="#233F40"/>
</linearGradient>
<linearGradient id="paint6_linear" x1="11887.9" y1="2031.98" x2="13203.7" y2="2031.98" gradientUnits="userSpaceOnUse">
<stop stop-color="#1D0C12"/>
<stop offset="0.5" stop-color="#582A1D"/>
<stop offset="1" stop-color="#9C3722"/>
</linearGradient>
<linearGradient id="paint7_linear" x1="15554" y1="1683.3" x2="16127" y2="380.919" gradientUnits="userSpaceOnUse">
<stop stop-color="#949DA7"/>
<stop offset="0.5" stop-color="#414F58"/>
<stop offset="1" stop-color="#394144"/>
</linearGradient>
<linearGradient id="paint8_linear" x1="15239.5" y1="1515.75" x2="15737.5" y2="341.937" gradientUnits="userSpaceOnUse">
<stop stop-color="#949DA7"/>
<stop offset="0.5" stop-color="#414F58"/>
<stop offset="1" stop-color="#394144"/>
</linearGradient>
<linearGradient id="paint9_linear" x1="14289.1" y1="1432.78" x2="13706.3" y2="3037.96" gradientUnits="userSpaceOnUse">
<stop stop-color="#949DA7"/>
<stop offset="0.5" stop-color="#414F58"/>
<stop offset="1" stop-color="#394144"/>
</linearGradient>
<linearGradient id="paint10_linear" x1="13509" y1="2003.75" x2="14053.4" y2="839.26" gradientUnits="userSpaceOnUse">
<stop stop-color="#949DA7"/>
<stop offset="0.5" stop-color="#5F6C75"/>
<stop offset="1" stop-color="#233F40"/>
</linearGradient>
<linearGradient id="paint11_linear" x1="213.246" y1="18.0273" x2="222.04" y2="5.65975" gradientUnits="userSpaceOnUse">
<stop stop-color="#484F54"/>
<stop offset="0.6" stop-color="#313B41"/>
</linearGradient>
<linearGradient id="paint12_linear" x1="8157.02" y1="293.743" x2="8368.18" y2="-88.1301" gradientUnits="userSpaceOnUse">
<stop stop-color="#949DA7"/>
<stop offset="0.5" stop-color="#414F58"/>
<stop offset="1" stop-color="#394144"/>
</linearGradient>
<linearGradient id="paint13_linear" x1="193.062" y1="10.4839" x2="205.024" y2="-0.114321" gradientUnits="userSpaceOnUse">
<stop stop-color="#5F6C75"/>
<stop offset="1" stop-color="#394144"/>
</linearGradient>
<linearGradient id="paint14_linear" x1="9533.03" y1="956.271" x2="10216.8" y2="105.875" gradientUnits="userSpaceOnUse">
<stop stop-color="#949DA7"/>
<stop offset="0.5" stop-color="#5F6C75"/>
<stop offset="1" stop-color="#233F40"/>
</linearGradient>
</defs>
</svg>
