<svg viewBox="0 0 1413 487" fill="none" xmlns="http://www.w3.org/2000/svg">
<path class="text" fill-rule="evenodd" clip-rule="evenodd" d="M59.6697 415.958H0.253906V432.605H20.4194V485.485H39.6008V432.605H59.6697V415.958ZM135.019 468.837V457.869H160.397V442.398H135.018V432.605H164.724V415.958H115.836V485.485H165.61V468.837H135.02H135.019ZM221.386 463.256C223.061 467.517 225.512 471.434 228.617 474.81C231.756 478.225 235.531 481.002 239.733 482.988C244.174 485.076 249.034 486.131 253.946 486.072C257.011 486.058 260.064 485.697 263.046 484.995C266.08 484.306 269.02 483.254 271.8 481.862C274.465 480.53 276.918 478.814 279.08 476.769C281.14 474.847 282.767 472.51 283.85 469.915L268.21 460.612C267.678 462.081 266.857 463.429 265.795 464.578C264.799 465.639 263.636 466.532 262.353 467.222C261.101 467.897 259.759 468.392 258.368 468.69C257.043 468.979 255.691 469.126 254.335 469.131C251.998 469.168 249.686 468.647 247.593 467.613C245.631 466.634 243.904 465.248 242.527 463.549C241.126 461.801 240.061 459.81 239.389 457.676C238.663 455.43 238.298 453.083 238.307 450.723C238.314 448.522 238.629 446.332 239.242 444.217C239.828 442.103 240.795 440.112 242.094 438.341C243.473 436.466 245.292 434.955 247.392 433.939C249.492 432.924 251.811 432.434 254.144 432.514C255.514 432.52 256.881 432.651 258.227 432.906C259.645 433.171 261.019 433.632 262.309 434.277C263.648 434.95 264.862 435.844 265.9 436.921C267.046 438.135 267.932 439.567 268.506 441.132L283.161 430.749C280.632 426.081 276.784 422.253 272.092 419.738C267.067 417.205 261.547 415.792 255.917 415.595C250.286 415.399 244.681 416.425 239.489 418.602C235.272 420.501 231.464 423.195 228.275 426.534C222.241 432.93 218.867 441.362 218.832 450.134C218.841 454.629 219.707 459.082 221.385 463.256H221.386ZM382.416 415.958V441.614H359.003V415.958H339.821V485.485H359.003V458.258H382.415V485.485H401.598V415.958H382.416ZM509.702 485.485H524.947V415.958H505.768V451.309L477.733 415.958H462.779V485.485H481.959V451.309L509.702 485.485ZM631.923 483.135C636.144 481.277 639.969 478.634 643.193 475.349C646.337 472.124 648.84 468.336 650.569 464.186C652.332 460.017 653.235 455.538 653.226 451.016C653.222 446.556 652.372 442.137 650.72 437.991C649.072 433.797 646.653 429.945 643.586 426.632C640.44 423.261 636.663 420.533 632.467 418.602C627.933 416.534 622.993 415.497 618.007 415.566C613.085 415.513 608.209 416.498 603.697 418.455C599.465 420.291 595.626 422.917 592.387 426.191C589.203 429.413 586.681 433.221 584.961 437.403C583.201 441.59 582.298 446.084 582.304 450.622C582.299 455.119 583.167 459.575 584.86 463.744C586.522 467.927 588.956 471.763 592.035 475.056C595.191 478.403 598.966 481.112 603.154 483.037C607.687 485.105 612.627 486.141 617.614 486.072C622.54 486.125 627.421 485.123 631.923 483.135ZM602.711 444.112C603.303 441.991 604.285 439.999 605.609 438.236C606.934 436.498 608.633 435.076 610.58 434.074C612.794 432.981 615.244 432.443 617.715 432.507C620.147 432.451 622.558 432.971 624.748 434.025C626.689 434.991 628.397 436.361 629.76 438.04C631.131 439.752 632.15 441.715 632.758 443.817C633.422 446.025 633.755 448.319 633.745 450.624C633.745 452.908 633.43 455.182 632.809 457.381C632.23 459.512 631.265 461.52 629.961 463.306C628.646 465.066 626.946 466.506 624.99 467.516C622.755 468.571 620.314 469.123 617.841 469.131C615.367 469.14 612.923 468.605 610.681 467.565C608.74 466.574 607.043 465.17 605.71 463.453C604.376 461.708 603.376 459.732 602.762 457.626C602.102 455.417 601.77 453.124 601.775 450.819C601.773 448.551 602.088 446.294 602.71 444.112H602.711ZM761.429 485.485V468.837H729.752V415.958H710.573V485.485H761.429ZM862.207 483.135C870.641 479.44 877.32 472.653 880.853 464.186C882.615 460.017 883.519 455.538 883.509 451.016C883.502 446.555 882.648 442.137 880.994 437.991C879.353 433.795 876.937 429.942 873.869 426.632C870.724 423.261 866.947 420.533 862.75 418.602C858.217 416.534 853.277 415.497 848.29 415.566C843.369 415.513 838.492 416.498 833.981 418.455C829.745 420.291 825.903 422.917 822.661 426.191C819.483 429.419 816.962 433.225 815.234 437.403C813.475 441.59 812.572 446.084 812.578 450.622C812.576 455.12 813.448 459.575 815.144 463.744C816.806 467.927 819.239 471.763 822.318 475.056C825.473 478.405 829.248 481.115 833.438 483.037C837.971 485.105 842.911 486.141 847.898 486.072C852.824 486.125 857.704 485.123 862.207 483.135ZM832.995 444.112C833.586 441.991 834.569 439.999 835.893 438.236C837.216 436.496 838.915 435.074 840.864 434.074C843.078 432.981 845.527 432.443 847.998 432.507C850.3 432.434 852.587 432.897 854.678 433.857C856.769 434.818 858.606 436.25 860.043 438.04C861.414 439.752 862.433 441.715 863.042 443.817C863.701 446.027 864.033 448.32 864.028 450.624C864.028 452.908 863.713 455.182 863.092 457.381C862.513 459.512 861.548 461.52 860.245 463.306C858.93 465.066 857.23 466.506 855.274 467.516C853.039 468.571 850.598 469.123 848.125 469.131C845.651 469.14 843.206 468.605 840.964 467.565C839.024 466.574 837.327 465.17 835.994 463.453C834.659 461.708 833.66 459.732 833.045 457.626C832.381 455.418 832.049 453.124 832.059 450.819C832.056 448.551 832.372 446.294 832.995 444.112ZM988.271 485.485H1004.1V448.467H975.381V462.181H987.477C983.22 466.751 978.303 469.036 972.725 469.036C970.458 469.067 968.211 468.616 966.134 467.713C964.196 466.852 962.469 465.582 961.072 463.993C959.609 462.314 958.488 460.368 957.772 458.264C956.202 453.442 956.202 448.25 957.772 443.428C958.487 441.304 959.588 439.328 961.022 437.601C962.368 435.992 964.046 434.689 965.943 433.782C967.907 432.855 970.058 432.386 972.232 432.412C975.327 432.415 978.359 433.279 980.986 434.908C983.648 436.472 985.8 438.766 987.185 441.515L1001.45 430.646C1000.2 428.294 998.575 426.16 996.634 424.33C994.637 422.452 992.405 420.839 989.992 419.531C987.467 418.169 984.769 417.148 981.972 416.496C979.008 415.802 975.971 415.457 972.926 415.468C968.087 415.427 963.288 416.342 958.808 418.16C954.584 419.864 950.728 422.357 947.447 425.505C944.142 428.702 941.522 432.532 939.746 436.765C937.97 440.997 937.074 445.543 937.113 450.13C937.02 455.32 937.957 460.478 939.87 465.308C941.55 469.513 944.058 473.342 947.246 476.569C950.32 479.636 954.009 482.024 958.073 483.576C962.211 485.18 966.614 485.995 971.054 485.979C977.369 486.042 983.49 483.814 988.271 479.711V485.489V485.485ZM1081.91 485.485V415.958H1062.73V485.485H1081.91ZM1162.28 468.837V457.869H1187.66V442.398H1162.28V432.605H1191.99V415.958H1143.1V485.485H1192.88V468.837H1162.28ZM1301.57 422.91C1299.99 422.127 1298.22 421.295 1296.26 420.414C1294.18 419.492 1292.07 418.675 1289.91 417.965C1287.6 417.204 1285.26 416.583 1282.88 416.104C1280.41 415.611 1277.91 415.365 1275.4 415.371C1272.05 415.352 1268.71 415.864 1265.52 416.888C1262.49 417.85 1259.68 419.361 1257.21 421.344C1254.76 423.33 1252.79 425.841 1251.45 428.688C1249.99 431.882 1249.26 435.363 1249.34 438.872C1249.3 441.166 1249.64 443.45 1250.36 445.629C1251.05 447.578 1252.14 449.363 1253.56 450.868C1255.17 452.526 1257.03 453.915 1259.08 454.981C1261.63 456.329 1264.29 457.46 1267.04 458.36C1269.14 459.079 1271.13 459.699 1272.99 460.22C1274.87 460.743 1276.52 461.265 1277.96 461.786C1279.19 462.194 1280.34 462.807 1281.36 463.598C1281.74 463.895 1282.05 464.274 1282.26 464.708C1282.47 465.142 1282.58 465.618 1282.58 466.101C1282.59 466.542 1282.48 466.977 1282.26 467.363C1282.05 467.749 1281.73 468.072 1281.36 468.303C1280 468.974 1278.49 469.261 1276.98 469.135C1274.23 469.136 1271.49 468.74 1268.86 467.961C1266.42 467.259 1264.04 466.374 1261.73 465.316C1259.25 464.213 1256.85 462.937 1254.55 461.497L1246.29 478.242C1248.47 479.527 1250.76 480.64 1253.12 481.571C1255.63 482.566 1258.19 483.416 1260.8 484.118C1263.43 484.832 1266.11 485.388 1268.81 485.783C1271.41 486.168 1274.04 486.364 1276.68 486.37C1279.91 486.367 1283.13 485.99 1286.28 485.244C1289.33 484.548 1292.23 483.304 1294.83 481.571C1297.39 479.833 1299.49 477.496 1300.93 474.764C1302.57 471.501 1303.36 467.883 1303.24 464.237C1303.32 461.391 1302.82 458.56 1301.76 455.913C1300.81 453.679 1299.37 451.688 1297.54 450.087C1295.54 448.388 1293.3 446.986 1290.9 445.925C1288.07 444.661 1285.16 443.582 1282.19 442.693C1280.16 442.041 1278.34 441.486 1276.73 441.028C1275.34 440.648 1273.98 440.174 1272.65 439.609C1271.71 439.229 1270.84 438.682 1270.09 437.993C1269.79 437.696 1269.57 437.344 1269.42 436.957C1269.27 436.569 1269.2 436.156 1269.21 435.741C1269.17 435.2 1269.3 434.66 1269.57 434.189C1269.84 433.718 1270.24 433.338 1270.73 433.096C1272.01 432.52 1273.41 432.252 1274.82 432.314C1277 432.328 1279.17 432.674 1281.26 433.342C1283.28 433.963 1285.26 434.698 1287.2 435.544C1289.3 436.458 1291.34 437.505 1293.31 438.677L1301.57 422.91Z" fill="#FF9000"/>
<path class="text" fill-rule="evenodd" clip-rule="evenodd" d="M12.254 251.47C10.37 261.83 8.48505 272.19 8.48505 282.55C8.48505 321.164 29.2161 348.477 79.1591 348.477C99.4022 348.532 119.497 345.025 138.525 338.117L125.329 285.37C119.675 288.196 114.021 290.079 108.367 290.079C93.29 290.079 85.751 283.487 85.751 269.36C85.6233 264.319 85.9389 259.276 86.694 254.29L104.594 165.76H157.364L168.675 107.37H117.79L129.098 47.0942H65.962L45.2321 107.37L11.308 110.195L0 165.76H30.1541L12.254 251.47Z" fill="#001D99"/>
<path class="text" fill-rule="evenodd" clip-rule="evenodd" d="M144.254 342.821H219.641L245.082 210.97C262.982 179.89 279.948 167.646 299.736 167.646C307.275 167.646 317.636 167.646 324.236 171.414L348.741 106.425C344.029 103.6 336.491 101.716 323.298 101.716C296.913 101.716 269.586 123.378 251.682 153.516H249.797L251.678 107.37H190.427L144.254 342.821Z" fill="#001D99"/>
<path class="text" fill-rule="evenodd" clip-rule="evenodd" d="M308.254 342.821H383.64L430.758 107.37H355.37L308.254 342.821ZM405.318 77.229C430.758 77.229 450.548 59.334 450.548 34.847C450.548 12.247 430.758 0 410.968 0C385.525 0 365.736 19.778 365.736 42.381C365.736 65.927 385.525 77.229 405.318 77.229V77.229Z" fill="#001D99"/>
<path class="text" fill-rule="evenodd" clip-rule="evenodd" d="M411.254 262.825C411.254 318.392 435.754 349.472 477.214 349.472C499.834 349.472 527.164 336.287 547.894 314.625H548.834V343.825H610.084L657.204 108.37H596.894L586.524 131.915H585.584C577.104 114.021 556.374 102.715 536.584 102.715C471.564 102.716 411.254 173.352 411.254 262.825ZM511.144 288.254C497.944 288.254 489.464 277.894 489.464 253.407C489.464 200.665 514.914 163.934 542.234 163.934C550.714 163.934 562.024 169.585 567.684 181.829L552.604 257.17C540.354 282.603 523.394 288.254 511.144 288.254Z" fill="#001D99"/>
<path class="text" fill-rule="evenodd" clip-rule="evenodd" d="M626.254 303.323C646.984 334.403 684.674 349.472 712.004 349.472C771.364 349.472 813.774 317.45 813.774 270.36C813.774 235.512 789.274 216.676 766.654 204.432C748.754 194.072 728.964 188.421 728.964 175.232C728.964 165.814 738.384 158.279 753.464 158.279C768.544 158.279 781.734 167.697 793.044 178.999L833.564 140.385C813.774 119.665 787.384 102.712 753.464 102.712C700.694 102.712 658.294 136.612 658.294 181.825C658.294 212.905 680.434 234.566 703.524 247.752C728.024 261.879 743.094 266.588 743.094 278.832C743.094 288.25 730.844 294.843 716.714 294.843C702.584 294.843 686.564 287.308 669.594 267.53L626.254 303.323Z" fill="#001D99"/>
<path class="text" fill-rule="evenodd" clip-rule="evenodd" d="M816.254 303.323C836.984 334.403 874.674 349.472 902.004 349.472C961.374 349.472 1003.77 317.45 1003.77 270.36C1003.77 235.512 979.274 216.676 956.664 204.432C938.754 194.072 918.964 188.421 918.964 175.232C918.964 165.814 928.394 158.279 943.464 158.279C958.534 158.279 971.734 167.697 983.044 178.999L1023.56 140.385C1003.77 119.665 977.394 102.712 943.464 102.712C890.694 102.712 848.294 136.612 848.294 181.825C848.294 212.905 870.434 234.566 893.524 247.752C918.024 261.879 933.104 266.588 933.104 278.832C933.104 288.25 920.854 294.843 906.714 294.843C892.574 294.843 876.564 287.308 859.604 267.53L816.254 303.323Z" fill="#001D99"/>
<path class="text" fill-rule="evenodd" clip-rule="evenodd" d="M1000.25 343.821H1075.63L1122.75 108.37H1047.36L1000.25 343.821ZM1097.31 78.229C1122.75 78.229 1142.54 60.334 1142.54 35.847C1142.54 13.247 1122.75 1 1102.96 1C1077.52 1 1057.73 20.778 1057.73 43.381C1057.73 66.927 1077.52 78.229 1097.31 78.229V78.229Z" fill="#001D99"/>
<path class="text" fill-rule="evenodd" clip-rule="evenodd" d="M1107.25 251.523C1107.25 313.683 1148.71 349.472 1201.48 349.472C1239.17 349.472 1263.67 335.345 1281.58 322.159L1250.48 276.01C1242 282.603 1232.58 289.196 1218.44 289.196C1195.82 289.196 1184.52 274.127 1184.52 250.581C1184.52 202.549 1209.96 162.992 1243.88 162.992C1255.19 162.992 1262.73 167.701 1271.21 176.178L1312.67 131.912C1301.36 117.785 1278.75 102.712 1248.59 102.712C1167.56 102.716 1107.25 172.411 1107.25 251.523Z" fill="#001D99"/>
<path class="text" fill-rule="evenodd" clip-rule="evenodd" d="M1362.49 105.616H1325.25V116.105H1337.89V149.423H1349.91V116.105H1362.49V105.616ZM1412 149.423V105.616H1398.93L1389.44 126.224L1380 105.616H1366.87V149.423H1378.89V126.347L1386.23 142.574H1392.64L1399.98 126.347V149.423H1412V149.423Z" fill="#FF9000"/>
</svg>