<svg width="67" height="64" viewBox="0 0 67 64" fill="none" xmlns="http://www.w3.org/2000/svg">
<path opacity="0.3" fill-rule="evenodd" clip-rule="evenodd" d="M11.1253 0H55.6253C57.6734 0 59.3337 1.66028 59.3337 3.70833V37.0833C59.3337 39.1314 57.6734 40.7917 55.6253 40.7917H11.1253C9.07727 40.7917 7.41699 39.1314 7.41699 37.0833V3.70833C7.41699 1.66028 9.07727 0 11.1253 0ZM16.6878 11.125C15.6638 11.125 14.8337 11.9551 14.8337 12.9792C14.8337 14.0032 15.6638 14.8333 16.6878 14.8333H38.9378C39.9619 14.8333 40.792 14.0032 40.792 12.9792C40.792 11.9551 39.9619 11.125 38.9378 11.125H16.6878ZM16.6878 18.5417C15.6638 18.5417 14.8337 19.3718 14.8337 20.3958C14.8337 21.4199 15.6638 22.25 16.6878 22.25H27.8128C28.8369 22.25 29.667 21.4199 29.667 20.3958C29.667 19.3718 28.8369 18.5417 27.8128 18.5417H16.6878Z" fill="#001D99"/>
<path fill-rule="evenodd" clip-rule="evenodd" d="M2.93976 16.9565L33.375 38.9375L63.8102 16.9565C64.6404 16.357 65.7994 16.5439 66.399 17.3741C66.6272 17.69 66.75 18.0699 66.75 18.4597V55.625C66.75 59.7211 63.4294 63.0417 59.3333 63.0417H7.41667C3.32055 63.0417 0 59.7211 0 55.625V18.4597C0 17.4356 0.830139 16.6055 1.85417 16.6055C2.24393 16.6055 2.62379 16.7283 2.93976 16.9565Z" fill="#001D99"/>
</svg>
