<svg width="1380" height="166" viewBox="0 0 1380 166" fill="none" xmlns="http://www.w3.org/2000/svg">
<path opacity="0.4" d="M309 167.364C309 167.364 485.451 0 707.829 0C948.613 0 1065.91 167.364 1065.91 167.364H309Z" fill="#001D99"/>
<path opacity="0.4" d="M269 83.6522C269 83.6522 425.819 -43.0458 588.807 31.4827C871.338 160.666 1002.88 24.3067 1124.7 14.0978C1302.5 -0.811941 1380.3 73.719 1380.3 73.719V166.529H269V83.6522Z" fill="#001D99"/>
<path opacity="0.4" d="M1111.3 83.6522C1111.3 83.6522 954.476 -43.0458 791.489 31.4827C508.957 160.666 377.416 24.3067 255.601 14.0978C77.7922 -0.812989 0 73.7182 0 73.7182V166.529H1111.3V83.6522Z" fill="#001D99"/>
<path d="M445.128 33.0155C747.888 117.395 748.145 117.823 987.638 33.0155C1148.34 -23.8928 1278.4 67.1015 1340.44 124.838C1365.97 148.594 1380 166.713 1380 166.713H0C0 166.713 207.181 -33.3037 445.128 33.0155Z" fill="white"/>
</svg>
