<?xml version="1.0"?>
<svg xmlns="http://www.w3.org/2000/svg" height="512px" viewBox="0 -1 499.248 499" width="512px"><path d="m418.015625 281.453125 15.820313-2.40625 2.410156 15.847656-15.816406 2.40625zm0 0" fill="#D80027"/><path d="m422.871094 313.300781 15.820312-2.40625 20.6875 136-15.816406 2.40625zm0 0" fill="#D80027"/><path d="m50.636719 414.398438 3.503906-16 15.628906 3.421874-3.5 15.996094zm0 0" fill="#D80027"/><path d="m64.632812 350.398438 17.5-79.964844 15.628907 3.421875-17.5 79.964843zm0 0" fill="#D80027"/><path d="m57.636719 382.398438 3.5-16 15.632812 3.421874-3.5 16zm0 0" fill="#D80027"/><path d="m444.34375 135.347656c22.375-12.222656 37.59375-35.984375 37.59375-63.222656 0-39.695312-32.304688-72-72-72-39.699219 0-72 32.304688-72 72 0 9.320312 1.839844 18.207031 5.078125 26.390625l-70.023437 85.03125c-6.535157-4.640625-14.457032-7.421875-23.054688-7.421875-16.609375 0-30.867188 10.175781-36.90625 24.613281l-91.503906-36.597656c.167968-1.328125.410156-2.640625.410156-4.015625 0-17.648438-14.351562-32-32-32s-32 14.351562-32 32 14.351562 32 32 32c10.550781 0 19.855469-5.199219 25.6875-13.105469l94.375 37.753907c.351562 21.742187 18.105469 39.351562 39.9375 39.351562 22.054688 0 40-17.945312 40-40 0-7.617188-2.257812-14.671875-5.96875-20.746094l67.277344-81.695312c6.160156 8.671875 14.167968 15.9375 23.480468 21.175781l-50.3125 244.351563-33.421874-66.847657c-7.464844-14.953125-22.496094-24.238281-39.214844-24.238281-18.90625 0-35.625 12.046875-41.601563 29.984375l-35.847656 107.542969-46.574219-173c-4.53125-16.800782-19.832031-28.527344-37.226562-28.527344-17.984375 0-33.824219 12.75-37.664063 30.3125l-52.863281 241.6875h499.246094zm-354.40625 40.777344c-8.824219 0-16-7.175781-16-16s7.175781-16 16-16 16 7.175781 16 16-7.175781 16-16 16zm160 64c-13.234375 0-24-10.769531-24-24 0-13.234375 10.765625-24 24-24 13.230469 0 24 10.765625 24 24 0 13.230469-10.769531 24-24 24zm160-218.871094 9.964844 34.871094h35.617187l-31.550781 21.03125 13.496094 31.488281-27.527344-22.9375-27.523438 22.9375 13.496094-31.488281-31.558594-21.03125h35.617188zm-20.96875 102.757813 20.96875-17.472657 20.964844 17.472657c-6.476563 2.632812-13.550782 4.113281-20.964844 4.113281-7.417969 0-14.488281-1.480469-20.96875-4.113281zm65.015625-17.421875-10.074219-23.503906 21.851563-14.5625c.070312 1.199218.175781 2.382812.175781 3.601562 0 13-4.496094 24.949219-11.953125 34.464844zm1.839844-66.464844h-23.855469l-6.191406-21.679688c12.3125 3.640626 22.855468 11.390626 30.046875 21.679688zm-61.726563-21.679688-6.195312 21.679688h-23.855469c7.191406-10.289062 17.738281-18.039062 30.050781-21.679688zm-40.160156 53.679688c0-1.21875.101562-2.402344.183594-3.601562l21.847656 14.5625-10.074219 23.503906c-7.460937-9.515625-11.957031-21.464844-11.957031-34.464844zm-285.441406 185.734375c2.246094-10.28125 11.511718-17.734375 22.03125-17.734375 10.175781 0 19.128906 6.855469 21.769531 16.6875l51.503906 191.3125h19.894531l41.65625-124.953125c3.800782-11.390625 14.417969-19.046875 26.425782-19.046875 10.613281 0 20.167968 5.894531 24.910156 15.398438l40.304688 80.601562h19.464843l53.3125-258.929688c6.40625 1.871094 13.160157 2.929688 20.167969 2.929688 6.636719 0 13.039062-.976562 19.152344-2.664062l51.535156 338.664062h-460.753906zm0 0" fill="#D80027"/><path d="m249.9375 448.125h16v16h-16zm0 0" fill="#D80027"/><path d="m281.9375 448.125h16v16h-16zm0 0" fill="#D80027"/><path d="m313.9375 448.125h16v16h-16zm0 0" fill="#D80027"/></svg>
